<mxfile host="app.diagrams.net" modified="2023-06-11T07:58:13.602Z" agent="Mozilla/5.0 (Windows NT 10.0; Win64; x64) AppleWebKit/537.36 (KHTML, like Gecko) Chrome/114.0.0.0 Safari/537.36 Edg/114.0.1823.41" etag="xAm94SruF9JBgtlkbf-C" version="21.3.6" type="github">
  <diagram name="第 1 页" id="Hri6vhWEoTn9MWtu2kwR">
    <mxGraphModel dx="2026" dy="1156" grid="0" gridSize="10" guides="1" tooltips="1" connect="1" arrows="1" fold="1" page="1" pageScale="1" pageWidth="4681" pageHeight="3300" math="0" shadow="0">
      <root>
        <mxCell id="0" />
        <mxCell id="1" parent="0" />
        <mxCell id="1QiOH6tT_yfQtaS86Rcd-22" value="" style="group" parent="1" vertex="1" connectable="0">
          <mxGeometry x="201.998916015625" y="411.99895263671874" width="385" height="133" as="geometry" />
        </mxCell>
        <mxCell id="1QiOH6tT_yfQtaS86Rcd-3" value="" style="shape=image;verticalLabelPosition=bottom;labelBackgroundColor=default;verticalAlign=top;aspect=fixed;imageAspect=0;image=data:image/png,iVBORw0KGgoAAAANSUhEUgAAAYEAAACFCAYAAAC9v0SGAAAgAElEQVR4nO3dd3xU153w/8+5Mxq1Ue9CCCFRRBEdYYppBlNsY2PH3cFx7PVu8iS/TZx9Nv7tPptscX7Z59nH2cSOnWwSZ91wYhvcMBiMg+kIUQRIIIEK6kK9M9LM3Ht+f4wQIxBoRkgIpPN+vXi9mNGZ0+6593vvuU1MmTJFoiiKooxI2lBXQFEURRk6KggoiqKMYCoIKIqijGAqCCiKooxgKggoCiB9IkhMicdHDv11EjIgkaQxYZgGsS5SCjQfH7RboL3K0DIPdQUGmpQSHw2cUgx1VZTbgJR+xM1/hPvWLCS2djO/eLUCx1BXKmgGq7+3loCSvWx//wPO1DoHLGspoph831PcNXscoQGl7PyXf+dw24Blr9yGTNHR0f98swsdP9mHX8zUOFegUyt631gnp/rwy/k+rJ9oZv1EMw+kCMrydaqukR5cezdrF/nwD1NNmKp1cjsHNxB40o6B1p9+GY5k+hRO/TQJDldwtP06Y+I66aT0YdTKH7LhnrE07HuLP390gGb98t9NY+cx7s5pREwc3+Nf+IQULK0FtLUNUp+35XPmdC0Bk+9mxZJULuYeobJ9YPbYQxZ9l6dXxlLx9Qd8+fUhimuasKsdphHtlj0SqCp38kqja3CGxZt4KtaTXxk4dIFTl9gHtXZDp3/9ovTGlPQAD9ydwIUvfs57uyowegmkUjbTdLQAW49tsMTROHj1EsLAVpnB9t9ewPn9F1n5yN0UvbKNhgEI9BExsZiaj7F350EqhQBUABjphi4ISLjevo2tTXKszZVidIjJoyyFEHyVYecr16cbraFn+mjHQOtPvyhXk9LEpCWLiWjYz8e7ew8ALg46a6ppN678++CPL+EoZve2Q0x/dhnpKdvZXnTjI62zsxMsFvwGoH7K8OBREEhO9eEniQa/z4JFaRopFkFTi84np5wcdDsknjzVh7+Plfxsp4P8rpVKxpj5/VzBjt12NrsfPktJSIyZF6dqJPsKGhsNPjrl4PBF71cuGWfmzdka2qUyO5383x1OcsSVh/+S0Agzj03SmBwk8NMllXUGm3Od5HT0c6X2oB1SSsKjzDyRqpEaJLA4JKW1Bu+fcVLg8D6d51WThEaZeTJVY2qQwKxLCit13svVKdN75hcSYeLxVI20YFe6qnqDD087Oe3WL+Mn+/CPCZI3TsGSKRqJFklDo8GmkwZHbf3bQEVNTOTvHohjYaI/ls4Ois5W8eoHxRxodO8XjdTF4/inNdFMDIaqc2W8lCWvCr6epnOZwNgUX1pPZFF1k6ZDpBRYJ6xh1eo7SYkPRbPXUXlqJzu27KHG3nsdnGdPUNS5kLETR0NR6Q3Xoa29DfyDCTQBxg1npwwDnl8dJDTuThGcztd5+6xOS6CJ5+aYGSP6u3eisWIsnMzXeSdPpz1Y46/nmEnoz9UK9TqvHHHySqaDP1Vee2Sbgsz8YJ6JKUi+yHHwVr6BLcLED9LNJA5iO0xBZn6QbmKCbrAl28m7RQbmGBN/N9tMRD/SeVyzIBMvpJuYqBt8ku3knQID33gzP55pItgtPxFk4u/mmZgkJZ+ddPWLI9zE3842E3NVuYK7kiTHzzl556xBZ4iJ78zReknXN5Ewht/+IJl5soHfv3uaf9tWh2NCMr/660SS3PKzTEjmlafiia+v4lcbz/FWoT/PLLaiX5Gfp+kAMIUT5A/NTXV9V9Tsg2Y2X/5nEsj+LI+4tTzx7P2McZ5i7+Y3+WJXHj7TnmLD4/MJvFZ+Ri0tzRAUGuZ1eb3p6LCB8MXXMiDZKcOA59NBPnD4pINtNtcey3Gn4NXpGrMCoaQ/Vxf4SY7sdbKjaw8oyxC8kubKr/yid1kJuySr2rUSJYeZIKL3dIkJGmOlzm8ynBzWBaCTaYNfz9WYZ4XS1sFpR2KCxhjD4LVMJ0e69sCzdI1X0jTS/eGLDu/SeSol0cQYvWd+J5yCX07TmO+rs6PrxEmAryS/xMmhXJ18w9UvpwzBr9MEM3zpTgeARZJx3Mn2rvaeQfDyZI1pFtjp5WU1wcEGWXvPsXVTBVkOAdSy3whk72ORLA4ppbjFlW7a7ChGddTywqsFfGkXQA05PulsHtMzP0/Tudrhg1mArl//yhshIoldtbLHd7Ixj/P7inoPLtcxKn0hsY4sPnzjPfLsAjhMgT2KH6xfwtTgQxzudfw50XUw+/h6WVpXXaXAZPHDbAKTbxSTJ8QjG45R2dmv7JRhyPMg4JCUXaR7KrS9RdKMINQP6E8QsEvKOy/n19oqabmUn5dBwFPR/gJsUOy8XK7jgpPvbgN0+jfN60E7XOUalDnd0xm0oBEVAHR4l85TEb6u/KqEhn/Xkna2SZrRiLYCDa7v2usM3q4DKcHfRyAA3Q52BFYL9DjLbpeUubW3rs3152Bf8PbayuYzZbx0BqTQCPTX0ABHm50Oggm1Al1BIDrEAg3tnHMr91xlGwaBPfLzNJ03pGyi8fBZLrofYDou4raIPBYUEgL1VdRrAVi6JuWdNdW0iZmERgH92QnpUxR3fv8llsS7aqu35fOXP2yiUl0RpHTxPAjIK+ZWpWtKsf9DSVyVn0QwmFc6ahpXncgVQmDcUEP6bselco0BSudxzTQQIWZ+tqbn91JKNPdy/TWemG5iYbggwOQ+F9/b1NoV7b2B5aVFRvLjDeNYN96fILP7+aL2niUKcdVyM66shxfpXH9wjee+q+/EXl+P7YoTw6IfC0QTGiLhXr7z0r09vpeyFdN1JmYF9Gv6yaWBEx/+ghJfgck3ivErHmbJAys4++r2AbnaSLn9eR4EhOi5wgjXCYUeK5wUuFY7dxKB6OUclLwqP3FFfgPt0sZ+YG+T7rsdvZYrXJtT93Xb03Qe18wA2erkN9nGFTuZgvrmrjRSsHy6mbusBh+f0Cns7Ar2oSZ+OGnwNhJS+vD401N4PLqe1986R3aT7hojyWP49QP+V6SV3f16iXZlv3uRDgCHDbsBYX6BdB9yDDJDGsjqvWz6+Ai2Hn/RaSm/1q+s+PqDvaP9WgmuSwgnzWV5uBZ3LmXBs5n74FSS/bfT4OWRpTI8eb499BGMDrj8MTBYEAI0uQ2kapsBFsFot5NO8cEaPgbUXjmGLYIEt2nOoCBBMJImG1exG3JANt41Ngn+gjFuoc8cY+K39/rwSHA/w48H7bhUboLbFZ3WIEEwUNPmfbpL+uqX+k4JZmhsMDhTLzlTLzndCiatZ1BJDIbGKoPPKg1Od6UrdsDgXoAawMRRGtUnSvltRgMH8po5lNdMTtvV5dY02yE8kAlu/Twh3npVuz1NB4BRRm0tRCSkYLlJj05obW4GX4P2wlyKC/IoLsjj/IV2TD6ugN2r4GTiQqC2+ppRwisWiwVw4hjy26KVW4XnRwJ2SJ/ug1Zh0GQWLB2nIdp0jrlt3BsqDc5MMLM+3Yy5RGLz01iVImiqdHLsyikXh2DhLDNauaTNR7BsvAYtOsfbueoYvbYJWjXB8klmZGPXnqpDkl1vYBeCkBCNcV1zrFGBgKaREmvCF0CX5NYaXBSC0nKD4rEmnrzDh7ASnRaTxqLxJnxa9WuclPOAB+0oLTcoSTbx1DwzoSUGnX4mlo7TsNfpZHZ6n87Tfiks1SlNMvPsbNhRIbloFkxNMrHQV+d/7zKo6crnfLNkcYKJZ2yCMzaJ1aoxJ04M8uMT2skp0Xnwjgn8S0M5GQ0GobERrJwRSOcVx42njtVSsSyBF78/juiDLVwMj2DtLDP6FTX0NB2AEFXknKpg4V1LSI8+wP7aawUCH3yjYzCuulmsBvs1Luu8lorMA1xYcA/3bWgn42QFHZYIkhesYbo1k3d+fo4r7z+TUiN+8WISZAE7spoZiHsTrFYrdNTS3p+TGsqw5NFjI8IiTSwJkbyfK5k7ycSyWA3ZqvNelpMctxVBOCUn6yE6SmNRookZwXChQue/zug0uJ2IiogysTjYYPM5mD/JzJJoDb1FZ+MJJ2d6uR7eaJeUIkgfo7E80cQdCSbSQyT7SgzahWDmVB++l2pi3igTaUECYRJMGuX6nB4JJ4oMGoTA6DQ40SiIjdSYP9rEnAhBZ4PBf59wcq4f1+F72g6j0+Bkk2BUtKtfZoZAU43B7085qTC8T+dpv8hOg6wmQVKcxtIxJmZHCLRWg43HDU51newVAs7XS3yCNdITNObHCqKRfFQMs+ME54t1cruWsau9cKDQuPyYDKvGulGCQrd0nhDCIOdcK76jwrj7jjjumRFGgt7A6/sc3DXTj9O7yznc2nUys76ZYy0WZk2L4Z70SFK1Jl47pLM2zYejuy4/DsLTdJe0l9USMnsVc9PCqDmd4zpycqOFJRAeE4b/qHiC3P5Z42MxNXn/2AjZWsDZMohLW8Ts+XcwMTkereoQ2/+0icIrHgshpYnIud/m0bXjadvzez7PaUQOwBx+9PR7mRZSQua+HFrVOQEFEJ68XvLSzWK93YClKLczLWYxD337cSZaGyjeu5EPtp/GPsRjXAbNYNU3H2PmWCvNR97mvQ8P0zJAV/NErvwJ31kBGW/+joPnG7DZOq9zt7QyEnh1JHCw0KBGDRhlGJHtJZzOPE49EYyK7ORcdvGQBwFCpjJ7YienP32DLbvPYhvAeZv2yguYku9g3vI1LFw+kY5D+6nwclpLGV7UkYCijDBSmvCPiCMyVKO5pIRWXa3TI5lHQUBRFEUZntSbxRRFUUYwFQQURVFGMBUEFEVRRrBeg4DVar3Z9VAURVGGgDoSUBRFGcFUEFAURRnBVBBQFEUZwVQQUBRFGcFUEFAURRnBVBBQFOWGSZ8IElPi8blJ72YYCWRAIkljwjANcp+qIKDcEqQ0YdLUM2xuN1L6EXvHBp7/X/8fT6+ZiqXvn/SRn4amnk/mEjSD1d/7OX/7/SeZHOX5q1+81euzg6xWK21t/Xl7vHKzBCTdxYp7lpIcF46vo4nq/D3s+mwnpW23356YlNEs+P4/sSKhgf2v/YSvy3rfCETNuJ9p1rMc3JeL7QY2FHLG3/C/npyF6Yo8ZPsBNv7kvynqZ94DVb+hEHfvz/irpdHdn6U9kw/+399x9jrtkNKHUStf4JsrI6n4+s9s332cuo7+jz8pw5m14HkWhjRz9ODrZLTcXn3oDamFELHwWSZOG42JfPJ/9xrVV7zTREqNgFHpLH7oUeZGlLL9N69wtFof8LoMXnhRBo0MX8Y3/upRoqr2cOCTfNoDkpm57CEef1ryu9e/pHGAnj1/8xg47U6cDgeO62xDoqetZkGkwfF9ufTyFlLPFW7nwzczEIwm/cn7iDq7ia1Ha8BZz4UbyHbA6jcE6o+8w/vnXa/nC575GKsn9/0bU9IDPHB3Ahe++Dnv7aoYgPcS6DgNHUN34rz99mU8Jv3HMebuDYyOc9BUUUfYqN7TCWFgq8xg+28v4Pz+i6x85G6KXtlGwwDvYKggcBsKn7WAMVoOn/7hXU51CCCTs+0R/PCxRaRFfsne2qGuoXeEqOPI737IEdenwS+vtZhzp0FKnUkGhDYWcvZ04aXKDHr5tyJ7dR5nq13/j0pY32d6KU1MWrKYiIb9fLx7IAIACNFM9uH/INv16Ybzu1WFzH2K0SFlnP/4XaqjnmH+NYLAJcJRzO5th5j+7DLSU7azvWhgI+SwCAJSCqwT1rBq9Z2kxIei2euoPLWTHVv2UOP2wozR637Ot2bn8ulmJ7PuvYPYQActJUfYtelD8hp0t/xMRM99jNXLZxIfEYSP7KCtpoBT2zfy9en67tf8JT30H3xzUhZv/ttGyrq+k1Oe5cVvjeHwy//E7gtd303YwP/8q0mcem8rAYvXMTHGj46GfE59/i67cxu68/O0HeFhkdB8jhob3etKZ+7nfPpBDG0dPfvGOm4NK1YvYtyocEz2RuoKDvL1p1spark8kOLu/RnPzc3nkz+1MOP+xcQHS9rLj7N785/IqXF6nZ+UgqCUFaxYu4SxsWFYnM3UFh5g92fbKGp2S3fFtExv0zEy4h7++sX7ie3+bh3ff3ldVzkGuRufZ9MJgfSbzxM/eYaYoy/zq815l/tUjGfNP/5Ppha9zi82Znm1sfJkvHhav0v94sny9XS8eDqePV1u3pnA2BRfWk9kUXWNI08pNSJGrWLx+EnEBATiI+20t5eSd3YrGdXNl5dR3Df43szJ3ecCZGcWn+78tHuduiQo+Vm+NSnh6nKMXHZse598t/UoMHIRi1JnMsYahElv4kLVQfblHaf+Bt6dIGUq9/3rCyQefonXt5X2Ox9HxQ5OZR6ktUNgivLsN86zJyjqXMjYiaOhqPeyg+PM/HSGhtVm8Oo+BzketnVYBAEtbi1PPLsOa8lu9m4uwhY4jjnLn2KD1c5v3jxEe4/BNJG5d5wld+dGjgdMIP2u5Tz4VDO//ZXbYVbsGh58+E58Tm9h+/YKOrQQRqXfw8INT9P4r78g62J/amlhwsKZ5B37mM/tIYydv4ZFG57H9vK/k1HvXTuEJoCeK6+4WELekRLc96BE7D088dw6Ast2s39TIW0BY5l91zoe2eDgd69u73lYqY1n3uJCcr/+Eyf8kpm9fCn3b2in9uXNVHet5J7mp8Wu4pHn1hNasYeDnxTQ5pfIjKXrePTbJv74y0+787s8LQNhs59gZUov3dZ6nK821uIPxC/6NncEH2fHthO0AyBpPt+VzpbJsZxHeHT6IlI+yaOg6131Wso8JoW0knv0VD/3VvsYL57WD2/Had/jxaP6ebHcvGIKJ8gfmpvqrp0maBGrp8/GfGEPe/Nq6NSsxCQuZvas+2n+y9uccXSlqz/AtmPZCCA4fi2LInrP7mLVV2xt93P7JoqpactJNJppcftWC1rEurlLCWjK5HB2BXbf0aSl3Md6Pwcbj2YP+fkaW+EhvD7SMWppaYYJoWFA70HA108QbAIfXwjyIvthEQRGpS8k1pHFh2+8R55dAIcpsEfxg/VLmBp8iMOtbon9Wzn9p7fIaHWlK9ZG8bdrpzHOuo1M15qLFjuaSK2cPZ9/zskGV2/m5WWTE+nHRXt/a+lP3eE/8NUR12xxTq6TyH96hNS0cDJ2N3rfDg/4BTsozXif05//hTKna9qo0EjgRw/MYHzQdg67n/v3u8iZ99/gYLOr3PyOSF54eDqpUZuprvEuv5jZCxilZ7Hp9xu7Xj6fSW5TCD96eh5T4j6lutKV7tK0DEDc2IehlyAg7FUUnahyfZj2DFiqyM86TGP3ity1oRM6+RlHaJk5nxlp/hSc7EBKjXGzZmJtOsrJfJ1+TTH0MV48rR94u3z7Hi+e1A+8HAeesvhgFqDrzmsm0awxhIlqDuftJdfm6ofC2nzO+fticztQEfYqzle7+jA6dCVcIwjothKKuk62SOlH0rSVjDZVkZn5FdVuG/bohBlE6rl8cWQ7hboAcijRI/j21DlM8M3mZL/X4aHkRNfB7ON7zRQ1RXZ+eEHDz2FQ5/R8rA+LIBAUEgL1VdRrAVi6dhScNdW0iZmERgHuK5etipoWutfN5po6HCQSaIWu3TeMivNUGzOY+9iT6EfOUFleQsWFemrKBf2fq2ylrubi5d+3nKesspFESwjQ6H07PGA79yXbz4EUZix+FgSgt7fgYDT+VsB95e+oorrpcvVs1dW0kYw1FKjxLr+w8AhoPEp15+X8nNl/5P++KJCGd23whlG4m5yapaTPTcfvxB5spqlMnRJEfeZByvt7styD8eIp75Zv3+PF0/p5NQ4GkNFSSZ1MJW36GvTy81Q3V1LT0ky980bWI9d0T8jo9awc7cv5E++Q2dJz6ivIzwq2ehqFLz5dWzhnWy1tTCbUCjR4U5aG2dcXkwZgQQOEyYLFz9/1d0cHDv3WOIsthKDNJmnzsm+HRRDQhIZIuJfvvHRvj++lbO1aeD2+xbjiswR6bCNqd7L5bT/uWjaXO7+xFD+TwNleRu6Xb7Nl/3mc/TqcNHAvWIhC/vLLH99AO/omwmez8uEHmTE2Ej/z5QykrOqlekbPCSbDQCJ6DCdP89M0jUv92v1bITF0yWCe8BOikqNHzzN/9XymB+/haNI8JgZUcehI8Q2U68F48ZB3y7fv8eJp/bwaB54yXOVctxvaD/HFMQsLxk1hblo6vppA76yiIH8Lu4or+7kegSlkCWumpGA7/y47K5quOpkvhIYIWcyTqxb3+F7K9n6c95/Gun/+LmkWtx8u+TEvLnH9t/XQy/zn5jzvG9EPApCDcOPYsAgChjSQ1XvZ9PGRKy7N02kp9z4/IXQaT3/CptOfIDV/QuNTmLTsce66fwN15/6FfV1X30hDgui5oUSAhuzXHq+n7ZCGBLQe5cqAJCanxdJ25hBlrQIpg5n78LdJj8pjz/t/pqLV4dpYjFnN46vDry5c65mf6/PlDbk3+RmGAUIbkjsRmzIPUrzqCdLSR9M6aho+pds4Uc0tcbHJQI9TT3g9DjzlsGE3IMwvEHrMyF8mhEFLzddsr/kaKfwIDkogOWU1iyavo6H2txztx7k1aR7H8tmLCG7ayQd553H0slWX0kC2HmX76TP0vE5Cp7XZ2xLz2feHX5ClASRwx4ZHiM57l88yXYfHelOJ943oFyu+/mDv8PLw0wPDIgi0NjfDGIP2wlxKu3aBpHU040b79Wtj7J8wnZSINopPFNBm2Gguz+HQl4eZMW0FoZFAVxBoaKgHaxzRVijtWjaRcfGYjToa6q+Z/Q23o6GxDkJjifaHqq5R7jtxLeu+EcOh/3OIslaAeGLifWjJ2s6+rPzu3/pFrup94+wXR0woFHatJP4xMVhpoa3pUgLP82tsbIDUeGJ8ob5r/tU09Vl+9HQyx371D/ylvH9bZI+CS9shss48xPq0J5gb7UPptgO03KQTgX3Vb6DHqWe8HAeArjtAM10/bhpl1NbCuIQULLISey997Bc0gcRAG+VVpVykg9aWAk7k5zAlbh6hgYCXQUDKMNJmrWci2Ww9nkHzNQ7HWjvaIMKgvaGo+8olaYlhTIgv3u5IC9FOXVEedYCUMFVCeFMxxQX9vzqoX4KTiQuB2upr7y1IIZiaIAiXkrwKg1oPD1eHRRCoyDzAhQX3cN+GdjJOVtBhiSB5wRqmWzN55+fn3GdQPSJjF3HPo+OpTv6cYwV12E0hjJq7iEhHMUfclkFL1kHOr/gmS555CnNGPraQqdyxdDQtJ7Zw1onXe5+etqPh+CFKlj3Giueewj8jn3a/JGYunw7Fm8iuuVRuORVlncyc9Sj3NO/mfIOTgOgpTJoSixPH1YVf9GfSY88isnJo8Uth9vKpiOovyOu+58Dz/KqPHqRy0QOs/qsnCT5cQJvvaGYsS8dctY2cisvpAkdPIyHYtSkKC/cBcxgJU2fiA+CooeRsBR1uG5eaC5XItFksvLOawjYDuEhNXja1HW5XRAk7uYePsfq5hSTquWw53nzVgpBBSUxMDEUwmiANfMJSmDglCJz1lOWVcrGfQaOv+g30OPWMl+MAaCot5aJpJnPvuRNK2lxHg7ZKCguru6dwhKgi51QFC+9aQnr0AfbXXr11NYJmsnxGInXF+8iub8ShWYkZPZNwvZKTbnvkAcHjifV3jYPgAB/QQoiNTXWNA72B8toa7EIQmnw/iyOh9Gw+Wngqyd05dFJfd57mrksia8pPUJd0JytmdZBVUU2nOYwxSYtItZzio90l1zhuuXnMUVMJDfEBQItyvcXRmjIL3QmytYj66p6HK1JqxC9eTIIsYEfW1eO5W6jGc9NNhDQ6+VHZtZNdVZ9+tuOWYlRt470/wpo1i7nrsWBEZwv1RfvY9O7HlPTjumDbkbd4P/hxls+7h7V3BGI2LtJWW8jBd//EcbeTcKJlH5v/4Mvd9y1jwfoFmDvqqDjy33y0NavXPaMBa0f912x+w8SKtUuYv34BFnsT1fkf8afPvuq+KkWINo5/+F+EPfgg05Y/zjTNRkPRPnbucfDgE+N6Kf0cGXsvMuv+JxkVbNBWvp9PN31++fJQL/IzLmznz28YrFy9mPnrF2JxNlNXuJX3t1zODyBp2Xd4aJr7EAxj6TOuW1Vl09eu+y/c/lq3ZyNfxW9gwdpnmGHRkLKKfS9ns/uK23z1c1kUdixkYkEGp9u5emVIWc3D7o+NSHuYR9Pc7lO4/mK6pr7qN9Dj1BPejwPQz37ER1+GsHrhYzy0zIJJCGTlZ/z65c96BKqa3R9yYs7fcufT36Tm9xs519zzBG1nxRY+91vN/DGLWJYYgEnaaL9YzrGsbZxxu2hgVMojrI53HwfB3DHHtYmXHZls+mobF4CggDBMIoCk1IdJckstZR1H9/6ajK4T3Ebrfj47Klg8cSYLZljRnG00Nh7ji+O7qDT6389C5PH5T5/v9+8vCZj8MJPSQnp8F7/iaeIBI/8tDuzI6v5eShORc5/hG4ujqdvzJsfctj9Xio7QCAOyS3W3q9P6pp4dpHTdLHaOjT95s9/PzbmViKRH+f7/WEDZWz/i45xrX8Ko3DgtZjEPfftxJlobKN67kQ+2n+7XDpByNRk0g1XffIyZY600H3mb9z48TMs1b8yTLJ3nyzPhBq/tdHDEi52KYXEkoAyE4bHiSilInjuHkIsn2JrrYLi061ZlVO/lg5fzmbJkDXOiorAAt+Vl+Lciv0hCnLns/+MXHD5T3cfVVBrjQ6G5QueYl1PRKggow4t5OtPTQmg9cZCifpyXUbwn7FWc2flHzsCIffbSYBC1X/Hh7y596KNfgzXGWyQZpYbXd8ar6SBFUZQRTL1URlEUZQRTQUBRFGUEU0FAURRlBFNBQFEUZQRTQUBRFGUEU0FAURRlBFNBQFEUZQRTQUBRFGUEU0FAURRlBFOPjVCGnGb2x9w9EnX0zk70/r4OcpjQzH6YzZf6QKLbbeg38ARMRbkWFQSUISWlP7Of/RVrxne9/EM2cPi1v+fL4hvNV8OkSYxBeHWVP6IAABBnSURBVB3fzZD80L/zxNxAwPWmrNyNz7PpxBBXShmWRkwQiJ74PR4dF9H9WTqz2bZ982396OTw2GWk+hZzvLiox8tXLomd9P/wcHIYANKw09lZS1nZXvYXnKXtBva0+yq3P2TZV/x560kcOGi+0Hf66+Ylw5m14HkWhjRz9ODrZLTcfsu4fNfrvH1Mg6B07n1i4VBXRxnGRkwQaKzYytYmCwCBcatYEjPEFRoAEXELmGU1yCkuuuJdqpdJewEZp47SgC/WsDRmjXuUBy0beS+nsN8v+vakXK911FKSn9v1LPob3WjrOA0dQ3fivD0PBOioPUdxLciIFPVoZmVQjZgg4Gg7T1HXg1HDg5cPbWVuJtnChQt5lAuBvJDNBfldHhl7B+POFpI3TN+3IkQz2Yf/g2zXpyGujaLc2oZFEJBSEBi5iEWpMxljDcKkN3Gh6iD78o5T34/X9nmSnzTPYf3dd9J69hQRY+cS0LyLrYWBLJ01j5COHHZlbqHILjzOD1zTN98YdZ6vsp1MmTKNaB8nrU05HDy1kyKb603kMuBOnli6jMjuvfilPH3v0q5ydAqy/o3tVb23WQhJdWM5zpTRhPkDrZf/FhC+iIUTZzAmOASz3kJD/UkO5e6jrEP2q9y+8vNueWhEjFrF4vGTiAkIxEfaaW8vJe/sVjKqm5FddZJx3+B7MyejXfrcmcWnOz+l7IojnqDkZ/nWpISryzFy2bHtffKFd8vtcj1Tue9fXyDx8Eu8vu3aLyL3NN1A6XmS2V3/TsJLKbBOWMOq1XeSEh+KZq+j8tROdmzZQ4396ryC48z8dIaG1Wbw6j4HOYP0Kk2lf4ZFENCCFrFu7lICmjI5nF2B3Xc0aSn3sd7Pwcaj2di8nPbwPD9fYq2dHD2XzazJS1jlPM7RvCNMSl3IwrHHKDpb1Y/6jWFaUjH557Zy2mcM08fNY/Wsdjbu30ezENCZy4GsBnyB2KT1TPfLZW9eHjYAJC19va1cN9DR0NyKFNbF3J++BP/mIxzJLsNmGUXauKXcO8vJewcOeF2uR/l5I2gRq6fPxnxhD3vzaujUrMQkLmb2rPtp/svbnLn0vvT6A2w7lo0AguPXsiii9+wuVn3F1nY/t2+imJq2nESjucdLyAd6XA2VSU/85xXvcnaRspVj//VDthV4l58Wt5Ynnl2HtWQ3ezcXYQscx5zlT7HBauc3bx6i/Yp+8fUTBJvAxxeCbo8uG1GGRRCITphBpJ7LF0e2U6gLIIcSPYJvT53DBN9sTno5qep5fhq1Fw6QdyGUkMTZxDccJLfMjil+IYv9w4Aq7+tnuci5rC2csLvSlYsYvpU6jjGWfZxygNDrKK2qc6WNfYDp5jqKK3No6V7xvF/LfP0cVJZu52xeJhcMAZymVMby3JQJJPke4KTdu3I9yc8bmjWGMFHN4by95Npc5RTW5nPO3xeb27vNhb2K89VdfR66Eq4RBHRbCUWu6IWUfiRNW8loUxWZmV9R7bYBG+hxNVTO7/glbx/s/Uigpdz7/EalLyTWkcWHb7xHnl0AhymwR/GD9UuYGnyIw60909cU2fnhBQ0/h0GdU0WBW82wCAJBflaw1dMofPHpapGzrZY2JhNqBRoGKz8DiQEYGNI1LQISQ4Jw25h4VT97LfWddG9TW9sa0YkjwAI4GBQddYfYUwdSmvHxMSEA3d6Gkzj8+/HS2IHOz2ippE6mkjZ9DXr5eaqbK6lpaabeeWMnkaUUhIxez8rRvpw/8Q6ZLXqPv3uy3KTUMPv6YtIALGiAMFmw+Pm7ynB04NClx+kGw8XqsxRXX+uv3vdfUEgI1FdRrwVg6TqgctZU0yZmEhpFj2lGcK0LbTZJmzo/c0saFkFACA0RspgnVy3u8b2U7f165elQ59djUyAkEjGo5zeFfyp3pq0gNTwMX9Plm8ilrLsl8qP9EF8cs7Bg3BTmpqXjqwn0zioK8rewq7iy31c5mUKWsGZKCrbz77Kzoumq97h6ttymse6fv0uaxe23S37Mi0tc/2099DL/uTnPi3QDb6DPCWhCQyTcy3deurfH91K2YlLPILjtDIsgIKWBbD3K9tNnrrhkUae1efjld0NMJkxdRy6uullJm7aeaYHFZJzcQbXd6QpCoQu5b2KI19kPdH4AQhi01HzN9pqvkcKP4KAEklNWs2jyOhpqf8vRi97nKc3jWD57EcFNO/kg7zyOXgKJZ8stn31/+AVZGkACd2x4hOi8d/kss8aVsqnEy3QDb6DPCRjSQFbvZdPHR7rOCV3Sv+klZWgNiyDQ2tEGEQbtDUVUde3VSEsMY0J86e2GUd1wgtCuuXPtbX4DXT9PGdK4bjuuJKUgOnwUZqOBxu61N4roIB9aKw9wtOrylSqWgAXXfLDU9cv1Pr+++AVNIDHQRnlVKRfpoLWlgBP5OUyJm0doIOBlEJAyjLRZ65lINluPZ9B8jT1hT5abEO3UFeVRB0gJUyWENxVTXNDzqh9P0w2GgT4n0NrcDGMM2gtzKb3UL9bRjBvthzSuTi+FYGqCIFxK8ioMakf4I0FuNcMiCNSUn6Au6U5WzOogq6KaTnMYY5IWkWo5xUe7S3pc8QHQ2lxFhzaJtNQZyKaufTxHLaX19TiF8Dq/ga6fp+paayEulblJtZTYJdBBfW0BDe4n30QwsbGpWC7dLDY2nJbS7RQ46JpiquZCi51Jo1axvCOT0os6fkHjGBcTgRO9H+V6n19fjKCZLJ+RSF3xPrLrG3FoVmJGzyRcr+Sk25FUQPB4Yv1doSY4wAe0EGJjU/EB0Bsor63BLgShyfezOBJKz+ajhaeS3J1DJ/V152nuuoRxsJbbzTbQ5wQqMg9wYcE93LehnYyTFXRYIkhesIbp1kze+fk5rrpALVTjuekmQhqd/KisX0Uqg2hYBAGjdT+fHRUsnjiTBTOsaM42GhuP8cXxXVT28tAtvXYXO/KDWDxmDWtSLGhCIFt28/be3bT0I7+Brp+nmoq3si94HXNSH2CS2YSUdRzd+2sy2i6nEZZxzJ8zrvuxEeWFH7C/oKB7Hl2Ii+Sc2kTw1OWkpqwlVXTS1JjFvsLzrJ6Z6HW5/cmvL50VW/jcbzXzxyxiWWIAJmmj/WI5x7K2ccbtJPqolEdYHe8+pIO5Y45rEy87Mtn01TYuAEEBYZhEAEmpD5PklvrK/vN2uQmRx+c/fb7P9nia7lZlVG3jvT/CmjWLueuxYERnC/VF+9j07seU9HIPQHSERhiQXarTeJtcVjuSiClTplw1IWG1Wmlra+stvaIMKCn9Sf+bX7Fa+5D//O/92NVTRAG3k7lhd/PMC2up3/g8m07cfn0ipWTpPF+eCTd4baeDI+pGsVvOsDgSUG5/IuURXnjpkQF7iujt7sqniNYPcX36T2N8KDRX6BxzoqaCbkEqCChDrIPcLb+gNuDS5xt/iuhw0P0UUQAk7VVDWp3+C9YYb5FklBoYairolqSmgxRFUUYwdWuHoijKCKaCgKIoygimgoCiKMoIpoKAoijKCKaCgKIoygimgoCiKMoIpoKAoijKCKaCgKIoygimgoCiKMoIpoKAoijKCKaCgKIoygimgsB1jI4z8UiSIPBGXv91Cxgu7VAUZeCpIHAdo+JNrE3UCBzqityg4dIORVEGngoCiqIoI9iweJS0jDTz+h2Cg8cNrCkas6wCm02y/7STj2ouP8dcSklolJknUzWmBgnMuqSwUue9XJ2yrjceyQCNl5abSezl2edSSo4e6+TXVa6/TZ7qw9/HSn6200H+pTJizPx+rmDHbjub24RX9Rs/2Yd/TJC8cQqWTNFItEgaGg02nTQ4avNuKsebdnhaP4/b60E/uwuOM/PTGRpWm8Gr+xzkqLdPKcpNM6xeKjNjrOBYmc6bumByksa9c0y07jHYcdH1dy3IxAvpJkIbdT7JltgsgmXjzPzYD/7hiE6LENApef+YEyuQnGzmbj+DjWcMWrvKqLvqLdoDVz8XwV1JBpnnnOzxEawYb+I7c+Af9jqp9ualHP1oh2f165tH/ezG108QbAIfXwhS239FuamGURAQVJY6+XOZa4/5YDXErTSRHquxo8j1XUqiiTG6wWuZzu53nZ5wCn45TWO+r84OOwhdklPVtdcdD5gkJyt1aro3XP3dSvVdPwAskozjTrbbXeWcQfDyZI1pFtjp8KI0r9vhYf084Ek/u6spsvPDCxp+DoM6p4oCinIzDaNzApILLcblj50G51rpEeYifAXYJFVCw98s8DcLnG2SZgTR1qGvHwB2SVnn5Y91bWAHgn1vkfp5wNt+FkLQZpMqACjKEBhGRwLgfgWkEJIP9vbc5RQaiBAzP1tz5e8k2k3Y/vRVv66/IHt+vGk8q1/fhrqfFUXx3LAKAn2RBshWJ7/Jvjw37iKob/Y+P0MKwLhiOy0RCIzef3Jb87S9A93PiqIMnhEVBOo7JZihscHgnOy6ksUimBYi6e0+KsMAxLXnzKptBlgEoy1wrmu+Pj5Yw8eA2vZBaUK/9NUOT3naXm/7WQrB1ARBuJTkVRjUSnW4oCg3y4gKAoWlOqVJZp6dDTsqJBfNgqlJJhb66vzvXQY1V6QvbTWQ8Rr3jTWR3QkgKa81KO+au26oNDgzwcz6dDPmEonNT2NViqCp0smxrg3vraCvdnjK0/Z628+Eajw33URIo5MflXHL9JuijAQjKggYrTovZwq+OUnj4ZkCk1NS1aDz+jGDPOPqLU/VeZ0/h5i5Z5KZRWaBlAZbdtsp77qFQnQYvH5Y54nJGvekCSwOSVGZk9/k6di8uZxzkPXVDk952l5v+zk6QiMMyC7VabyF+k1RRoJhcbOYcvuSUrJ0ni/PhBu8ttPRfUmpoig3xzC6RFS5PWmMD4XmCp1jzqGui6KMPCoIKEMrWGO8RZJRevnxFIqi3DxqOkhRFGUEU0cCiqIoI5gKAoqiKCOYCgKKoigjWK9BQJ0PUBRFGRnUkYCiKMoIpoKAoijKCKaCgKIoygimgoCiKMoIpoKAoijKCOZREBCaBbPJu/fMKoqiKLc+jx4lHbnyH/mb5ZFcrM3j+JZ3+fps42DXS1EURbkJTNHR0f/cVyJ7YzGlhSXY4xew8M7RNBw8TI16KbiiKMptz6PpIGdDMUVnDrBz10k6LXHERA52tRRFUZSbwasTw5pfAD500mkbrOooiqIoN5NXQSAwJAiNFlqbB6s6iqIoys3kVRDw9fUD3UanY7CqoyiKotxMXgWBprIS2k1jGD9jFNYAfyx+/urSUUVRlNtYr28WuxYpLSSt/jseuSsJf811dVDxZz/i7b0tg1ZBRVEUZfB4dJ/AJVrivdyzPIrqPW+RkV+P3YCOmvbBqpuiKIoyyLwKAmETJxMhz7Lr8/2cUy8FVxRFue15dU7AqTtB88HiVehQFEVRblVeBYG21lakCMEaPFjVURRFUW4mr4KA3tqGHX/8AwerOoqiKMrN5NHEjtAs+AZGkjJ9HBZD3SymKIoyXHj8FNHvrIxH2uvI3/Y+x1oAdV5YURTltufRfQLm8CTirXYaa6pp7dBvRr0URVGUm8CjIwFnQzGlDYNdFUVRFOVmU6+XVBRFGcFUEFAURRnB/n/WVMSDdN+4OQAAAABJRU5ErkJggg==;" parent="1QiOH6tT_yfQtaS86Rcd-22" vertex="1">
          <mxGeometry width="385" height="133" as="geometry" />
        </mxCell>
        <mxCell id="1QiOH6tT_yfQtaS86Rcd-15" value="" style="whiteSpace=wrap;html=1;fillColor=none;strokeColor=#FF0000;strokeWidth=4;" parent="1QiOH6tT_yfQtaS86Rcd-22" vertex="1">
          <mxGeometry x="41.001083984374986" y="27.00104736328126" width="340" height="29" as="geometry" />
        </mxCell>
        <mxCell id="1QiOH6tT_yfQtaS86Rcd-36" value="&lt;b&gt;&lt;font style=&quot;font-size: 22px;&quot;&gt;2-10&lt;/font&gt;&lt;/b&gt;" style="text;strokeColor=none;align=center;fillColor=none;html=1;verticalAlign=middle;whiteSpace=wrap;rounded=0;fontColor=#FF0000;" parent="1QiOH6tT_yfQtaS86Rcd-22" vertex="1">
          <mxGeometry x="299" y="53" width="53" height="41" as="geometry" />
        </mxCell>
        <mxCell id="1QiOH6tT_yfQtaS86Rcd-23" value="" style="group" parent="1" vertex="1" connectable="0">
          <mxGeometry x="201.99674804687504" y="635.996748046875" width="733.9999999999999" height="90" as="geometry" />
        </mxCell>
        <mxCell id="1QiOH6tT_yfQtaS86Rcd-4" value="" style="shape=image;verticalLabelPosition=bottom;labelBackgroundColor=default;verticalAlign=top;aspect=fixed;imageAspect=0;image=data:image/png,iVBORw0KGgoAAAANSUhEUgAAAt4AAABaCAYAAACPKlG4AAAgAElEQVR4nO3dd3gU173w8e/srnrvXQiEaEJIFGE6mGJTDO7GvefeOOXGjlN8kze+Tpzc8uY6N7HjJK9j+7phGxtXMBYGm94kQAIk1FCvq97LljnvH6uyQgLNCkkEfD7P4+exltnT5sw5v505M6PEx8cLJEmSJEmSJEkaU7orXQBJkiRJkiRJ+jaQgbckSZIkSZIkjQMZeEuSJEmSJEnSOJCBtyRJkiRJkiSNAxl4S5IkSZIkSdI4kIG3JEmSJEmSJI0DGXhLkiRJkiRJ0jiQgbckSdJVQjgFEB0bjpOQr1+QxpZwjyZmgh/6MexrQijonJzQyf4sfYsYrnQBhBA46cAilCtdlKuSbD/JEUIoOBtUzFbZX64mQrgStvAuNq5bTGjtR/zhpQrMQ253bYwHQugx6FWsqgzI7I1ru3glsfYH63EvOUDK1g84V2sZtaSFEsSMjfezau5kfN1L2f3r/+R426glL0n/0JQr+eZKIRTWLzGw2Qe2HzLxUcv4TBZRYXoWuqh8UaTSrly9E9RI2k+EGXhjrsIn35j4vOPqrft48Y8N5ye3R7Eg0gUPk4n8nAr+tLWUtNarr+2EcOOxZ5L58YQuXvm/x3mxeOg6TJkfw01ejby2p4nmyzg+xPx4zjwejP7CNNor+O6Pcjg0wrRHq3xXQsIdC3jvRvf+D7qrePL759hziXoI4UTEmh/zwJpAKva+T8q+U9R1DR62R3s8vVLjpBDBLPrhr1gd2cChl59lb9nI83aPWcXqDSuYFOaPi7kJY/5+vvl8N6VtV19Ar7VdgpJuZpZnLkcOZtN5Ocev0OEeMZ9lt28mOaCUlL++yAmjdcTp2fNe8hN+sCmYwq8+4URpJcaCYlrlyQDpW+IKLzWxnXmzWME0jrlGhOtZH63DYxzzHBtXpv2+LURgGH94cipLlQbeej+bf0+pwzo9lpefiCJaufombhCYTComs0q3evGtJs+J4dHFfvhebnY5JTz1l7M8+XIhqd2C+ox8nnz5DE++Ws65y0h21Mp3BRQdzra1wctn+I+0Tk3f0cfcwi03RFKd8j+8++WJIYNum9EdD67cOKliMVmwmM2YL+MwE/7Xc8d3NhOn5HDs0zfZufcsatzt3PPQavyuyuNXW7sEz1rLovlxuF5mboqi0ll5jJS//YmjLVNZc9cN+I/SkpCAkFD0zekc2H2E83klMuiWvlWu6FITRVHYc8zEHttfV7IoVyXZfmMr5rpw5unq+NWLeXzSqQC1fN3uwt5HwtkYUsbL1Ve6hI5RlC7e+Z9DvGP7a+zza2njm4w2hFBZo0JEXTN7Mlp6CzPm+f8jaqtqZk+V7f+nTJg07PZC6Jm+fBkBDYf4ZF8F6iXa7VoZDxSljrRXniLN9teI0/Gfs4gJukw+e/UdznQpQCq57QE8dfcSEgK/4kDtKBV4nIxWuzicr7mYfTuPkvjY9cyPTSGl8PKD7+7ubnB2vuwfB5J0NdIUeE+a5sSz0Sp/T4clCTpinRWaWqx8esbCkbb+AUAEGvjLAoUjp1Q8Y3XM8VTo7BQcyrLwcY3aN2nYljvo0PX+3W3hv3dZyLSbVIRBx89vMOCRa+bfCvoPdCEUHlztxKIGCz84ZcXa8x2fAD33TNOR4K1gsAqq6lU+zLKQ1dWTh7uO3640EN2Xh4HfbzL0pCk4cbKbP1cpfX/7Bhm4b5qOmV629AoqrbybbaXMwV/mjtRDCIF/kIF7p+mY5qXgbBaU1qpsPWfhvNmubTS0X289oqMNPBSnI9oF6utV3qyCkQ6bQgiCZ8Tw81vDWRThglN3J2dPlfBfH1SRa+rPe/bmhbx9XQP/512VO+4IY5qHlapCIy++XcDuuoFtMGXxZP51bTDxwc64qRbqqpv4/LNc/pTRjeipz8L7F/H3hFoe+Fke6b11TprOie958/Zzx3ixsuezGVM58qQ/218vwm/1JK4PM9BW18hnH+by0tnu/v6nsR7RAW7Q1EheB33zXOuZEn7xphu1HQPbJmhqND+5JYzF0W44d3dRmFvFSx8Uc7ixP72EOxbw3pJGfvGqmVvuCSfBG+pKa/jLO/lsrxIOpyeEIHhKND+5LZz5ES54mE0U5Fbx8oelHGq0a+cLl3wMsdRDBEfz8W9jmdr32SS+eLUnMBQqu1/dy1OpCsIthL/9fgZTj55i9TtN/W2qePPsf87lxryzrHi1FosDgbWW/qK1fH3tomH/au0vWvuz1v3mmClMjHWhNSOdqous29Y6HsTNcOKXkYLXzsDyeB3RzoKGRpVtp1VOdPa0swPjpBbCdQUPPr+BppSjhCy7Ho/ST9i6z5v1D67CrymNL159k5zW3mP6u/yf++b09VPRfpgtz/4vhRfUI2rTf/Dw3Gw++8jCnJsWEOphpqUkjW+2fUhOQ/9SCH+/QGjOo6aTvuO3O3sHn30QQlvXwHJ6Tl7H6rVLmBzhj97USN35I+z97AsKW/r3b9hNv+Px5Hw+fa+FpJuXEe4taC8/xb6P3iOzxuJwekIoeMWuZvX65UwM9cPZ0kxtwWH2fb6Twma77TS0iwjYwD8/czOhfZ9t4ocvbOrJRyV7yz+xLUNBuC7k3mcfIeTEC/zpo5y+MVYocaz75U+ZWfgX/rAlfdAPPEtuBoXdi5k4NQoKSy+6v7Vqa28DN2889MAlrr5J0rVIHxwc/NxwG/kF6lnuqxDoDhnFKscbBWGhelaFKmSUqDT3jmruOjZEKgS4QlG5yn6jQPgorIlR6KhUKegNHk2C0gZBaoVKoaIw011wpEClxv5gt6o4+xtY4Q9Hiu3WGPrqeShWx7kcM2k9a5QVLz2/XKQnskuwI9dCajNER+i5MUghtbTnuyrUtgjOVKo0uOqIFSpbTls5XKlyokrlTKOgwWJLT+el518XGYjsUNmer3KyGSZPMHCjLxyqUOl25GydA/XQexl4ZpGeiA6VHfkqp1ogNlrPjQEKR8vU/vV6WtoPcAow8MtkPd7NKp/kqeRZFJZH6QhwhbwiK7lmx4IBXcQE3vzpJCbXVfP3L8r5ukyQuCyWB2M6+Cy1ra98YTOjuC3KhRDfLr7eW86uIpXp8yPZPM3KrgNNNPWWM3wCrz0ZjW9+CS/tKOfz0800hYTw+A0+1B6o5lxPkBQ1K4pNIR18srue6t7vhgbxT8kunNlXzvHe9dZBgTy2wIMIHz2Zx8rYdroNERXKfSt9aUur4nRPO2utx6TZ0awPaOXDrxup7flMMZsoLOuguru/7ZTICbz1s0nENdbw2o4ydpWoTF8QwwPTrXx1sLmvviEzIrljghthAWb27y/nywIzE2dHcvcs2L+/kbqe40hrevrwCbz6s8lMbzbyxs5yUoosTEqO4dHZsP9Af3q0dpJ3voFdaUYy9T4sCuxkR0odpfb9xWymsrKZA6dqqPYJJFE18l9bivn8VA27T9VwKL+d6i4FzB10R0Rwe5KBrD21FPcEg/pp0fx6pSt7t+XxTd2FPceNNetDCS2r4p2s7kH9SlN/0Vo+B/av1v6itT9r3W+9AqZFsDnWRMrO2kHBZR/9VOatS8Ka+TkZxRdZmqJxPAgI0rPMW8HfTXCiWCWtESaE61kVBMdLHB8nNTHEkLhyFoFt2RxNayJs0Qri3Uo5fqQYr1krmWbIJC2/ybZtex3GorNkZaRRqY8j1r+Ws3szaLygHj5TV5MUHoC3TyO5h/eSVWomNGkF8yabyTqW37d/AxLWkeBXyqlD52jrO36bqausoMXuB5gSuoGHv3czwc2pHPnqG7LKugmdu44FcSbOHT/fl57XlFXMiQrAx6+T/GPfkFnSQWDCMpKnG8g7eo723uNXY3q60LXc/73bCWs5wdGv95JV2kFQ0noWzVTIP57Tl56mdrG20VRdQP6ZUzR7JxGpnmTXRzs5feYU2WdPUVBUQUu3AuYqTKHXMyfelYoDp2joOX51k9ezcbE/uTveIa9hiP0o9ETMW8FE01kOZxq17/+LEGHzWDLDmaIDR6h0pD9J0jVA+1ITJzh+2szOTttBcsqi8FKijjkeUDLgbmSFylIL75fZfrEfMULYGj3zQ3Xs6rlEpZgE6Ubb/0/y00PA4OwURSG1UvBAko4FnvB5u+3zyeE6AsxW3rG7TOjuIsgvsXA020q+qgBWzqgKf05QSHKBXSZQrILM3rOK4YBecLrSajc59R/8sdF6JlhVXk61kNZzhjvDovDHWToWuljZ5cACSkfqER2pY4I6MN90q44XE3TMd4Mve87SaGk/gEmhOoIsKi+n9adXqNPxvI/28ttLXBrONHMtP34xn69MClDD/m43vr43gg0+Rt5qsdvY3cSXr+fyRrNtu+OKB7tvD2CpVwnFPf1FF+XJRKWNv2wr4eM6W/l2n61nZ5ATjYPjM40MnD+Yze8P28587TijMvH3cdww24U3vzI5Xg8NvL1V0g/k8cW2CtLNtiUph1QPDtwdyDKfUort03OzsOvNbF5rsOW7t8uVfQ8GsSq0kOwqx9KbtjCMBIuRn/xPHikm23Ypjc4cfCKUdVFF5PScmOpd8gGQMHnykHVQTB0cSu05jT9nBrh0cOC4kZILjg9FEXxzoJqa+eHcMtfAvlQrQigsvS6YwMYaPslWGdFl8GH6i9bygaP7d/j+oqV84GA/0MrZCYMCVuvFnyihdTywpSc4dsrS01/gHAovzNAxyxl2mx0bJ7XTYzybwpnTgfgtWMKEwq/ISO1El7iWtf5BQLEt5dZi8rJs3wibeCfEXiJJt1ay3nuTY60KcJxiXQQ/Wj+LyZ47SW13rHSu3mZKj20la8fXlFlsS1IK1EieviWJOK+UgU/bcO3g3NbXONJsyze/K5Af35nItKCPMNY4ll7I3EVEWNPZ9vctZJts22U3+fD0Q9cRH/YZxko0t4tiqqIwo2cAmfUIOFeRn37cLjjvPX6t5B9Lo2X2QpIS3Dh/ugshdEyeMxvPphOczrcy9D62YLWCwcnFscbtIYSC3tkVgx70LkHMmBKOaDhJ5YjHeUm6emkPvM2CMrtL7u0tgmYUfF2BAYG3oLrFbvLtVslr1TN1BKvJ26utZFkNJIfr+DxfIITC/DCFdqPgjF0W7XUqb9WBEODmpKAAVhOYUPB0xuE7jQJcFOhUqVJ0uPWU29ImaEZHsCcw1BmBUahHsJst3zJL/2etrSot6AhyB7ouksFF+PWkV2qXXnmrihjhPbWhPi5QZ6RIb8DTzfaZqbqDOiWYqFDAPrDo6CC/qT/fSmMXXXjh501ff1GLW8lTg7jn0TgshxvJKm3lTHk3uaUmRjbBA5gorbKrcHMzp8q7mefa3xEcqocGzefK+O05EIoODzcdOsDcZqILb3w9L0ivs438erviVXZSjy9BfkCVY+lFBbpAg5Gc7v70TKeyWfyEDjGGl2+tuZXsqI7ivoXBeB+vpNkQwPokZ4oPVZEx0sfYaegvWjm2f4fvL1rL51A/uFJMgjK7/lLXZqultwsM+XzCUaGiWlVAIFRQrbYfOULYTkyMSGcVNS3077aaOsxE4+EJOBh4d+Z9RUoeCMWAs6uzbf5ob8FMFG6eDOx/XVUY7fpBp9FIG5Pw9AVqHEvPzz8AGk9gtNsflrOv89/PKGN6/KoF+8isWcH85Pm4ZuynUz+TmfFe1KceoXzMHkMZxNIf/pbl4bb0rW35fP3qNiqv8sdeStJIaA+HhRi4NljYlmYNddjY3/isKIIPDozwHnuzIK0OHovQEZZnodJHz2x3QUam6FvbDaBz03Fvop7F/gruert1byMcvRQdKD4Gfrdu4OdCCHQjGSe01kNHX7v2ZwoCZUT3oil93++nXsZNOTqdAtET+eTFiQP/QZgwXBjLX1gPbPUYwFjG03/V8+N1wXzngSi89Aqmtha+3p7Ds1+3jvhRWKpdxorSyh+ePzLyemigCwzk5w9OZlOcG14GuzKLISIAIQa2iyoGHUda09PrdIP2r6IoWK2Ckf9wGZ6idPDhkRYeviWUW3wreX9yMCs82nnrSOvI89XSXzRydP8O11+0ls+hfqCVaht3R29vKgPH8as27rngOMLWTiOJ4xT/uay58zaSJgbiatdBhKgavLGqDmw/VbWNzyNIT9cz4A88fgXqmB+/lZw4UcTCtQtJ9N7PiZjrmOpexdG04kvmq2CbA0emgYwP/0CJi4LeJYi41Xey/JbV5L6UQsO39EZr6dtLe+CtDBxcUGzPIhzLhzIpiiCtQuWBOToWesGpcB3BJsHbdf2hihAKKxMNrPJU+STDSkF3z0Dmq+ep6SM7oIUKotXCX8+qtA4sEfXNY1MP6AkAlAue8ajYpsqRjHei7/v9dJcxjauqgMpyfvKekYHNIKgqcTw9RRGUnS7iqdNFCL2eqEgfVq2dwlObp1OQlcrfepYSWnvaRT/gywIdgpG8R0JrPWz5KgP2h/DwZN0cd2rPGDnZrCCEE/c8FM89wfX85c08zjZZbQHBpAn8+Ra3oSo9cP/qlAHHkSPpWVW17/vjrfRQJWk3T+OmxZ7UTQjCrbiYTyr5hwjkRrufauFwP9DK3IlJBT9XD/4xTplfPYQqAN2ALincY5iREErbuaOUtSoI4U3ynY8yPyiH/Vvfp6LVbNtvE9Zyz1r/wYnqBqZn+1vYHb/a01NVFRTdFTl+m1KPUHzjvSTMj6I1YhZOpTvJMHKJ49cTFzcwdY3sR6SiWGguy+k5HrMp855L8m0zmeSWQoODV3Il6Wqn/Zh3Uoiye++Dh7eCD9A0xgdNp1Ely6owO0zP3FCFtmqVrAue4R/tDY1VKp9XqmTVC87VC4rNFwRqdoYMcO3UdwswQGODyrme9LJaQa8bWQCstR41nQLcFCLtCu7ppeAN1IzgrV6NPelF2/28ivTSjTg2qm7uBldBXW4TR3OaOZrTzJFKCwYnECN4r4JPdAAbk70JFgLFaqW8pIE3Pq+mRHEjKrh/u5K6TvB2J86r/7PYSE9c1E7KasauHqX1neDrzhS7fu+ZMIHnH4hhQV8s5c7UCB3GjFL+dqyBwz3pZbZdpP+5eRJntwbXO9yNAEzUNjqeXnl9N/i7M81u2aXT7Gkce2UBP44e+U9iTQF9q5GPT1uZPieOe+J1nDpeReU4nbkarnyj3U+1cbAfACaLCrphAi+1jNpaCIiMxXmcX6s93Dj5j66hsQ58Qwm2+93jMnU9m+5Yx8S+59iFExLuREtmCgfTz1J4Pofi8zlUt19kQZ5rGCF2D5B3CwnBkxbamhxPr7GxAfzCCbE7fvUzH+Nnv/8dqyJHvq81BfRtR0k/101owr0kT3OiNP0wLZc6fr0nEeYDtcbyEZfLnrOzM2DBPGbLmyTpH5f2M94mmJ/ohK5CpcmgsGKyDqXNyskR/AD28dExuWfgC/IAdDpiQ/W4AFgF2bUqHb2DgMVKao2Bfw7XY/AUnMq0DnrUUVGzYFmknkc6Fc51Cjw9dcwLUy66ZLG0VUWE69g4Uc/ZbgBBea1Kec/d1QWlVkpjDDw2F3ZVCDoMCjNj9Cx2sfJf36iMINbTVI/ScpWSSXruv86Ab4lKt6ueFZN1mOqspNqtA9TafoXVKnWT9NyXbMCnVGByV1gQPvKrFKcPVpK7fCK/fsLC2yfaaHF2Y/GKCWz0quY7v2jG0ZOJIiKMXz3iS35cMVtzu+jQO5GwKJxJ5ibetUusOq2KYxum8/0fTMF5fxOtvgE8cIMXNanFfG23PHe061F8vIqTa6fy1L9MwftgEw1u3ty2NghxvoDtVb35tpNZYuW2BVP4dUM5xxpUfEMDWJPkQfdQz8lq13PDw9PRpdZT4+rDneuC0FUVs6fvmeDa08s+UkXWylieeWoKIQebqHf14uYbQ3GuKObLsv7tgmICSPS1NVJkoA70rsyaHWR7hq6pg+NZ7bTa9cW8inbUOUF8Z3U7h1oBLOSfrSe/s38bRVHZdcjIM/8SzmxrPc8dG7wuX3h7smqSKzo8CdKBa6APq5OcwdLJqbNtI77EPFz5RrufauNgPwDKilpoNARzz+1hiEKL7bjsaOdwbkffMitFqSLzTAWLVy1nfvBhDtUOPnodGk8dMNw4Odo8omYR6W0LF/38ncDgR+TM2TgBmGsoya2gy4F6NJw6Ssn1d7P68ftxO5ZPu2sMs1cmQvE2ztbQ013LqSjrZvaczWxo3kdRgwX34Himx4diGWoG6XBj+t2PoaRn0uIay9yVM1GMX5LTd5O89vSMJ45QueQW1n7nPryPn6fNJYqk6+djqNpJZsXI26WmuhKRMIfFS40UtKlABzU5Z6ntsj9+TWQfP8naxxcTbc1m+6lmLjaQCqEjfNkyIsV5dqVffDtHeHp6Qlct7SMYvyXpaufALY+CXYWCZTP1xLooNDVbefWMhdIRLKqbPtnAE+EDv3fbfNvAIjqt/G63Sn7P54qicKJS5eG5OsJMVrbUD0xLUQTfnLYQkGBgSZyexYrA2KDy3nl4Ys7QZasqsvK+j4EN0w0sMSgIobJ9n4ny3pv+Wq28kKrwwHQdd85W0FsEVQ1W/nJSJUcd2SgxXD0ArK0W/pgK907TcXOi3vYcb6OV/z5nGRCkaG0/c72Fl87Ag5N13JUIjY0q7xQJpieMcKlJRQnf/bPCL24N50cPu2Do7qbofAU/eaWI4yN481jzkRx+5BvHD5fG8KtlTjhbzdQZm3n9lXw+sBvflcZqfvqigZ/dEcmj94bh0tnF2SPn+NlHtX2PCRuTetRW8OOX9Pz01nAevicMN5OJ/OwCvr+1tO9RfIpiYetbmYTfN4lN66eyUWehJK+CF3ar/NejQ7xbUTTx9h4zt2+eRoKPoLa0gl+9XUyOcDw9a2UJP3hR8JNbInj4nnDczd0U5hXz5IclZNsdl8lrE/i/c+3Pf7nyve/3nHZvKLM9H93uXwt35/JC9HQevXUGm1x0INp55bl68i94mp05q44jneFcn1fNzjYGT6DTJvA/9s8PT4rjj0n0P0f8knvp4oYr32j3Uy0c7geAJauQn2934ZkVU/jvtXpbO5UVsuHXRQN+HNTs+5CMeT9i6UMPUPP3LeQ1Dzxt78h46ojhxsnRFnP9E9w+y35K8mPFIzMAEE17eeP5LZQN/dWh1e/lo9f0rF6/nIW3LsLZ1IQx/2Pe+3xP39M+FKWNUx/+P/xuu41ZK+9hlq6ThsKD7N5v5rZ7h3oCUB7HDnQw5+b7iPBWaSs/xGfbdmAUjqenVqfw/msqa9YuY+Gti3G2NFNX8AVbt/enN5J2qdu/hT3hD7Jo/SMkOesQooqDL5xl3wUv/LLmpVPQtZip54+R1c6QAbAQegKTH+GOZcHU7X+Dky1Db+codzd36OygY/hNJemao8THxw97ArT3BTpDvZRBkiRtEu5YwHuLG/nukwNfXnO1UmIn89XPw0j/6yF+ln41voL76qELWcbtj97DVM8Gig9s4YOULEzXQB+6mtheoJPHlmffuPhz168iSsxmfvj9RZS9+TSfZA5+XKXwSuLGB+5m9kRPmtPe4t0Pj9MySk8hCVzzLE+shmNvvMKRogY6O7sv+VZWSbqWXK3L9yTp6nSNzC1CKCxeHExYey3bz8hXz4011XiAD174DR/vK0AXEITzlS7Qt9a1cQALoTAxeR4+HRmcyb7IokzXQHws2Rx6/Te8unX0gm6A2oNbOVTiSfKjv+HHzz9Fstfw35Gka8UInq4tSdK3niGAm+e6UJNaxSG5TnNcKKYqzu1+nXPAiJ4vKkm9DIkkJvjQmnGEwoscv0rtHj58pfeP0e1vSlcu37z8rxwNCCPQV0fzRV7KKknXIk1LTSRJkiRJkiRJujxyqYkkSZIkSZIkjQMZeEuSJEmSJEnSOJCBtyRJkiRJkiSNgyEDb09Pz/EuhyRJkiRJkiRd0+QZb0mSJEmSJEkaBzLwliRJkiRJkqRxIANvSZIkSZIkSRoHMvCWJEmSJEmSpHEgA29JkiRJkiRJGgcy8JYk6bIJpwCiY8NxEvJFuNLVT/ZnSbq2CPdoYib4oR/mmNa63eXQBwcHP3fhh87OzphMpjHLVPr2EEKPQQ+j1YdHO71rxZVqFyFcCVt4L/c+9ghLwutJTS3ArCjjWwjpmiSEgt6gR4xjp5b9WRoLct4a2ri2i/9y7nnyCZZO9aG5KJvaDvXytrsMSnx8/KAqe3p60tbWNuqZSaPDY9nPeHpT3KDPhVDJ3vJPbMsY/Yki7Kbf8Z0Vwf15mVL54F9fIfcSk5IQwSz64a9YHdnAoZefZW/Z5ZVLa3pBSTczyzOXIwez6bxI+dxjVrF6wwomhfnjYm7CmL+fbz7fTWnb1Tcyjma7OJavExFrfswDawKp2Ps+KftOUdc1du2nzHyMnz10HS49ZRcVn/PnP3xO4xgHRmOZb8CsjST5FXBsXxbtl5mea+QSVqxdRVxUEO600VB4mD0f76Co9Wrs087E3fEcdy3wJP/dn/NheueQ241m+41Gfw6e+gM2Tw7oT9Nylp0pH1F4FQfv/qHXM82lmFPFhXQNUY/Q6f/CnZP8ABCqie7uWsrKDnDofC5tYuT1Hi7fq8VozoNy3hp52wmhwz1iPstu30xyQCkpf32RE0briLe7HIZRTU0aN0KUkPr2DooH9AdBS+nY5Fef9jZbi1wB8J59N2tnaPmWisVkwWI2Yx6VcUFbesGz1rIoUOXUwWyGmq6F//Xc8Z3NBFXt5/Cn+bS7T2L29bdzz0OCV/7yFY2XMVlcGaPTLo7Sx9zCLTdEUv3lf/DuNxWoYx0AV+7j0zdOAgEk3LaZuHojTWOa49jmK4QbkxZtZJF4j4P7si4rLX34eu57YiNuhV9zfHspXV7TWbB6I5vvbeelv3192UHp+HPF09sN0WGkpmHoq6+j2X4wOv25seILvmhyBsAj7EaWh1x2sa64gLBFzPFUySwupOsi2wjTeY6dOUEDLnj6JTBn8mZuc6RS8G0AAB50SURBVN7Cu5kFWEbY97Tke3UYnXlQzluXN28pikpn5TFS/laN5YfPsOauGyh8cScNF/RPrdtdDhl4X7XaMZ5LJ9dyYWcYm4PPZMwh12j7/6DIWzV9R1HqSHvlKdJGqVyjlZ7/nEVM0GXy2avvcKZLAVLJbQ/gqbuXkBD4FQdqL7uo42q021kLIfRMX76MgIZDfLJv7INuALWhgNwGEMpcEu6HxppKxFWdbzgBgdB6rhLTZZ3JcWbm2g2E1uzgL6/v6JmAU2nxi+eBebFE8jW5o1Da8aQoLWT871NkXHKr0Wk/GL3+bG4rorDnYrG/98rLKtNVRbRQXZ1DuaIgqs9SLb7HXRMXMDm3gBzLlS7clSXnraFdiXkLQDEXs2/nURIfu575sSmkFA4d9WvdbiSuicBbCAXPKeu4ce1SYsN90ZnqqDyzm13b91Nj6t+hUZv+g4fnZvPZRxbm3LSAUA8zLSVpfLPtQ3IarHbp6QlOvpu1K2cTHuCFk+iireY8Z1K2sDervm/Sjbn99zwwPZ03nt9CWe9l6PjHeObhCRx/4Vfsq+75bMqD/PQ70znz7he4L9vE1BBXuhryObPjHfZlN/Slp7Ue2trEm6THf82m6AI+/v1LZLXZvu+96CmeuDWC3Df/jU8z2wHbMpLHk/P59L0Wkm5eRri3oL38FPs+eo/MGsdHTZH0Xf7PfXPQ99ar/TBbnv3fQZdbhVDwil3N6vXLmRjqh7OlmdqCw+z7fCeFzcKh9ETABv75mZsJ7ftsEz98YVNPPgOX4Pj7BUJzHjWd9B3v3dk7+OyDENouOLXiOXkdq9cuYXKEP3pTI3Xnj7D3sy8obOkvnyPtpyW9K9EuwnUh9z77CCEnXuBPH+X090kljnW//CkzC//CH7ak2wUkU5gY60JrRjpVlzjTIvR+xC67laXzpxHi44a1tYrCYx+y65s8OuzL6RrNvI2bWRgfjYeuhbL9b5IX/TTrPLbxh5e+GnjG1j8EP4Ogoa7qsvIVIonb/v17hBx4jr/tquz5TE/ioy9zs+en/M+LX9LmaL4a6hF+0+943G7ZFot+wrOLer7fcYR3f/U6Bb1l1PkRt/J2ls6LJ8RHR1d9MZkpb/PN2dr+faGLZ/JkJ2r2nhxw1suY+h6fFbZS4WD5hJjBpt88yYSTf+cbZRkr50zEg2YqT37AJ59lDGgTrftN2/5wJfm7f2J9XP89/5Vf/oJXvx4YUWhtPyHiufk3PyI67d/5847iYfbv8P1ZCAWPwCUsmTabCZ5e6K1NVFcd4WDOKeqtjgcOWtIThnncesNSWnPPEDAxGffmb/iiwIMVc67DpyuTb1K3U2hSNKcHtqUhd0QUseeshfj4WQQ7WWhtyuTImd0UdtrWswr3pdy74noC+9pnBQ/dtKInHyvn058npWroOiuKwNhYjiU2Cj83oLX/39z9l7B4ahITvH0wWFtoqD/N0eyDlPUs6XE03+HSG23CdQUPPr+BppSjhCy7Ho/ST9i6z5v1D67CrymNL159k5zWnv2hcR7UGpfIeWs05i0bS24Ghd2LmTg1CgovvkxAy3beYQb+LUmHZ6fKSwfNZGoYC66JwFsXtp57H9uEZ8k+DnxUSKfHZOatvJ8HPU389Y2jF1xmnUryglyyd2/hlPsU5q9ayW33N/O3P9ldSghdx213LsUpazspKRV06XyImL+BxQ8+RONv/kB6x0hK6cyUxbPJOfkJO0w+TFy4jiUP/hOdL/wnx+pHUg8Fg6s7zvbHh9WE2WRBKIrtjNEHHzLjJw9zw81zKHjnFJ1ei1h/43RMGf+PlLNtYJ+eLo7rlhWQvfc9MlwnMXflCm5+sJ3aFz7C6OglrIIUPnzjGArgN/de1sQOvZku9EbuevxWfCv2c+TT87S5RpO0YhObH9Xz+h8/689XS3qtp9izpRY3IHzJoyzwPsWunRnYfloImovsWk6nAAMHZqWjhJy0Eux/eSuhG7j38U14lO3j0LYC2twnMnfVJu560MwrL6UMvPSkof20pndF2qUzlZOZd7E5cQmxn+Zwvud+El3sdUz3aSX7xJmBg5feHy83aG6qGyJTGyE8mXrnT7lzppms/V9wotaCf8KNLFn/PUTtL/g0s7NnOz+S7n2K9RObOLP/A843OhG54Fbmeyp0FlcPXiYREoo/9RQZLQx1pkRrvgSEEeCsUl9jtE+coCAd3eXVA4NuTflqq0dzxvtsLdJD8BJuWh9HZcr/cqq6J5Huakr70vNg6l0/586EbrL2fUJqnY7QeetZ+MAPMP3h3zjQW+zACAKdzNQajQPK01mezply+o5zze3sFU6AOzBpATNyTrLv0zSC525g0dKHWJGTyY48q0Ppad4fqBR9/Ve2HgICFrJ+40zqawb3L63th3cY/u6CuprK4fevhv6s81rCpuQVuDelcvxsBSaXKBJiN3Krq5ktJ846vP5Ue3ouhHp2cyLvLHNmLOdGyylO5KQxfdpiFk88SWFu1QjKN4FZMcXk531BltMEEidfx9o57Ww5dJBmRYHubA6nN+AChMbcSqJrNgdycnou9QtaGoepnFXFig6dXZaK5zJunr8ct+Y00s6W0ekcQcLkFdw0x8K7hw87nK+m9MaEK5GhnRxKSWPRzZu4zXyAwzv2knjTWlYtO0DOF7YfeVrnQZvh4xI5b43CvNVLraWlGab4+gGXWJ+rYTsXVwVvPTi5gJfGLndNBN4R8xcTak7nw9feJcekAMc5bwriyVuXM9P7KMftfnHj1krWe29yrNW2XbEugh+tn8Vkz52k2vYqutAoAnXl7N+xg9MNtpbMyTlLZqArHSN+2IsbdcdfZU+abQjJzLYQ+Ku7mJbgz7F9jQ7XQ1Gms/65F1lvl4Mo+Zg/vriz7wSD0nqEz7fP5onNd7MqrZiC5NuJU0/wwScnBt+s4trBua2vcaTZlm9+VyA/vjORaUEfYaxxrKZKazF5PUsuwybeCRcZcELmLiLCms62v28h22S7dJbd5MPTD11HfNhnGCu1p6eYqijM6DkTOesRcK4iP/243Q1wjg/Crt5mSo9tJWvH15RZbOUrUCN5+pYk4rxSOG5//7GG9tOa3pVoF0Wxkn8sjZbZC0lKcOP86S6E0DF5zmw8m05wOt86sA2dnTAoYLVe4opI6CpWzfWi4IN/5dM0W+XEmQ6Cpz1BeHQQZPYMZOErWDLdQP4HL/BZz3aZFV58/+lYGtIGn132CQnGWdRSZxz0T47lGxJiC6Rr7QJpfST+/tBwqnJQssPmq7Ee7eVnyS0HvfsSXDFSnJZObot9hNLz/xE3sGauOwUf/jufprbY0ss3EPVvdxET58UBoy0PXUgIvtSRa1S5ZD/X2s6hoQSgUpf+Htv22wJRcd6FmGfvxD/YDfLaHExP2/5QFBP15zOoB5TE67idOhprBtdJc/uFhhFIE6eN3Qy7fzX05+DIJAKt2XyZlkKBVQEyKbEG8OjMeUxxOctpB+cG7enpqK0+TE61Lz7RcwlvOEJ2mQl9+GKWufkBVY6Xz7mDvPTtZJhs25UrITw8bTITnA9yxgyKtY7Sqp4fIaG3kGioo7gyk5bLGE9dXM1UlqaQm5NKtaoAWZSKUB6Pn0KMy2FOmxzLV0t6Y0OP8WwKZ04H4rdgCRMKvyIjtRNd4lrW+gcBtsBb6zwIaIpLtJLz1iXmrT4WrFYwOLkM05rDb1dTaOKpah2uZpW6QUt/h3ZNBN5ePj5QX0W9zh1n2/1/WGqMtCmz8Q1iwKUuOquoaaFvXzTX1GEmGg9P6Pk5hVpRhFFNIvnu+7CmnaOyvISK6npqyhVGMuDYtFJX09H//ZYiyiobiXb2ARodrocQRRx99WPO299c2VXDhcdoW9rbfDXz12y846dM9lXIfOtdcjuGqENXFcam/uJ1Go20MQlPX8DBwFsrP/8AaDyB/bxoOfs6//2Mghj9J/g4rDPvK1LyQCgGnF2dUQBrewtmonDzBOwHMA3tpzW9K9UuasE+MmtWMD95Pq4Z++nUz2RmvBf1qUcoH8GNO/4z4wlU8zmS0UrfQKmm8/GvnkAR/cGu99Qp+IvzHLLbzsZEg7F+ULpBgSHQmkZ9N0MejprzDQ7BRRiprbb7ckAIAXozRuPgBZPD5etoPQIDg9GZSqhvvkg9pk/HXz3PkXNmnF3dbB/qFQQDA0TfkDCc1RpqhlnjqbV8bsHBuFNEzsna/u2cDOgQdHd1Opye1v0xoO5BweiHqdNw7eceEoIbRhrsfygFXnz/DsfL1RM662lUXHDqmTktbbW0MQNfT6BhrNJTEaiAiipsSy5AoApQ7E6gOFQ+U+2Aftza1oiVMNydAbNj9dCqq+4o++tACANOTnrb+Gdqw0IYbs6Ag4HyaKennYpqVQGBUEG19l4BGrg/HKIhLtGclJy3LmvecpSiKLR1CtociA2vicBbp+hQIm/iid/eNOBzIVrRD3pFkG0Is/9bAAP2T+1uPnrLlVXXJ7P0jhW46hUs7WVkf/UW2w8VjfAubRX7jBWlgK//+PPLqEcndQXZFF/4C2vQHbotZB7NYM3ji/Fu2seJrAsnyd7iqQMvYqkqAmVMb3nQ6XT0tn9/eQWqVQxdxnGm+M9lzZ23kTQxEFdD/w4QYog1vhraT2t6V6pdFKWSEyeKWLh2IYne+zkRcx1T3as4mlY8OF/VVr5LlSYoKAQa8zGaBm4oVCvC7oPg4FBoPEaN3Xa64BB8qOXsBWdxhfAgMMgD6oxcLHTSmm9QcAg0pVJntsu35+xx9gjydaweCoFBgVCXdsl6KPqJbHzuRTbafS5EKydr+xd6BgUHQUM2dRc7ueNg+YKDQ6A9C6P9UBEUjD/1FNsts9Gantb9YS8wOBAasqm/SJ20tF9wUDC0nMauqdAF2/ZvzoVn0jX0Z0XRofgs474bl11QlvYLh11NrnR6A8YrRdj2xRgOu4rbNJYmrGaavx8uevvx7+LLe8YzvStLQ1yikZy3LjFv2X8PNL0jQOt2jrgmAm9VqAjjAbZ9knbB42astJQ7np6iWGnM+pRtWZ8idG74hscy/fp7WHXzg9Tl/ZqDPSO9sJ1yGLhrFdD1/BK+0vUAELoYVm5ciKE0n6qIxaxZuY//3VMx+KkMOt3Aeuh0KBccRKNNVVVQdOP++lShCmBgfYV7DDMSQmk7d5SyVgUhvEm+81HmB+Wwf+v7VLSabQPjhLXcs9Z/cKLDtJ8j6V2pdgFoSj1C8Y33kjA/itaIWTiV7iTDyODxy9yJSQU/Vw+gZVA6QngTEOiGuESgatvOg8BAD6gfuJ1/SCgGq5G6QSeKI/APgPacqiGf7as9XzcC/D2h3oj9NO0XGoqTtYrBS4uHy9fRegQRFGjAUjf0owl766EWp/BuStYFk3IXjcV22wW4IWoH1kMfPJOEGJXSE1k0qIrm8gnhRFCQL9RVD9jOKzQUF7W67+qA9vS07Y+BdfchIMANtbaai4dQl24/AE8vb+hs7zthKISOmClxOKmlg8+kD9Ofbd9XEa0nSMk6d8Hj7ay0Nmuq2lWV3mXR69H3nKG3lc2ThFm3MsujmGOnd2E0WWxjo+9iNk71cTj50U7vaiDnrYvTPG/18cTFDUxdw11O0LqdY66JV8a3NjeDi0p7QTbF53MoPp9DUXU7eidGFAC7RSYyMzEWTyFQ1E6ayzM5+tVx6pVAfAP7t2toqAfPMII9+z8LDAvHoNbRMPjK8rjXQwg90esf4bqAUg5u/QNfHKgjbPWjLA7VD97YNYwQ3/4/3UJC8KSFtiFmNavVDDr9Zf+GbWxsAL9wQuyWT+lnPsbPfv87VkWOPOQfbgBoaKwD31CC3fo/c5m6nk13rGOia+8n4YSEO9GSmcLB9LMU9uyP6nYxdLrDtp/29K5UuwDQdpT0c92EJtxL8jQnStMP262vtE+sjNpaCIiMxXnIswGeuLkx4CyiEM5MvfcFfvXMZsL6vuOBq+vAMwpCCWVmfIQtKL6w3xsC8fGC5oaLrX/Smq8BvRPYj8xCCWTGjCisRTmUXPi+hGHzdbAehOIbAE211Rd5NKEtPXNzKUX5tvGgKD+Phm4DBnMbrX3LAXrqq+vfr0K4MW3t42xcNgXFOjC94csXgV+AAorOrv38iI+PQZTlUmhyND2t+8NeOP6B0FxXhfWip36Haz/o7OyAoNkkzwzFzc2PqOvuZsVMH2iotl0dsDdsf4bWrjZwUmlvKKS8vojy+iLKWjvQ6RjyzXtW1TKgHS83veGMdnq9VKFesh4XEkIh2D8Cg9pAY98ZpCCCvZxorT7Miap8ynrKV2O6yHg6bL6Op3e1k/PWJWidt3p5TyLMB2qNw5zR1LCdUBTio3QsjVQIUrTV85o4412RepjqRRvY+GA7x05X0OUcwKRF60j0TOXt/8hjuBuwLyRCl7BhcxzGSTs4eb4Ok96HiOQlBJqLSbNr/5b0IxStfoDlj9yP4Vg+nT4zWbAiipaM7eQOvXRxFOvhQciM2Uwd9AKdDKp6HmdkmHgbG5cGU737eY4aLai73iI14WcsvXs9uS9up9b+OlaHG9PvfgwlPZMW11jmrpyJYvySnCFOUzWVltKhn03yhqVQ0mb7ddxZSUGBEYui4BE1i0hv22Hi5+8EBj8iZ87GCcBcQ0luBV2KgvHEESqX3MLa79yH9/HztLlEkXT9fAxVO8m0ewaa1vR61VRXIhLmsHipkYI2FeigJucstV22bRpOHaXk+rtZ/fj9uB3Lp901htkrE6F4G2drevdbORVl3cyes5kNzfsoarDgHhzP9PhQLEMtghy2/bSnd6XaBWw3uGUfP8naxxcTbc1m+6mhF9AqShWZZypYvGo584MPc6j2wgGnhoqKdnSJ67ljrcLZagt+U5azIEmQ88EeqvrK1URdXRdK/I3ceoOVc3VOhM2awxQvBbXcyKDfr2oH3WaInLKcBGMBJgFgpankDMY2xYF82ygproGla7h5TSdna/SEJq1lYVgVR/52cMCjDrXl62A9evdh9BxmxPtjBdTmQvLLe8+21lBW1sqSWevYcL0ThQ0Cz+hkrlsaS8Onz3O+pLd8RsrL29El9dTXqOI/bQUL4zs49cYe6h1tZ30YQX7QSCK33tTNqUorQQmruW5iG5lvHqbV4f2mbX8I90gmTwy0TUiG6YS5g9kpiKnxXhe0s9b2g6J9H5Mbdx/zH/ktyWoX9Rk7KWzWEdFWPWh/DN+foaY8g7qYpaye00V6hZFugx8TYpYwzfkMH+8rGXSevLW5ii7ddBKmJSGaes5Bm2spra/HoigOpzec0U6vV11rLYRNIzmmlhKTALqorz1Pg/0yR8Wb0NBpOPe+QGeiPy2lKZzvW8ZlpLrFxPSIG1nZlUpphxVXr8lMDgnAwtBvBbx0vo6nJ/z0/GmxHp8WKz/fb6FmjN8B4Oj4PBw5b13+vAW2K1/hy5YRKc6zK/3yt8NXx+OJenwaLTxddvHN7OmDg4Ofu/BDZ2dnTKYxuzNh1InW8+SWQVjCEuYuXMDUSeHoqo6S8t42Ctr7B1CfqatJCq/jzN7TNPXu2OA5LEnypeLoXop7BnZzRTYV1hAmJS0maf5iZsZPxs9SzMmPt3C0vKNvHbXSXUp+YSd+U+eTmLyAKWHO1Kdv49PP0mhV7Vo/IJHFc4OoPr6HwpaL7xWt9XCesJhF0yYRmTifmbP7/4tPmodb+XbOVSsIw2Ru+M4DTGpOYev7qbShoIhGSqu8mLVyDbHiNBkFzaAoeE1ZxZyIPHZ/0caMdTcxNz4cqo6z672PKWofPAGpdQVUE8OMhSuYO38BCbPnEx/RzumjuXQpClNueY471y5g5uz5xIa4oRiCiOktYyzkHzhLi6Ig2grIKzHhH5dMQvICpk/0x1S8ly+27qDMbq2N1vR6dZSVYQ6ZReLCZSTNnsf0hAl0pvfvXzqKKSjuwjduHrOSFzBtgi8d51PY/sFujD1jiaKYqCoowxA2gxlzFjBz5hT81Bz2HWtlWoI/lXb9RUv7OZLeFWuX3v3bIAhZOh+/vB18nlZ20ZeJtJfV4jP3RpIT/KjJyqS+u7+vKIpK3fl8TH6TmJy0gFmzpuBPBRmfvsqujNq+s5SKYqW+rA6PCTOYMmsesZGuGA+k0T1rFi55Ozmef8E1cmGkrjWImFkLmXvdQlvfS5pI9+mvKWpRHMgXWovP0+Ebx7R5i0lKnIpX5zmOvP8ah0u6B1d22HwdrAd1NJuimJS0gLnJtmMo0pROam5jT/kE9QV5dAVMIz55MbNmTSfIuZbsHa+xI63arh6CuvO5dPnGEjd7AbNmxuKrFpO67VX25TQ73s6hySxfFEnp9vdpnHkbKxYmEeJkJHP730lJr+vrC1rT07o/DEkP8t37biJh9nxmJk7ES1HwjJrTM671t7PW9rN1+FIyD39NesYJMr75lANpOqavX4BrfgrH8wZfyrtUfwYQ3WUUNSsEhSYxc0Iisf6BKK2nOZCxh9Ihpku1vZw6JZy46HkkRCUyNSKBOJ9OzpUU060o2tLThTM9dhLmqkMUtLkSEb0A75ZD5DSrBEUsY6KaTVp1rUPl8wy6jhneTeQU5vaPD57TSA73proklfIL3hnR1VKFyWMKMybMZXrETGJDw+mu6N/OM+g64gMjiAqfSVxoLKHuJqpKvuSrvDy6+p4+YaamvhqD9yQmhycyLTQGH4o5VtJBbJgPNQ7mO5L0wqMM3BSokJ1n5auRLr0xxJC4cgamjJ3k1HgwYcEqfCpSOFNmJWzOTcSppzh42hZlah2ftcYlct66/HlLCD2ByY+yeX0cbfv/zo7MxiGvmGndDiA40sCmQIXMPDPfXCK+s6fEx8cPiqw8PT1pa2sbanvpGmR7kH4eW559Y9DD/aXhXWvtp8Rs5offX0TZm0/zSealX6CkC1nG7Y/ew1TPBooPbOGDlKzLfougdOXoEp/gmfuDOPCfv+ZQ/bW1H4XXGh579jbatv6ID04MfWJJ9udrkxCCNQtduN9H5aXdZk6qcp9+2+Yt4ZXEjQ/czeyJnjSnvcW7Hx6nZYi7V7VuB7Z+teI6Fx7xV3l5t5k0jS/SuiaWmkij4eo/8K6sa6P9hFCYlDwPn44Mvsi2e9zHRajGA3zwQj7xy9cxLyiIMX2KlzTm/EOC0VtrqHfw0Xj/iHR+scSFe9n+0HsQPn8N4e3pbMu8yPMgkf35mqXTM80P6ktVTg3z9J9vl2ujITTNW66B+FiyOfT6lxw/Z7z40+m0bgeAjjhfaK6wctKB5cUy8JYkqZ8hkcQEH1ozjlCocSBRTFWc2/0652DQ4yylq0tgUCDUn7XdHHmV78qA+Q+yeU04YHu+c3NFBl+8upWcrktXTPbna5C/whS9YE+x9aJLBqSrmIZ5S6ndw4ev9P5xiccMatwOAG8dcc6CY6XqRZdkDpmHXGoiSZIkSZIkSWPvWn3yjiRJkiRJkiT9Q5GBtyRJkiRJkiSNAxl4S5IkSZIkSdI4GDLwluu7JUmSJEmSJGl0yTPekiRJkiRJkjQOZOAtSZIkSZIkSeNABt6SJEmSJEmSNA5k4C1JkiRJkiRJ40AG3pIkSZIkSZI0DjQF3orOGYN+0AsuJUmSJEmSJEnSyKBlo8A1v+S7KwPpqM3h1PZ32JvbONblkiRJkiRJkqRrij44OPi54TYyNRZTWlCCKXwRi5dG0XDkODUWZTzKJ0mSJEmSJEnXBE1LTSwNxRSeO8zub07T7RxGSOBYF0uSJEmSJEmSri0O3Vypc3XHiW66O8eqOJIkSZIkSZJ0bXIo8Pbw8UJHC63NY1UcSZIkSZIkSbo2ORR4u7i4grWTbvNYFUeSJEmSJEmSrk0OBd5NZSW06ycQlxSBp7sbzq5u8jGDkiRJkiRJkqSBEh8frzlyFsKZmLU/4a5VMbjpbE81Kf78ad460DJmBZQkSZIkSZKka4Gm53j30kXfxIaVQRj3v8mx/HpMKnTVtI9V2SRJkiRJkiTpmuFQ4O03dQYBIpdvdhwiT5HP8ZYkSZIkSZIkrRxa422xWkDnhLND4bokSZIkSZIkSQ4F3m2trQjFB0/vsSqOJEmSJEmSJF2bHAq8ra1tmHDDzWOsiiNJkiRJkiRJ1yZNi0YUnTMuHoHEJk7GWZUv0JEkSZIkSZIkR2kKvAPX/JIn1oQjTHXk79zKyRZA3lspSZIkSZIkSZppeo63wT+GcE8TjTVGWrus41EuSZIkSZIkSbqmaDrjbWkoprRhrIsiSZIkSZIkSdcuh26ulCRJkiRJkiRpZGTgLUmSJEmSJEnjQAbekiRJkiRJkjQOZOAtSZIkSZIkSeNABt6SJEmSJEmSNA5k4C1JkiRJkiRJ40AG3pIkSZIkSZI0DmTgLUmSJEmSJEnjQAbekiRJkiRJkjQOZOAtSZIkSZIkSePg/wPVksKrftkO9gAAAABJRU5ErkJggg==;" parent="1QiOH6tT_yfQtaS86Rcd-23" vertex="1">
          <mxGeometry width="734" height="90" as="geometry" />
        </mxCell>
        <mxCell id="1QiOH6tT_yfQtaS86Rcd-16" value="" style="whiteSpace=wrap;html=1;fillColor=none;strokeColor=#FF0000;strokeWidth=4;" parent="1QiOH6tT_yfQtaS86Rcd-23" vertex="1">
          <mxGeometry x="277.00325195312496" y="29.00325195312496" width="433" height="31" as="geometry" />
        </mxCell>
        <mxCell id="1QiOH6tT_yfQtaS86Rcd-29" style="edgeStyle=orthogonalEdgeStyle;rounded=0;orthogonalLoop=1;jettySize=auto;html=1;exitX=1;exitY=0.5;exitDx=0;exitDy=0;strokeColor=#ff0000;strokeWidth=3;" parent="1" source="1QiOH6tT_yfQtaS86Rcd-16" target="1QiOH6tT_yfQtaS86Rcd-5" edge="1">
          <mxGeometry relative="1" as="geometry" />
        </mxCell>
        <mxCell id="1QiOH6tT_yfQtaS86Rcd-33" style="edgeStyle=orthogonalEdgeStyle;rounded=0;orthogonalLoop=1;jettySize=auto;html=1;exitX=0.5;exitY=1;exitDx=0;exitDy=0;strokeColor=#ff0000;strokeWidth=3;" parent="1" source="1QiOH6tT_yfQtaS86Rcd-15" target="1QiOH6tT_yfQtaS86Rcd-4" edge="1">
          <mxGeometry relative="1" as="geometry">
            <Array as="points">
              <mxPoint x="413" y="587" />
              <mxPoint x="569" y="587" />
            </Array>
          </mxGeometry>
        </mxCell>
        <mxCell id="1QiOH6tT_yfQtaS86Rcd-34" style="edgeStyle=orthogonalEdgeStyle;rounded=0;orthogonalLoop=1;jettySize=auto;html=1;exitX=0.5;exitY=1;exitDx=0;exitDy=0;strokeWidth=3;strokeColor=#ff0000;" parent="1" source="1QiOH6tT_yfQtaS86Rcd-4" target="1QiOH6tT_yfQtaS86Rcd-6" edge="1">
          <mxGeometry relative="1" as="geometry" />
        </mxCell>
        <mxCell id="65vioNYkB3K--B5amISv-4" style="edgeStyle=orthogonalEdgeStyle;rounded=0;orthogonalLoop=1;jettySize=auto;html=1;exitX=0.5;exitY=1;exitDx=0;exitDy=0;strokeColor=#ff0000;strokeWidth=3;" edge="1" parent="1" source="65vioNYkB3K--B5amISv-1" target="1QiOH6tT_yfQtaS86Rcd-3">
          <mxGeometry relative="1" as="geometry" />
        </mxCell>
        <mxCell id="1QiOH6tT_yfQtaS86Rcd-5" value="" style="shape=image;verticalLabelPosition=bottom;labelBackgroundColor=default;verticalAlign=top;aspect=fixed;imageAspect=0;image=data:image/png,iVBORw0KGgoAAAANSUhEUgAAAxUAAACqCAYAAADbaWI3AAAgAElEQVR4nOy9d3hU17Ww/54zozqjXpAECIHovZsONmADJhjjbse4JjdO4i+2b26Sm3uvfzc3yZfkS5zEjh37Onbihm0M2HHDYLARvXeEJIQ66tKozEgjTTn798eMpBES0hlJgMD7fR6eB83sWXuttcvZa7ejjBs3TiCRSCQSiUQikUgkPUS92gpIJBKJRCKRSCSSaxsZVEgkEolEIpFIJJJeIYMKiUQikUgkEolE0itkUCGRSCQSiUQikUh6hQwqJBKJRCKRSCQSSa+QQYVEIpFIJBKJRCLpFTKokEgkEolEIpFIJL1CBhUSiUQikUgkEomkV8igQiKRSK4zREAMyalJBAj5blPVGEJgcMu/QAxKR5+oxmCfNMEYVOk3iUTS/xChyaQMicJwGft2IRTUgADUHuRhvAz6+IUQggAVXEK52qpIuHrlIeuB5HpCCIVAo4bTfaXbUTCJs+/mW8vnklC5iT/+pRjnFcvbgNGg4db6z4BciBCmPfY8y0co3r8tHHzpJ3yZ3z7dsDt+y/0zTN40GhnrvsvGE1daW8n1yvXyfOuPbbw/cEX9EjaZZT9cQWjBLras/4Czla4+Ey2UOMZ+69ssnjacyNBCtv3itxy0+SfjqgYVQiismBfAPRHw6R4Hm+qvTIMbnGhgdpDG53kaDUr/a+R9rZ9eeVerPPo63/5YvhPunMV7t4S2fdBcylM/OMv2y6zf5cx35MwUVobV8Pr2Wup6KS86NYkf3zGYWYOCMDkcZGcW8/z6Qg5b+0f5+YMQITz2sxk8M6SJV//fQV7I79yGvvSfJ98ABi79EQ8ujaV4x6u8nHasXf0XQsGcuoSlKxYxNDGSgCYLZZlfs+3Tryltaks3eNVveHhaBm8/+yb5OvUSIp45T/4XSwZZ2PPSs+wouvzlFjf5Niaas9i3OwN7N3qKou28//lJnDipK+v4/YWv/8pbR1UIm8nK++deJo3bSFz5a76zKL5NP8chPvj3V8nqJ/1VT+iuPAav+g2PLIgFQLgd2OtKyD/yGV9uP0G91nO7/akHV4Pr5fnWl208NGUxS25dxLDEaIKctZRn7+TrT7ZRaLv2ghW9fumzelr2GW/+qYIFd9zDmh8MIPTlFzhS7u65PB8i5j7E7fPiyf3yHbYUllBu91/GVd7+5JnJc7nBcQVzHZhkYEWyiukK5ukPfa2ffnlXpzz6Ot/+WL55ezN46qVTPPXSKX5zuActtR/mO3xqCo/OjSKyl3JEbCJ/fGoU8xULb72fwf/dUoV7TCovPTGY5E62qvR/BA6HhsOp0axdOlVf+a8FQ8pqVt88iLItf+LdL45Q1XSR72Ju5I7H7mSYSGffR2+xZU82gRPu44H75mLq9VK6hsvhwuV04rxCRRY/cRlzZo4gWE/ipkoKsjPIP59DTVPHB3pT5Tnyz2eSV1h9Rfq+6sNvs/4fL7H+Hy/xxYnqK5Dj5UdPeQj7Gb7+x0t8sO4ddp+yMXDx91l7+ziMvah/ftWDq8L18nzrmzYuom/kzu/cwwglkwP/fJPNO06jjbiD+x5aQtQ12d/r80tf1VNF0bCXHGDLK8+zv34US+++meg+2goVMyABQ91xdm3bx/lzBVh7sNJ+VVcqFEVh+wEH2z1/XU1VJFy98vgm1ANbaR3bSz3/Hzlk2HWfrz+k3JDEdLWK/3rhHB/ZFaCSrxqC2PFIEt8aUMRLncws92cUpYl3/rSHdzx/XZE8hTAwZuECYix7+CitGK2TmbCYqXMYoqbz8evrONWkAAfJ0xJ5auVsRofs5WiTr0D/8leUKg6/+jSHPX/13JBvCI7yTLLKPf+PG3T71VXmSqLVcOHMcfIVBXHyAIXiFzw+fwljP0/nVFP3P78WuV6eb33VxqOnzmGIeoaPX3vH2w8dIqshhqfvnceE2C/ZVdlHCl8hrlbfpzjzSdu8n0mP3cjM1C1sye19YNHc3AyBgb0KfHQFFcNGB/BsssbfjsO8CSqpgQq19W7+ecrFPpvP8nqskb/OUth3TMOcqjLVrGC3C/aku/iwQmt90IlEI29MU1Fb/m528YetLs74LtUbVX56sxFTlpP/L6fNWUIorF0SwByLix8ec+P2/iYixsB9o1UmhCsY3YLSao0N6S7SvbNSIlTlVzcZSW7Nw8jvVxm9MgVHjjbzYqnS+ndknJEHRquMD/PIyylx826Gm6IeRG5CCAYPNvLACJVhoQqBAupsGnsy3Wwq1xCK4pd+fW6vjvJo9UuMkXvHqIwNUwh2C0qqNDZluDjTyexft37Rme+IsQH8xyDB66dg4TiV5ECBpUZj40mNI3bht7269ROC+JHJ/HhNEjMHBmFyOsjJKuWlDYXsqWnfgONGJfPj1YnMTQ4hsLmJ3KxS/vJBPntrelZf9OQ7+9tz+NuESh78yTmOt/hw8hiOfD+ct//7AC+U+J93d3aI+GQ+/FUqo1r9PIzPX/MGK0Jj22s7ePpQWzuKH5vCT29PYs7AIAKa7Zw+VsDvPigly9GmW3JMCNTWcK6R1j7ZeqqAn78ZQmWjf/qBd8vXvBp+/pqT1fclMSEcqgor+Os72Xxa6n+56S0PMXMcpx6Px9Dim4ZivvejTPb49ms6/SdCBvDK78cyav8xlrxT29Z3KuE8+9tp3HLuNIteq8TVKmckQ1ODsJ44Tukl9m1HRcVA3Tkq7W1+ri8ro5mRRMYCF3wSC4Fp7N2svW0eSWEu6guPsGPjB2RUty2zp9zxe9bObr/O0tk2HiEUzCOXc8uy+aQmRaI6qig5tY2tn+6kwtE+XVjqEpasWMjQhCgCXXVU5uwl7ZPN5NZ523nMrfzLz24joVX+Kp58bpX39y1nIa7uwE2vvX0pTwQvYu0vb6V2y34GLLgRU+FHrE8LZ8XaxUTVHubz194k06rolgdt2+A+3uRi6spZJJic1Bcc5uuNG8i0eOpBb8pDUQQlefk4Fg0jNgoobfvOPHw5S5bNY/jAaAyOGqrO72PHx5+TW9+zetCdvMtBf36++VVfJn+P/3xgamu/Jhr2su7Zf5B7kR166gtAdFQs1J2jwqcfas74jI8/GIDtosBST7klrvw1j8/I5p/v1TP5tgUkhQsaLhwjbdN7nKlw+S1PTz+k1y9666kIns39zz7CgCPP8fymTERrfz+C5f/xb4zP/St/XHe8w2SRK+sEuc1zGTpqMOQWXrK89WJrsEFIOCYD0MUqe1foX6lQVG5OFRzOdrPXqLBouIHHp0PxThcFFz3EJg9VOFrk5g23wtgUlZXTDVh3amxtGSBUu3nhsIYKxA0ycG9MJ/k53RyqMvLwQJX48y4qWpwZqTI5BE4WtwUUSpiBH99gILxW45OTLqxBKjcON/CjafBfe1yUKwo0C9YfdWEGhg0zcnOwxrqzGlZvdlU1bVmrYQaemWkgssbNP08L7IEKNw438tNg+PlhN/X+7ocLM/LEJAPGMhfrMgSNisLQIQZWTjdStc1BmhO/9Otre3WVB2AIM/LUDQZi6jU2n3FRb1SZN9zAUzPhf3a7KPT3EJrOfL1WszhF49A5FzsDFJaMMPDEdPj5rh7YqxND0hBeeCqVpMIL/OP9WqqDw7jtlqG88KTC/b/MI9NrrzJoCK88NZSYvGL+9k4tFlMEdy8fxvP/onHnbwp170v3N9++RpcdtVX86bUmwoEJN47lwcgKfvdRFZ4NHIKS7DZ56sAhvPzkUGJzL/DKO/VYwyK4a/kYXg/XuO2lcqq9fjF4N2H6Pt6VBhvb9trwnfnxy89KFN9eWsu2L87xcXA4dy0fzC+/5+T8f+eS4We56S6PzAKe/ms5KjBo1kh+PLoTJ+v1X2MFm06M4M/Tk1jwfi1p3meyYdQAFkc5+Gp/tU9AARiiCQuButqqS5evqgBa+0UIIdBQ6VhFhzNjXg5ZX73LidDhTL/pRtastfHqnz+h0mtv+d5/sD4zsPUX4VPuZdnYjvmqiSu4/7FVmAvS2LUpF7tpONNv+jZrzQ5efmN/675wNeEW7n78diKLd7Lvn+exBSczedEq7nnUwN///DHlQgHrMbavqyQESJr3KLPCj7F18wkavP6ry7uk+VcMvfb2vbxgBiXY2bPlMHNuW8Ua5y72fraDSSuXsXjBLjI/z++BfqOYMSuLjG3rOBY6kpmLb2LNt+t45fnNWJQ+KA+XCzcGVJ+RiJJwK/c/vgpTURp7NuZgCx3KtMWruHutk1f/ssXvfHXJuxz08+eb3vpCzhY2vHEABYiadj9LU7uS2U19oaUfah/MKY0FZB4uoF1/70+5qSO4YUEOGTve40TwMKbdtIjb1jZQ+dwmT7/hhzxd/ZBev+itp/ZDHD1zN/dMmkfqPzM57x3Qq6k3MCbCSsaRU52uPqNVUl8HIyOjgN4HFU1NdlCCCAoEerhyqD+oCICDJ51stnsMO+ZS+MsklakmKGh3OlyhpNDF+0WeSrOvHBKXGpiZoLLVuzyjOATHyz3/HxZlgE4am6IoHCoRPDhZZZYZPvGUAsOTVGKcbt7xWSILDRJkF7jYn+EmW1MAN6c0hRcnKEwOgq0OUNyCMy2zlEmAQXCyxN0WrPhU5tRkA0PcGi8dcnHYuzJxwqXw54kqs4PcbPVzY6QappCoaHyY4WZXo6dBHa4UHAgFm3ew4I9+fW2vnvIASB6kMlS4efmAi4NuT76H7PDiDJUbzFBo7fx3l0JvvgAECg4cc7HFO5N2FoXnxqpMDIRtTv/s1cvo2YlMcJXz4z+d8+ZbyZaaQHY/kcDywXlkettweLjG8V3n+HxjMcednnR7NBO77o1lQUQh+fWXJ9++Ro8diqORPYe8swNTx0JQI7sOllPQiZ8nzU9itLOSZ17I5kuHAlSwszmEr+4fyK0R5bzlp1/88nOIi61vZvC6xZPvjqZg0tbGsTghl4xS/+TpLQ+l3sbXJzyd4YThwzu1Qa//FEXw9a4yKmYmsXqakbRDboRQmH9DPLE1FXyUobXzNYEBGBVwu/voJhBTIxnvv8lBqwIcJNsRzzNrpjA6+hMqvUcA7GVnyfLZmnapbTwDZ84lwXmcDa+/S6bDI++8I46nbl/I+PD9HPT2GwOmzWGg+zgb/7aODIcCHCKjNoJ/fegGxiV+THkJKI5Sck94C3DiIxBYSvbxg9T0op33NXrt7Xt5BspPb+HUyViiZs1jSO6XnDhkR520jGXRcUC+//qFWEl/700OeOtBvjqQH62YyHDzZg41XJ7yCA53UnhgPemffUWRy1MPcrRB/OvqyYwI28JBm3/56pF3Oejvzze99UWx5nMu3fOLxKF3QVdBRTf1xR/8KrfgRs6uf519dd7+qimWZ+6axOi4TZRX+CdPTz+k1y9666miuMk+cJj6KbOZPCGE8yebEEJl+NQpmGuPcDLbTedl7MLtBmNAkH/O9SKEgiEwGKMBDEFxjB2ZhLAcpaS5R+IAf4IKp6DIZ3tCQ72gDoXIYKBdoxSU1fs88Jo1zlkNjOrB6Y2GMjfpbiMzklQ+yRYIoTAzUaGhXHDKJ4uGKo23qkAICAlQUAC3AxwomAPx+3RUTJACdo1SRSXEq7fLJqhDJd4MWPyTp9UJioSBpZONuAs18uo0cusFRfUKPekM+tpevcSHKGCHfBetajvLXHx/M3CpOt9XOARFzW15VNk8ZoYHweW6M3NwbBBYysn0yddxLIO5T6gIn6XBurNF/OosCEXFFKKiAk6bgybCiTQDfg6e9ebb1/S1HQkRQVBVTp7BiDnE85mjrJEqJZ7BCf7L80s/u43salr9V1dip5pI4ny2WeiVd7XKw51Vwmdlg3lgdjzhB0uoM8awYnIg+XtKOXG5r6a0l1JRT6u9jWVl2BiEKRLw81xxWEQEVJdSrYYS6N2s66oox6ZMITIOWqZbo6JjoOYI5T5+dp3+O3/4mXJZ/dzX6LW37+VpaG4NEAgNNLd3i5LwTNL1SL+L6kFdRRVOkjGZAT8HiXqxn/uSLedAKEYCgwM9z7eGepwMJsTMReONKy/vsnAVnm9664tf9GF98avcmkopr23L115ejo1hmCOBCv/kXa1+SMtJ40zFImbOmEnwiZ3YDeMZPy6M6kP7uHDZ+vs45j/5KxYmeeS7bdl89dpGSnqRn/6hvhAXLZt7tlx1lrXvQXRFEXywq4ejXKfgcBU8NlAl8ZyLkggDU0IFJ86I1q1PAGqIyv2TDMyNVgg1tH0uelgDFBWUCCO/Xt7+cyEEak983aDx4hG4Z7jKqkkGQlUFV7PGkSwXr+drOPxdDu9je3XnqwLiom0qioJ2qYrQpyjt698VmJA0qGqn9rrdop0CamwsP107nFUjQggz+igmevbU1ZtvX9PXdqiqAslD+eiFoe2/EA6MPbh3zi/9hGi/JVQTHforvfKuVnkoSiMb9tXz8OoEVkeW8P7weBaZGnhrn7Vjvpqnf+5Lbdr39x7v9aT/UxUVZdBKnvjVyvbyhbV16xuA6u1g2vtZoF1mP/c1eu29NuRd1I685XM5Y1olehpL71rD5KGxBPt0FEKUdvGrKyfv8nDln2+Xh76rL36Vm3bRtk5NQ6C0c6NeeVerH1KUEo4cyWP2stlMCt/JkZQbGBVayv7D+V3mq+AZm/YMCyc2/JGCIAVDUBwjltzFwtVLyOrFtkA/zlS0LyAUz320l/MCMEURHC7WeHCqyuwwOJakEu8QvF3VNjwQQuGmSUYWmzU+OuEmp9lbGSINPD2mZ04RGgiri5dPaxdNKilU1/XMjspyNy+WuxGKIC5MZdoII/eMN1Jc5Wjd2qVLt8tgr15agodvymvY3ZoGqtKlvUIEcN9D47gvvpq/vnmO07VuT6c6bAgvrg65bPl60gEKGHw/VAQqAn/fwXM57NA0ASUX+PF75bRvNoLSgovtaG+vMJlZPjWUylPlHK1T/NfvInkt/mxxiz/y9JbH5aBwTwmHbxvNyrlmqobEEZKfz0cldHzGOO04NIgKNnGpJSChCUC9qB9XUNHo7JnUPl3HB61eNKEhynex8aPDtL/U2E29z+FwTdNAUa/5/kWvvdeLvF4RYMSAG827a0+IcGbc9Sgz4zLZuf59iq1OT7scsoz7lkX7Lb6v5Ul6T2f9kAhNYeyEBGxn91NkVfwvN/Wifk1VUXz6K3/kXc1+qPbQPvJvuZ8JMwdjHTiRgMLNnCini5jCTFAIOJp6NvGnKC7qijK9z+cMisKnMWPNeIaFbMHSwzMV+v0WoDDY5x1apnCFCKD2Ml8DZy/XSHcrTEk0MC1BwVamkX7Rez6Sw6GmVOOTEo30asHZakG+86LBlg/dDY6rmwUYocaicdYrL90KBlV0+vDtDlO4ypxEhSghUIRCVb1gS5ZGmaIQH9oxfXf69bW9eqmwCwhRGOITihoHGHhlZQB3h/ef+6X7yt4L1c0QHcpon+2KAVNGc+DVWTyT3GJvKKMGqpSfKOSVAxb2ZtaxP7OOM7ZLl4fDpYF66U5LX75QUGWH8FBGhLWlSx1kJkizU1Thb77+29HdYLusrhmCBVVZtez3yttX4sIYAMKnDRdW2yEylJE+bcE8YQi/fDCFWa3jez/1CzEzwmcPc3hSCDE4qKzxX57e8vAXXcGKtZwPT7oZM3UE941TOXawlJJOD+wVUVkJMYNSCbxEJ1VTUw0RCcT5xExhCQkEYaHD+e6QROLD2/4MTUjATB22HhwItdbVQZBGQ04G+eczPe+DKGvAEEC77QQ1NRaISmKAj58N4x/jJ7//NYsHdbSpvwYheu1twe12gmq45LjBX3l9rZ9e/C0PIRSShqYQ6K7wOWicxICkAOrPbGH38dPkevUraxCXlNt1vv7L6+9c65N7lpoqiEwg3qcfChq1glV3Lmdo612mfpZbcCIDfC6iCxkwADP12Gr9l+dvP6QXXe3Dtp/jZ5tJmHA/M0YHUHh8b9cXA4UPIzECKsv7ZjYgMDAQcOHsxZY7/SsVDpg5KQC1WKPWqLBouIpic3O0BwFSRITKcG/liTMBqkpqgoEgALcgo1KjscWRLjeHKoz8S5IBo1lw7Iy7wyn4vDrBgkEGHrErnLULzGaV6YnKJbciFlo1RJLKt4YaON0MILhQqXHB5ZGbU+imMMXIY9Nga7Gg0agwPsXA3CA3v/tao5PxWpeIcJWHJitciNb4ulrQrMDQZANJbo3tnax8dKdfX9urtzwKL2jkDzXwwKwAogrc1BtU5o0wEGB1+3340J98/aU7e/WSsa+U9JtS+dnTIxmwu+XWnwQCi/P5oqglVQNnCtysmTWSX1gucMCiEZkQw9LJJpovcSdbUV49NcZ47rsjEZHr8symNDawN6sRu6LozBfKDpdy4NYx/OCHIwncWYs1MoYHbw6j4lA+X/mce9GTb2MP7DhX3IA2NY7vLGlgjxXARfbparK9lzmc3F1C1sKh/OIJF28fsVEfGMLcRUP4VlgZ3/l5HS2LFfkHSzm6bBRP/5+RhO+uxRISzpplcYjzOXxa2mKHn/o1GLj54TGoh6qpCI7gruVxqKX5bG89WKxfnt7yiEuJYVKkx/ZBsSoYgpk4Jc5z57ejkYPpDVh96nN3/gNQFI2te8r52f9JYoq7mv8+4OhYsICilHLmVDFzFy9kZvxe9lR2fPhVHz9A4U13seTR+wk5mIPdPJIZN6ViT/8HmfaLxDZHM/H+h1CPZtJgGsH0m8ZA6edk+nmeDKD40F7K5tzKt9Y2cOBkMU2BMQybs5xJ5kO8/ZtztIwny4/so2TeapZ95wHCD57HFjSYyTfOxFi6mTPFHeVWlJUgJkxl7vxycmwa0EhF5mkqe3C9dV+i194WagsLaTRMYcat86HA5mmX9hJycspxKYrf8vpaP73oKg81ikHjpxBkCCEyeSaz5g+g5tD7nG2tfxcoLmpmytR7uLUujTyLi9D4cYwZl4DrEk+4rvP1X56IMvD8XAMR9W5+utPn5kk/6e/PN72YBk9kULhnKBwVHQBGTxkGADgrKMgqpskPOyzH9lNw470sefzbhBzIpiE4hSk3TYL8jZyuoGf1oDGEMfc+hnL8DPXBqUy7aTxK+Rdktl7oo1+e3n7IX7/oaR+K4iDj4FGWPT6XZHcGnx6r41LLFEKoJC1YwCBxnq3HL53OH8xmMzRV0tDJ+EEvfhyfFmzNFSwYbyA1SKG2zs1rp3pwjSgwZriRJ5La/27NTE/hCLubX2/TaLlZUVEUjpRoPDxNJdHhZt1FhwQVRfD1SRcxE4zMG2FgriIot2i8dx6emNq5bqV5bt6PMHLrGCPzjApCaHya5uCC96COZnXz3CGFB8eo3DVFweASlFrc/PWoRqbWg4PVRW6eDzJw5xCVh4YoBAhBbYPG50fd7PA5DKRHv8thr97ycFtd/OkQ3DdaZfn4AII1QWm1mz+f7XitsB78qQf+0J29enGXFPDDFwQ/Xj2Qh+9LItTZTO65fJ7aUNB2LaniYv1bZ0h6YBirVoziW6qLgnPFPLdN43ePdv6uZFd6Lj/9NIifLRrJH5YZPPdcF+Vy6y/yKNCZL4BSU8a/vWDkJ3cO4tH7EwmyN3F631l+sqkSWyedfJf59sCO3G1ZPJc8hkdvH8uqIBVEA6/+dzXZ3j0VWnEB33tR4ee3J/Gjh4MwNjeTd76YH7+a5709zEtlMc/8xcC/3Z7Ew/clEuJwkJ2Rww/WF1Ko9NDPopa3tzu5457RTIgQVBYW819v57ddA+yHPL3lMWPZBP7fNN95qGC+/wPvcomlyPM+ET/814IzvYp99iRuPFfG5va37LajIm0DJ6b/iPkPPUjF39Zxru6iJd2qr9j0moGlKxYwd808ApotlJ55n3Wf7et4zamWzqEDLqbc+gCJJo36op18tOmz1utkO0NVFXC7uShXtNLNvPt3WL58AYvvDUdprqc6dzcb3/mIAp96oJVt4f3XNZYuW8Ds2+cS6KqjKudz1n/6Wds1jr7m7FzH9qS1zFnxCJMDVYQoZfdzp0m7yi9L1GtvC+6sD/nwywiWzb2XO24MxKAoiJJPePG5T6jpgby+1k8vespDCRnPTY+MR7gdNNWXkL/jZbZuS2+9HllRbBzb8L9ErVnDxJvuY6Jqx5K7m207nay5v/Mb1brKtyfykmJVIoGzBVqPAwro/883vaTc+AR3TPQdKkax6BHP3dGidgdv/HIdRZ3/tHOqd7DpdQNLVixk9u1zCHTUUp79Ie99sr31ViT/y+0cB3Y1MvW2BxgYrmG7sIePN7b1G/7I09sP+esXvf2V+9xxcprmMur8AdIb6LS/F8JA7IxHuHNBPFU73+Bofefp/CU0JBTsjTR2n/SSKOPGjet2Pafl5XedvbhFIpFI+hMT7pzFe3Nr+N5T7V88d62ipA7ny58mcvzlPfzkeNfdtTpgAXc8eh+jzBbyd63jgy3pfl8E0ROECGHyY79nVfgWXvjTp9T1E78LEcLM7z3PMnUDf/rHHhy4cTc3474oSFGNwRiNCkTdzCPPrKC6H7xET3LlEUKwdHYQ347Q+Ms2J0d7MIkoubJ4Xn53jnXPvtHhhXzXIkrKPTz5gzkUvfmvfHSm4xXhImwytzx4L1OGmqk7/BbvbjhIfR/dnBC79FmeWAIH3niVfXkW7Pbmzt+P0QU9uOhVIpFI+jnX/rMF8Ow7nzc3nsSGSv7H9x7tS6CV7+KD57IZt3A50+PiuFw3TAsRQvyoUUQHgDCYiB0xn9lj3ORs3NtvAgpflNS7eeZXdyOEhYMv/YQv89t/P+yO33L/DBPguUXPz1tzJdcLqoHRUVBdqHHscl+TLulDro+CEkJh2IzpRDSe4PMMJ53aFRxLhCuDPX//goNny9u/BLWXVO5ez54RjzH70f9hFjl8+Yvf+v0eFxlUSCQSSX/FGMNt04KoOFTKHp37XBVHKWe3/Z2zQCevyu4jkph29/eZGamguRuxVRWR+dGf+OqA5TLm2ROayPj0jwpN4aMAACAASURBVFS2XgLgpK6T7VEXvv4rbx1t2bomaOhPt41KrhzRCiMNgu35bkS/qseSbwTGSUyaEIH1xD5yL9HfK5Xb2fBqyx99W0eVpiy+funf2R+TSGykSp29+990kKFn+5NEIpFIJBKJRCKRXIpr9VYyiUQikUgkEolE0k+QQYVEIpFIJBKJRCLpFTKokEgkEolEIpFIJL2i06DCbDZfaT0kEolEIpFIJBLJNYpcqZBIJBKJRCKRSCS9QgYVEolEIpFIJBKJpFfIoEIikUgkEolEIpH0ChlUSCQSiUQikUgkkl4hgwqJRCKRSCQSiUTSK2RQ0ceIgBiSU5MIEPJF5RKJRCKRXE1EaDIpQ6IwXMZnshAKakAAqnzuS77hGK+2An2NEIIAFVxCucL5BpM4+26+tXwuCZWb+ONfinFeUQ0kEolEIpG0I2wyy364gtCCXWxZ/wFnK119JloocYz91rdZPG04kaGFbPvFbzlo6zPxEsk1hzJu3LgOobXZbMZmu/ZahhAKK+YZuScCPt3jYFN954GFEAozJxi4O0klNhBURaE2z8GPzvRslkGIAAYufYYHl8ZSvON9tqQdo6rJP1mJK3/NdxbFt8l0HOKDf3+VLOXKBkd9Sdzk25hozmLf7gzsndgxeNVveGRBLADC7cBeV0L+kc/4cvsJ6rWe291dvtcT4amP89DogQAIzUFTUzWlxTtIyz5Hg09grSbezRNTRqN24o/C07/j48ImAEJSHuLxcSmd5lWZ9SLvn69u95kSvYyHZ83EpJ1l8xcbyL1IfszIJ7gvpYzPt35Invc7EXUzj8yeQP6BP5Bm8X4mwpg+72lmNf+Tlw+fROtET2GYzu23rGDwJcpU1O3grd07qfd+Hxg+mdmjbyAlPIoQGqmtOcne07socnRsm93Z4etnAOFuxGq7QFbWZxysqEdclL47eXr1E7Er+e7MqQRf9HuhZbB163qyNUW3X+pMC7l/0Vxqj/+BL0rbpjyECGbE1B+wLDKdTTu/oNSPtqenXgkRwIQbfsaiWBdZR37LtgqBEAZSJz/NrYNMVGS+wPqcGkCfn/u7vZ48uq/Pl8N/evWLHvEED4yMp6nwXf52Otujs/lGHlwwlQvedulPe9PbD7XQVfvwt513K0+ohA6cyYI77mFGTCFbXn6BI+XuTmX7S/i8H/PDVfHkfvkRRwpLKM/Jx+q+vp85EklXXGcrFRpOt4LLLXB0kSogycDjKSpnM1y8742dmhs0oGedgSFlNatvHkTZF7/h3a+LL/kA6Yrqw2+zPi8YgPAp97JsbI9U6VfET1zGnFiNY7szsF8ijbCfYcf7O6k0hBCZPJNZi7/P2rDneWVjOq4eBgR68r1eiDXHIBpPkXb2LA1KMJGx05g+/B5W8zrrzpW2pos0x6C4ctl/8jCWdhI0rDV2Wup+jCka0ZTOzjOnabgoL1td+18KYSA1eQImhx1HoAlTAODy/V4h2hQJ9rP4hiIBpljMWLC0m7eIIyoErFWVXbSfPI4cXc8pAFKYPu0GAgr/yf7KZk9+9pLWgYYaNo/VsxYSXHOQ42dLcQQPY8rwhayc0sibBw7R2G7Q0bUdF/u5EVADYkkZOo/p0+/Dtet/OeLjLD3y9Oqn2o7x1dFsUIYyc+pMDIUfs7+yCdwWLrjxFptOvzRkkGdbxKSEEagl6a1+DohdwrxENxmHvvZrgA1661UsUaZ6rE3hRIVFQkUNBE1hYqLA1tREja3WTz/3d3tBX33ue//pkSeEQow5EiE0giISCRPnsCoKhrAYwqmmprVd6m9vevsh0NM+9OerR56iaNhLDrDllTJcT/6MpXffTO4Lm7H0wYRTzIAEDHVH2bVtHyWKQk/HEBLJ9cJ1FVQoisL2Aw62e/66ZLr4MIUgt8ae826OtnYsPesMhDAwZuECYix7+CitZwEFgKM8k6xyz//jBt3eIxnXJFoNF84cJ19RECcPUCh+wePzlzD283RONV1t5fo3QoQRZQ5CWHM4W5aJpiiI0vNo4c8wf8AoIrJKqFPaBhE0nCGzLBNbhzrasloQSJQ5DGz5ZJRldh/UBU5kfEIwpUUnCB6SjCkYaBcoRBFtDsBtq8Lq82m0KRocBdQ209bsguKJCBTUNFZdMjvFXc2Fck94IsxJzMFBWcVJcisumsUXAYwaPZ+4xt28fahlRjMdW0gqqwcNJoFD5PphR6ufbbmtfoYssuuCSZo/lyHxZo7kNfghT79+oqmE3CYQYYOYh5PSylPklntXMrzlo9cvilJJTnk105NHMcSQTp4GQhnE7AlTUIs3sLuyuVWmHvTWK9R4IoNtlJepDA6NBWqISZlBUn0pJaYI6rwTOnr93O/tBV31ue/9p1e/KKLMAdRZyzGbE0gwgFWDCHMMqqMUi7dd6m9v+vqhVrppH3rz1SuvVa4zn7TN+5n02I3MTN3Cltzen39obm6GwECCey1JIrk+uC6CCpFo5I1pauuSr2h28YetLs60m81QCAzwGBxi8HwWEKAS0vK9W6OpR+cwRjI0NQjrieOUXuL3QiiYRy7nlmXzSU2KRHVUUXJqG1s/3UmFw/889cgTwYtY+8tbqd2ynwELbsRU+BHr08JZsXYxUbWH+fy1N8m0KrrlgWe70sPTMvh4k4upK2eRYHJSX3CYrzduINPiWU4WMbfyLz+7jYRW36/iyedWefPRyFj3XTae6NxmRRGU5OXjWDSM2CjAZ4LLPHw5S5bNY/jAaAyOGqrO72PHx5+TWy96lG938vxBNQZjNHZmkxt3czNub73Qm04/8UR2mA1tpNkBBLnRWtNFEmUKwGmt6GSg0V5etAnsFTW6VokikqcxWCkgraCSUUPGdvIwjyMiBOrLKlq3BwmhEh0WCY3HaTfcMkcRiZVsmwM9Ab5nVrWGzM52aaqpDIkOoDonvd2MZlXRF2yvbqTMbzu8frZY2k8aOO00AW5N+CfPT/0ADOYYwqgl09b1imqXfgEqys5hTZ3MsGgDuZWCuBErmGjMZltGBg6/J0R01itzLFFKE6dqnAxPiiFE0ZiSHEZ2QR6JES7SW+Mx//zcb+0FnfW5r/2nV79YIkLBmp9Dc+po4s2QXQ9RoVFgT79ohcND137W2w956L696c3Xf3murBPkNs9l6KjBkFt4aaE6sTXYICQckwE6GCqRfAO5LoIKqt28cFhDBeIGGbg3ppM0ASrPLDMw1qezfWK5ofX/PT5TYYgmLATqai89I6UmruD+x1ZhLkhj16Zc7KbhTL/p26w1O3j5jf00+Plw0y8vmEEJdvZsOcyc21axxrmLvZ/tYNLKZSxesIvMz/N7oN8oZszKImPbOo6FjmTm4ptY8+06Xnneu5xsPcb2dZWEAEnzHmVW+DG2bj7h3UojqMvrxjiXCzcGVJ+aqSTcyv2Pr8JUlMaejTnYQocybfEq7l7r5NW/bPE7X13y/GDM/X/ijokdm5IQVo7+79NsPu9fOt0ExhIVKKhp9N1cFEV4iILbZvF5rsYRYYL6inoCjIG+OeN2OtoGAoZYIoLAau9sWHGxzolMTE7CVfUxWQ1uhoggQoIv2ncQGkeUUcNi89UvhmiTiqOmst0WpCBzLCFYsPguaXRBhDkG1V1NTQMdx2wh8UQbnFRZ29vRVJ9FZj3tZqd12REYS1Qg1DdUtpNnik8llmqOVbcpoUueH/q1EBkWgyKqqWnshV8AarPIb57NsIQU1MYBLBoWzYWM9ZzrweSG3nplMEcT5m6krr4Je2o0CYlDGOE6xhfOQYyyX6CmJU7yw8/92V7QW5/72H969QuNI9rgoLomF+GYTUxkEKIuhOiwQJzWyk6fR136WXc/pLN96M23B/LQKqmvg5GRUUDvg4qmJjsoQQQFAnJlXSK5PoIKxSE47t0SMCzKAJ0FFW4X7+/XMAGxg4w8mgSbDrnI8X7tsvfwTEVgAEYF3O5L3ygxcOZcEpzH2fD6u2Q6FOAg5x1xPHX7QsaH7+egzoGU//IMlJ/ewqmTsUTNmseQ3C85cciOOmkZy6LjgHz/9Quxkv7emxywetLlqwP50YqJDDdv5lADKI5Sck94lxgmPgKBpWQfP0hNL7aZBYc7KTywnvTPvqLIpQCHyNEG8a+rJzMibAsHbf7lq0eeP+Rt/TNv7et8BaL+gv/pdBMWTQRWsm2++4g8s5C+qwOeQQTEjvgu3xvR9nMhcvl661ucbTmzaI4lUtGobLZfNCgBzd1+JcUQN53RIc3knk3HoQ2hyQkxQeHgO89pjiGSWopsrZv/QY0nIgTqLrQfOMaao8GRQ60TXVXEM6t6rtNZVdUcQzi15Og4J6XLjrBoImgkv0nz+EUJISpmBgtHDaW5dBMnrW3Z6JHnj37gezYl22cA6b9fPBSRV25jQtwE5oeMJq5+F+sKav3aBtSKznoVGRaL0nyeBmsdtUGTmD40hrLcLwiImY6wnWjT1Q8/92d7QWd97mv/6W7n0URQR17DBexWmBE2EDAQGQK1pe3bZQtd+llvP4TO9qY33x7IAxduNxgDgi7xfdcIoWAIDMZoAENQHGNHJiEsRylp7pE4ieS647oIKvSgCIWCak/gMTgGQFBSpXG2l2cq9BAWEQHVpVSroQR6N1+6KsqxKVOIjAP8DCr0y9PQ3BogEBpobu8WJeE5f9Ij/eylVNTT6q66iiqcJGMyQ4eTvX2E/dyXbDkHQjESGByIArgb6nEymBAzl1zqvlLyGsuzyC+/1LeK3+n04pkNraGmXdAXS5RBo6bBZ9bQFE0EFtKPf84534efZqXK1Za1Z4uNSsSknzJ8UlsyIeo5tf+P7Kpp+TuQkSnjCHakk1npBKzYnWAKCsP3YW42RxMgLFh860VoLNGqkwqfw6VCGIkyh0NDdReDQ199IogOC0Q0VFHXyfdhYbEYRXX7fDuVo8+OIHMsoYqJsTP+nZb7E4S7karSzXx85kzrDWN65enVr41wokwB0FBFTZf2dO0X8GwxvFCeTXPyFCYGlXFwz/52W7D8Qke9EkIhOjQSmm1YHZXUOBIZG3KSTy6EMHhYINayqtYZdL1+7s/2evTSWZ/72H969TOZYwjUqqlpbKa+robQ6CRMQRqRAS5qbB1rWHd+1tsP6W0fevP1V17fEMf8J3/FwiSPM922bL56bSMlV/gKe4mkv/KNCSouG5pA0PWQUFVUlEEreeJXK9t9LoQVQw9eP3h15YmLto567L+cfaoSPY2ld61h8tBYgo1tCglR2sWvrpy8q3WmIqaz2VBzNBHUUuyzOmAKiyFQq+JCWS4XLr7txmeAFW2ORhFFHDmYRlG7RE3U1vr8GTSF8XGB2ApOcQEDBkMDdgeEBplRhGidmYwxxULTSSy+CxXeWfrsdmcD4ogKVWiurmq3JerSxBIZAnWVVZ1ejBBjiobGPCzdLQTotcMcjXCcY/exA1QDmtaEzVZOvfOiDHT7Rad+rcQTGQrW6mrc3eyV78ovLbir8yjRphBXtI2jVq1ns/borVfhRJkDcFot2JU8vt7+P3wNCMNkJodAXWNF6090+7lf2wt663Nf+0+vfjGmGLAXUa1BbV0FInkAA8LsRFDDhU5Xz7ppbzr7Ib3tQ2++/svzugLP+6x6hoUTG/5IQZCCISiOEUvuYuHqJWT1YNusRHI9IoOK3uK049AgKtgE1HeaRBMaonwXGz86fNEVpz3b9tLf5fWKACMG3Gje3WRChDPjrkeZGZfJzvXvU2x1eoKaIcu4b1m03+L7Wh5cnTMVQhiJNodDo6Xdda1h4fEEiWqqfFZbYkwx0HSKWp/ne0d5ClGmKGg6wvmqXCq7uNkmJmUKiaoCQx/mB0N9ZNSEEQzY8cwiRphCoNHSbs4w3ByDwV1Jte/ZADWOyGCo6+KmnHYExRMZIKht6LhVQwgzkaagDrP6qimVUVGCkuIc6rzBmz47vH5uOEJ2VW6Xg0R98vTr10pIHFFGqOvEXr1+aYcxjBBVUFlX2OPb6kBfvYIBRIZCXdlFZWuKJUqxke/dMuOPn1vpl/aiuz73pf/0yhMimCizCdFQRS3gri+nxjiOxBgLIcLSvl220GV786Mf0tE+9ObbI3kAmAkKAUdTz5bVFcVFXVGmd+Ukg6LwacxYM55hIVuwyDMVEokMKnqNVkRlJQwflEqgKOn0RhFrXR0M0WjIyaDQO2AQ5sEMHxyM6OTGCLfbCarhks8Zf+V1R1/La0HTNFBU9C6eCKGQNDSFQHcFVa0jriQGJAVQf3wLu49nt6YNjr3lknK7ztd/ed1xdc5UxBEZquCwtM2GCjWO8UlJuC1bKPIOLIQIJNJkAntNNxsCoog2GxG28i7TCSWZiYPjcdfs4pMzma3vg4kZei+Lo82YaXmYBxJoAHz2mQsRxYjEAWiWwxT6ToiaYohUnZRbfZdDuiAsmkjqybR2tmE9hOBAEG4DKp4LWYQIZvjINSwOO8K6ohyPX3Tb0eLnyi4Huvrl6dOvHaYYImgg2+b7HgR//XJxujpK611dp+sC3fUqJJYoo5taW/tUxvA4wtodZNbn53b0R3tBV33ua//p1y+OKBNYL1R4AixbCZWu+QyKc4M9h5rOApIu/ayzH9LdPvTl2yN5AOHDSIyAyvK+mS0LDPSc0HY6u00qkXwjuC6CiogIleHeswBxJkBVSU0wEATgFmRUavofVH6iKKWcOVXM3MULmRm/lz2VHZdViw/tpWzOrXxrbQMHThbTFBjDsDnLmWQ+xNu/Oddhn3RtYSGNhinMuHU+FNgQAPYScnLKcSmK3/K6o6/ltVBRVoKYMJW588vJsWlAIxWZp6ls8ikLNYpB46cQ1PLyu/kDqDn0Pmdbx08XKC5qZsrUe7i1Lo08i4vQ+HGMGZeAi8578q7z9V9ed1yVMxVqLFHB0KREMGzAKAwBcQxKnsnY0Avs3XfMp74PINoMDmsoyQmj28twVlFYXeW9PtZ7/WtFRZdbbALipzMyyE72mT1cqG/zV7PNBgPCMAGeecVGSmvrYMgslg53kt2oEpswlynmKo6fPo3T9/CmOZYI7FSZxjIisX1+DbVnKbG3b1Mh5hiCsXhuhOmAhbIaO8rAudwyErKtbsLjZzJ1gJ2zRw+0HtzXbYfXz93Nhuv3iz79hAgkOnYoUUYwxCQSRDOG0NEMC4DG+mzK7B2j/a79cnG6Gmp7dQZKZ70yRxNBDYXW9ttqPO8qKaS25cZVnX7uaEc/sxe99bmP/adXnjGWyCBBTUPLykcJFTaVURHxiMqDnQYkXfpZZz+kv33oy7cn8oRQSVqwgEHiPFuP19HTANMXs9kMTZU09DxelUiuK66LoGLMcCNPJLVv0Wtmeuadhd3Nr7dpZHf2wz6iIm0DJ6b/iPkPPUjF39Zxrs7d7nutdDPv/h2WL1/A4nvDUZrrqc7dzcZ3PqLA3bEncmd9yIdfRrBs7r3ccWMgBkVBlHzCi899Qk0P5HVHX8troWrnOrYnrWXOikeYHKgiRCm7nztNms9F/ErIeG56ZDzC7aCpvoT8HS+zdVvb27QVxcaxDf9L1Jo1TLzpPiaqdiy5u9m208ma+4f7nW9P5PVLTLFEqhAxaAUrBrpxO61YLKf48tRO73kFL8YYIoMgKPhGbo1rL0JUfMLL1d7BRWgckUaNamsFl0KIEEYPGUVgw2GOlzna7dO2NTeA0YzJCLhBUTSKz21ib8AyJgxdTorahNWax/6DX3Gy1tXutxFh0ahKBCPG3smIdvnZOXvoDCX29nUwyhQNzVnUdDJxqihucs++wy5uYfKQpSSrzdhs+Rw9sp3jlY2gKH7Z4fGzg3JbV7PO/vile/08pDB92j2MDmiTNXbSvYwRDs4d/S1lnUzDduWXTtNdNBASQsFgDMBwqd8KNy6Xy7NXXWe9MpljCNIsWHz0FUIlyhwJjSfatszo8PO1YC/orM997T+9+pliiMBKXoMnGlGUBiprrShR4dTbOj+70KWfdfRDfrU3Hfn2RJ4QBmJnPMKdC+Kp2vkGR+vpkyAgNCQU7I10c9OzRPKNQRk3blyHqXWz2YzN5ucVON9w1AELuOPR+xhltpC/ax0fbEnvwcuVJBKJ5OogxBBuWvoQ44M677dEXRpv7U7r+e1J/Yxvmr3fVETYZG558F6mDDVTd/gt3t1wkPo+ulkkdumzPLEEDrzxKvvyLNjtzb06tyORXOvIoKIPEYGJjFu4nOlxOXy4Lq37t65KJBJJP0GIUGJiBhB6qW7LUUFxve2St+pca3zT7P2mIuKWcPftAynZ/QUHz5a3roL3iezgUdz06GPMHhqJgRy+/MVvOWiT9UXyzUUGFRKJRCKRSCQ9QAgDITGJxEaq1BUUYO3FlmGJ5FrnujhTIZFIJBKJRHKlURQ3TZYLXLCAPK0t+abT01s0JRKJRCKRSCQSiQSQQYVEIpFIJBKJRCLpJTKokEgkEolEIpFIJL3imgwqzGbz1VZBIpFIJBKJRCKReLkmgwqJRCKRSCQSiUTSf5BBhUQikUgkEolEIukVMqiQSCQSiUQikUgkvUIGFRKJRCKRSCQSiaRXyKBCIpFIJBKJRCKR9AoZVEgk1xEiIIbk1CQChLjaqkgkEkkrIjSZlCFRGGTfJJFct8igQiK5DhAimIRZa/nuf/5fHlo+nsCrrZBE0o8QwoBBVa62Gv2OK+qXsMks++Fv+NGTDzA2znhl8pRIJFcUZdy4cR2mDcxmMzab7Wroo4v+rt+VYnCigdlBGp/naTQo19YDU4hYFjz1axYOtHPyH//KpxluhDAy4eE/sXpcIAUfP8Pbext6JDtu8m1MNGexb3cG9k78MnjVb3h4WgZvP/sm+deY3zpDiAAGLn2GB5fGUrzjfbakHaOqqX2zDk99nIdGD/Sk1xw0NVVTWryDtOxzNIg2H6iJd/PElNGonfil8PTv+LiwCYCQlId4fFxKp/pUZr3I++er232mRC/j4VkzMWln2fzFBnIvkh8z8gnuSynj860fkuf9TkTdzCOzJ5B/4A+kWbyfiTCmz3uaWc3/5OXDJ9E60VMYpnP7LSsYfImyFXU7eGv3Tur9LPvA8MnMHn0DKeFRhNBIbc1J9p7eRZGj48xrd/b6lgeAcDditV0gK+szDlbUIy5K3508vfqJ2JV8d+ZUgi/6vdAy2Lp1Pdmaott/daaF3L9oLrXH/8AXpc6270UwI6b+gGWR6Wza+QWl2tVtY0LEM+fJ/2LJIAt7XnqWHUU91yc0ZTFLbl3EsMRogpy1lGfv5OtPtlFou/Zm3/X6pbv+VH9+KqEDZ7LgjnuYEVPIlpdf4Ei5u8fyJBJJ/0NOF1zDDEwysMIEaXkaPRt+X20c1Na4GTlhDMrZ0wjDBEaOsFJriemV1PiJy5gTq3Fsdwb2PtK0P2NIWc3qmwdR9sVvePfr4k4H2rHmGETjKdLOnqVBCSYydhrTh9/Dal5n3bnS1nSR5hgUVy77Tx7G0k6ChrXGDnhkx5iiEU3p7DxzukPds9W1/6UQBlKTJ2By2HEEmjAFAC7f7xWiTZFgP4tvKBJgisWMBUu7+YM4okLAWlXZqZ0e8jhydD2nAEhh+rQbCCj8J/srmz352Uv8DijUsHmsnrWQ4JqDHD9biiN4GFOGL2TllEbePHCIRh953dkL7cujEVADYkkZOo/p0+/Dtet/OeLjVD3y9Oqn2o7x1dFsUIYyc+pMDIUfs7+yCdwWLrjxFq9O/zVkkGdbxKSEEagl6a3lERC7hHmJbjIOfX3VAwoPGi6HC5fTibMXY38RfSN3fuce4kp3svef2TSEDmPKjXdw30OCV//6JTWiP9jqD/r80lf9qaJo2EsOsOWVMlxP/oyld99M7gubsVwHEzsSicSDDCokV5Eg6ovPEj92KinqaQpGTWKYrZB8RywhV1u1awQhDIxZuIAYyx4+Sus8oBAijChzEMKaw9myTDRFQZSeRwt/hvkDRhGRVUKdoiCEQow5EhrOkFmWia2DrJbVgkCizGFgyyejLBNXd4OCwImMTwimtOgEwUOSMQUD7QKFKKLNAbhtVVh9Po02RYOjgNrm1qwhKJ6IQEFNY9Uls1Pc1Vwo94QnwpzEHByUVZwkt6JngxchAhg1ej5xjbt5+1DLCkc6tpBUVg8aTAKHyPXD3tbysOW2lgdkkV0XTNL8uQyJN3Mkr8EPefr1E00l5DaBCBvEPJyUVp4it9w7ovSWo17/KUolOeXVTE8exRBDOnkaCGUQsydMQS3ewO7K5laZVxNFqeLwq09z2PNXj+VET53DEPUMH7/2DqeaFOAQWQ0xPH3vPCbEfsmuyj5S+ArRV37xO19nPmmb9zPpsRuZmbqFLbnX3iqPRCLpHBlUXAFErJG/zlLYd0zDnKoy1axgtwv2pLv4sEJrHQgKIYiMM/LAaJXxYQpGtyCnxM27GW6K3N40oSq/uslIcuvD2sjvVxlbf3/kaDMvlnq+Gzs+gJ8kCH69zUl2Sx4DjPxthsLWNAebbIpf+o0YG8B/DBK8fgoWjlNJDhRYajQ2ntQ4Yu/Zg8Fsyed86mJGp6oo48bTlP4l9qlTOwQV5uHLWbJsHsMHRmNw1FB1fh87Pv6c3HpPviLmVv7lZ7eR0OqXVTz53CqvXzQy1n2XjScu2oIy6QEeXjmLBJOT+oLDfL1xA5kW/5fj1Snf59/vhP1pZiYvSsTy1SvsMd/J6htiqdn3Cm9+1jbwFsHJTP/WPcwel4xJrado55ucS/5Xlps28se/fEmDoiCCZ3L3zx8n5fxr/PnNgzgVBREwnFue+jHTtO28/fwGLrhabBnJ0NQgrCeOU3rJmdJ4IjvM7jfS7ACC3Git6SKJMgXgtFZ0ElC0lxdtAntFTfcBBRCRPI3BSgFpBZWMGjK2k6AijogQqC+raN32I4RKdFgkNB6nXfhgjiISK9k2B3oGQoawGMKpIbM3uyXVVIZEB1Cdk95uhaOq6Au2VS1NSgAAIABJREFUVzdSdlHy7u31lofF0j4IdNppAtya8E+en/oBGMwxhFFLpk2jKz9257+KsnNYUyczLNpAbqUgbsQKJhqz2ZaRgeMyBBQieBFrf3krtVv2M2DBjZgKP2J9Wjgr1i4mqvYwn7/2JplWbx2a/D3+84GpGFrqVMNe1j37jw5bx1q2Q368ycXULvqD6KhYqDtHRduCHc0Zn/HxBwOwNbXXs7v+CiBx5a95fEY2/3yvnsm3LSApXNBw4Rhpm97jTIXLb3lCKISlLmHJioUMTYgi0FVHZc5e0j7ZTG6dTzodftHbn4rg2dz/7CMMOPIcz2/KbGu/ygiW/8e/8f+3d6fRUZ13nse/91aptJX2FbEJAwYjdhtswCuYGEPiLXHsOKsTpyfpnJyetHs63ZOZdJ/TnTPT0+0+ndMTezqOEzsx7T2JN4yNYxazg9gEAiQQQgIJbaWlSlup6j7zQkIqCQElZECI3+ccvaiqW8/936dKt57/c5/nuTPLnuVfV+89p7MjdHQfZZ1LmDRtPJRVDPpZJ49x83dzbbztDv/+aRcHw1c/QRWRC9NE7Sto7iSL5sowLx4MUxSGz9/iYnli3+t2kou/XOhiWtjhj0UhfnfMITbPzY/nuUg+u2JGp+G1whDP7e7iQ5/BtIV5eXcXz+3u4v8VhljbePni62axLN+wpyTE7446dKa4+P4tNjmXuKJHXFwlh4/GMHn6XUy5MUxJUS2eAbOMrdxVPPHUQ0wyB9n85m94/+P9hCY/wJe/8TnSz+7Xv4ePV/+Kt15+nm3lYYxvF2tffp63Xn6e36/+FdtPDNzzNBYuiqFk3WrWfLSf4LilPPK1iPKGICM7BzuchO3/lMJyw/jbH+KG5g3sKoe8W27l7Mh5Y9KY+8SPWDk7gcrNr/Pe23+iYfrDLMy2aK870zsvxurYyaYtVcQWLOPmDDAmkWmPfpeF3hI+evGtiIQCcKWTFA/NTefvuceTSZrH0NgWObgojeR4i3CbL6J9mkVKIrS0txDj9kT8xWBH1osrk5RY8Lf3H+Y0GGPGMHtCHqH6/RxtDdBhYomPi+m/UUIWaW4HXyAyvgzSE22Cgbp+Q4tivZnE48PnJyop3gzscAONwxkfGJ9NuqsLn7//8Xa0HOXImcoBQ5+iOF5PJmkeaGnt37WdmD2ZTBo409A6tPKGEN9ZqUkZWKaBxrYLH/pF66/pKOWd8UzIzcdOvI27b0jnVMkHlAQvZwMwjnG57exYu4uOqQ/wyBKbwvfWU5d6O8vunNS32fG1vPHis7z2m1/w0YGLnRinseA2d8/5YN+g5wPLtoD+5wer7SRHdu3klL/veKM6X51lT+XWO1MpW/8Kaz7cSSDndh78xgPkWGbI5dm59/Hlp77EDaaYbX98ifc/3kNw4gM89u0v9CsvqnqJ9nzavpPCg60kzbmdya6Iw5p8Kzel+Dm8+8DgwxSdOlqaISk1bfD9A7FxFskuiI2FJOUTItcEXam4YiyqKkK8Wtl9ct9aA2OWu1iYa/Nhz+XfyRNcTAw7/GJniF09vTL7Qhb/NttmUWyYD4NghQ0Hq3t+IPIAl2F/VZja3hP3pZ59Lx4fAB7D9j0h1vY0GoqxeGaGzWwPrOsarNwLc8e4OHagiIceup+brAP84aSH2wa0meKSu6jY/hqH3vsTlaHuYQfHnXE8/dBcpiatZUcArGA1Zft65gbMfhI81ZTu3UHj+eolvpWDr7zI9hYL2EG5PZa/WDmbKd417BxCA9QYi6zsTDjzB7Zs20pc4jLucO9m04bNJHqWcWdGB8GzG+fdze03uSl9/Rne3tXdlD94OokfPD0Z367qfuWe2fg+R5d8l1vumMrhqvt5YK5h329+SWHDgEaJJwa3BeHwgEH2kZLSScFPaSByHFEmKQn9rw6QkEW6CzKn/hnfmxp5jGV88uFvKT7baevNJNVyqOtsJ8bdPwN0wp2EI66YuLJuYXp8J2XFhwg6E+nogozYZIicseHNIJUmKgO9g/rBziYlHppP9W94Z3rTIXicpi6i+qqnJaRBewkXT3/Oz/ZmkEwTx1sv3KsPUR5vUjoptFHe4XTXnxVPWsYC7po2ic7qt9jv79tNNOUNJT6InMNSSuNF3nLx+qvkRE2AWVmzuCN+Olktm1h9sukyD3tyUVO0lgP7M0m77XYmln3Evp3t2HNWsCI9CygHwPKXU3Ko+x1jJj0Kky9QZLyfQ6+8xHb/8M4HEN35qm/jNopfe4Gtzd37Le3I5C8fncP0rLeoqR1aeTk3L2ZseC9vPr+aw8Hu7Q43pfD0N2+lYMzb1FQRdb1Eez61rDCl23fRMm8Rc2fFc2x/B8bYTJk/D2/TbvaXRvxP9xMiHAZ3TOx567G2LMiPztjEdTnUh5RViFwLlFRcMYYzLRG/4J0OJX4X0yI+gYxYC9odqi2b+J7nQwFDMzbZXhhWy+gziA+AoKEyom1aH4AgkBwLXEJSYdk2oSPbKGzIILtkO5WuMdwx4PejveQj1paAsdx44jxYQLi1hS7GE+9lwNCSKLWfpra57ziaa+voYgKJXhjarPdMMjNjaCmvpN2yGJeVReBMJR2WxYSsTExDDWebxcnTbiTdHGPzvohWIwBBfDUDVkvq2MXGLav4s8VP8vWbU2lc9898UOy/pMZad+9+I42RvfvxmaS5HBpbI/abmE4KPg7tfZ+SzohtHT/1ob6Qu4fO2KTM+TFT5vRtZkwLB7b9K5sazz72cGN+AXHBQxyp6wL8tHdBYmwSkV9mrzedGOPDF1nvCZmk213UBpoiyneT5k2G1oao/hWMSSE9yYNprac5iu3PJykpE7dp6B/foPuL7nhjvZkkWInMWPC3zDj73nAb9dVrePvgwd4VdqItL9r4+iSTlhgDrfVcqP8+mvqzLMOpmlI6J8xjduwZdmzeNuRJ8EPn4IQdwGAccMLhnnjButR9t1dT20LE+aD+Es8HQzxfdVRT09S33/aaGgLcgDcVqB1aeWnpGdC4m5qI83Oo6Nf8y99YGIfLxjm+gYO1d7NwwULi9m2k3TWTmQVJNOzcyqlhTF63LItAuyFwBed7iMjwKKm4giKvfFuW4fVNwX6vWzZYKW5+dv/A9xmuxFLiF4uv55X+AwCGHZeNFTrEx891d50Zd965e0y/meWPPsLcSZnEuftG7BlTfc620TM4Ax4bYOi/gXmkZ0LjrtMYk0xWZjwNe09jTBrZmXH4K6p75x1kZ+dC43ZqI6YD2Nk5pFBHUc25XcZNFSdpvXcRaU3r+eNHJwgPOoygO+4LhZ0xWO++N50UmjgdcXUgMSkDj1PPqTNlnBq4ak/EvtO96Vimkt07NlDZb6MOmpoiHsbOY2aWh8DJA5zChcvVSnsQEmK9WMb0XiHJSMyEjv34Ii9U9PS+l/Yb859FWoJFZ0P9oEN6zpVJajw019VfYKWoi8tITIe2E/gudiEg2uP1pmOCJXy6ZzsNgON0EAjU0NI1YAdR11+U8fXKJjUB/A0Ng3+nekVXf+GGE1Q588iqXEeh3xkRk7OH7rM6HwzxfOU4/c+njoPB6vcxRluebdu9cfe+1zI44YudIYbHsqrYvfsEi1YsYk7yRnbn38q0hGq27Sq/4H4tun/bRGT0UFIxghgHjD/Ec0UO/YeMWzRcQlerYyzAGXBa7/7JuowdV58pY5JZ8Oi3WZh1hI2vvcppf1d37BNX8JUV6Vc7PEjNJcPTSnWNHyggI8tPfU0AmEVGJjTsPgV0z4vIzEyEiCsXAOk5ubjDNdT3v1CBlbKIRx67jc6y43DDPOZMe4NTJYMMcepqJ+hAWlwi0HLOy8a4SfcmQ5uv33KtScnZxJoG6iN6TTMSM6DjAE3nG7FA99CZtMQ06NjNsfoy6s6zQhRARv48xtgWTPoWP4gY6m4ak4gD2unujU9JjIc2X7+rD8neDFzhOhoix/zbWaTGQfMFVn7qJzab1BhDU+ulL8tjjJfUxNhzevXtxMlMSzNUnT5Oc0/LM7rj7fk8WndTWl92weQouvKij69XfBZpbmi+WL1EW3/uJOJtQ11zxbCSt5HOOAaw+/1rmIR8ZszKJVC8jUq/NfTzld2/vO7HfYnBUMpzHAcs+6pMlGzauZXy+55g1sLx+MfOJqZiDftquEBO4SU2HoId1+Zi6CIyOCUVI0hDpwE3NPocSnoaAsZjMTvFMFiHjtPTM3m+H5Gadgc8FuM9UNIzNCkv2SbGgbpr5lyeR05eDC171/Lp3tLeZ+My7zvvcX/WP65Wzl08/OW7SDqzlj+8vqP/8I7cHNI5w6EzQHIeGQm1FFcDyWPIiPdTXdtK9y9rInFxYPwRq7BYucwsGAsNRdRH9DIbdz53f+trTGr6gBef38n0//p3LPrcUj49+uG5Q0ucSurqYMq4yXhM1SAr7mSRmmAR9PX17hs7i5l5eYR9a6nsSSCM8ZCamAjtjRcZWpRGuteNCdRccDtjTWD2+GzCjZt45+CR3nklGZMeZ1m6Fy/0rHnvweMCIhbdMiaNqWNycHy7qIjsfU/MINXuosYfeTnkApLSSaWFI/4oJ2AMKp44D5iwCxtw6L6525QbH2FZ0m5WVx7vrr+oj/fs51F3wYQi+vKii6+fxAxSaKU0ELGM0WCirb+kdFJpproldOHtrnG+xnpIzSU7Hqp7VnuKnbaSB76Uw7b/s41KPwz5fBU3hpxUON7TaRSfk4OXFvpG/UVfXmOjD6bnkRMLDT1fGNfM7/D0N2+g8Of/nT+durTPJqrzaWAbe4u/yMOznmBBdgwVa7ZceBhc8g2MSYG6mlPn3cRYFjPHWaQbw5HTDnXX3H1ARK4/SipGkOMVYSry3XznZvjwtKHNbTEz38WS2DD/9Ilzdohtrwq/g8mz+cIkF0WdAIZTdU7v6kC+KofiG908vNCN+6ShPc7mvskWTVUhCqMeKnG1neJ0ZSfz5j/GquYNnPCFSMgu4KaCXELnmcRRe6YKM2s+S+6o4XjAAdqoPVJEXcelHXDWvKXMnJiHmXAPM9buYHvEZaSknFzi2mq6x2NPyyOjrZq6ADBtDOnUdicbADRRX9+BVXAfD38uTHF9DGNmz+fGJAvnVE3vVQRjkrjpy9/n9vTjfPDzt6kOGZo2FrHwy5/jzunree9o/2O2rGoOHjjNkmV3sTB7C5vrBq4uk0laHHRYKdyQMw1XTBbjJixkRsIptmzdE9GwzSHdC0F/AhNyp/cvo6ueiob6nmFcPcu/1tZecOhMTPYt3BjbTunBzZxq6Yu5MxCAnCQSoeeKTRvVTc0w8TaWT+mitM0mM3cJ87z17C0qoitiHy5vJim0U584g6lj+u+vtamYqgHLGsd7M4jDN7yVn/BxprEda+wS7rsRSv1hkrMXMj+nneLC7b0TV6M+3p7P42K9/9HXX3TxGeMhPXMSaW5wZYwhlk5cCdO5IQbaWko5037utcto6697u0aaLjbnJM3Fz5e4SGkJ8+ONoYjFJS6PxPGzGZfc3RROS48BdxrjZs4jBqCrlpNHT9MxhBh8e7Zx8p7HufeprxG/vZTWuHzmLZ0D5W9SVEvP+XSI56u2eG56/DtYew/SEjeZm5fOxKr5gCO9X4/oy6vZvZWq2x9ixXe/SvKOYwRixzP3noW4q9dw8PSl10s051PLCnJ4RyErnlrChPBh3t0TMWFtAGNs8u68k3HmGB/uPf92pNo8NcdFSmOIpyvPv5mIjBxKKkYQxx/mmZ0WX7/J5tF5Fq6QodoX5tlChyOD3Jm2+kSYV1PcrLrJze1uC2Mc3t0Q5FTPkBarw+HZHWGemGGzapaFp8tQVhniuSPh3smgI51lBdjzxn+Q9sgjzF76FWbb7fjKPmXdxi4eeWLKoO+p37iaj/O+weKVTzLXY2NMNZ8+U8SGwRbsj4Kv9ABnFmeSVFtE+YBJ4ZlZWVBfRB3gzckhoW4/tYA3N5f4tjPU9czJtqwgh9/7HYXJj1Bwz1eY0FzG/jW7qJoyDbuuqvuGdMYm+57v8+BcKHrplxT6uhvJbYUfsH/5j5m/fBlbjnwQsQJLt9oNb7Dvlr/gjm9+ndrnV1PSHNHtn5hJqg0p41aycmyYcJcfn+8AHx3Y2DNfoYc7g9RYiI27h1VZ/Y/R1L7Dcw09Q44Sskh1OzT4B6a4EdubeKZPnIandRd7zwT7jbEPdLaC20uiGwh332X3dMlbbIlZwaxJ95Nvd+D3n2Dbjj+xvynU770pSenYVgpTZ3yJqf32107xzoNUtfevl7TEdOg8SuOAjnZjLFzuGFzn+xcwYUKhEMaysKwwZcUvs4n7mDtxORPsTgKBcgp3f8zeujawrCEdb/fnEaQmcP6rLUOrv4vH1y2fW25+jOkxfWXNmPM4N5kgJYX/mzOD3Cr5fPV33u0ucqEiL9MmFSg+6Vz2hAIg/57v88XZkT9xadz9ZPfUeNO0nhf/YfWAOUEX0bCet15wce/Ku1j08GI8wSZqSn/PK+983Ps/OfTzVQnbN7Ux/8GvMjbZIXBqM2+/+R41ZujlOWfW8uoLDstX3Mmih5fgCTVTf/x9Xnu3r7xLqZdoz6fhkr0c71jCtGPbOXT2Au0AxrjIXPAkX7ozm/qNL1LYMvh2ANkZNmlAUUX4nHOeiIxMVkFBwTkDa7xeL4HAcO4WdXmN9PhErjQ7506++O2vMM3ro3zTal5fe+iy3HxsNDBmIkuXf5OZsefpSW3ewG8/3XAFVjG6fhhjWL4olq+lOPz7ui4KB+kkud503/yuhNU/ffGcG/Jdi6z8x/jhDxZT+dLT/OHgufO/TNJc7vv648yb5KV512/5zzd20HKeIU3GGO6+NZYn0x1+sa6rd4l1ERnZdKVCZBRwajbx+jOlFNx1P7dkZeEBBlu7SwDq2L/nd5Ser50SrCXKe+tJtGwX09OgocJhzwUWArj+jI6KMMbihgW3kNK2j/cPn+fSVlwmKaHDbP71B+woruldFW9wNlNTofl0mMLRPVVHZFRRUiEySljBaorX/ZpiuEaX9bwyLKsNn+/EhSekq/4+W+kWN7oMH5eH+262KKOHew5zZqXg37eVsvMkAVbdx7zxy7MPLvIdSLaZ6jFsr3BG9YpiIqONhj+JiIiIiMiwXI0lrUVEREREZBRRUiEiIiIiIsOipEJERERERIblmkwqNJ9CRERERGTkuCaTChERERERGTmUVIiIiIiIyLAoqRARERERkWFRUiEiIiIiIsOipEJERERERIZlVCQVlu3B7TrnxuAiIiIiInIFuK92AJ+FzOU/4XtLM2mrO8Ked19m/dHGqx2SiIiIiMh1w5Wdnf33A5/0eDwEg8GrEc8lCTaWU3H8JMG8xSy5Yzy+rTuoDVlXOywRERERkevCqBj+FPKVU1a8hXWf7KfTM4aczKsdkYiIiIjI9WNUJBVn2XEJxNBJZ/vVjkRERERE5PoxqpKKxJQkbFrwN1/tSERERERErh+jKqmIjY2DcDudXVc7EhERERGR68eoSiqaKk/S6prI1Llj8SbE44mL11KzIiIiIiKXmVVQUHBOq9vr9RIIBK5GPMNijIf8FX/Fl5flE293r/5U/s7T/HZTy1WOTERERERk9BoV96k4y57weVYtzaJm40tsL20g6EBHbevVDktEREREZFQbVUlF2rQZZJijfPLeZkos3adCRERERORKGFVzKkLhENgxeEZVqiQiIiIiMrKNqqQi4PdjrBS8yVc7EhERERGR68eoSirC/gBB4olPvNqRiIiIiIhcP0bFQCHL9hCbmMnkOVPwOLr5nYiIiIjIlTQqkorM5T/h+8vzMMF6Ste8RmELoHnaIiIiIiJXxKi4T4U7PZ88b5DG2hr8HeGrHY6IiIiIyHVlVFypCPnKqfBd7ShERERERK5Po2qitoiIiIiIXHlKKkREREREZFiUVIiIiIiIyLAoqRARERERkWFRUiEiIiIiIsOipEJERERERIZFSYWIiIiIiAyLkgoRERERERkWJRUiIiIiIjIsSipERERERGRYlFRIP8a4cNnW1Q5jxFG9iIiIiJyf+2oHMJKNH+NiUazD+yccWq3R36A0JpvFP/yf3DvOx+Zf/JT1lZd+zAn5y7h31d3cMCad2K4mako38sk766gImM8w4isj2nrJmvsgs71H2frpYdqvg++LiIiIyFm6UnEBY/NcrJxgk3i1A7liHELBEKGuLrqG0fY36ffwpe8+xlTrCNv/+BJr1hfhTP0iX/nmvaRZ115SEW29ZM9eweKFU4m7coGJiIiIjAi6UiG9LKueXb/8Ebu6H11yOenzFzPRPsjbv3qZAx0WsJOjrRn86PHbmZX5EZvqPqOAr5DPql5ERERERqtRkVSYTDfP3maxdY+Dd7LNfK9Fe7th86EQv691cHqGohhjSM1y89XpNjOTLNxhw/GqMP95OExluGebBJt/XOpmQu/wFTf//IC79/27Czv5v9Xdr82YGcNf5xp+tq6L0rP7yHHz/AKLDzcEeStgDSm+qTNi+Mk4wwsH4K4Cmwkeg6/R4c39Drvbh9bDb+Lu5hv/sIqmtdvIufMeEiv+wGsbkln5jWWkNe3i/V+9xBF/T3xzv8f/+Op8XGePoXULq3/6G8oGDOEZ/8D/4ls3H+btt0LM//xt5CZ20XJyF5+8+QZHfOHe7dLTMqG5hNp2etvgnYff4+3Xcwh09I/TO+V+7l1xO1PGpuMKNlJ/bCvr336fspa+4x3z+Z/x1IJS/vhKC3MfvJO8ZEPrqT1seOsVDtaGhlyeMRZJk+/l3pV3MSk3DU+ombrjW9jwzhrKmiO2i6JeTMYq/svfPEhu73MP8MNnHujZj8Ph1X/Gm/ssTNwinvjpk+Tsfoafv3UEc7ZMayr3/+S/MbPsWf519d7e7wJA8hg3fzfXxtvu8O+fdnEwrIRGRERERiZXdnb23w980uPxEAwGr0Y8lybBZtU4i4w4OHHKYWONwaRYLM+3aKtyON7V3Rizk1z87WI349oc3i11KGyGKRPd3JcKm087dFoWOFDXYjhQ5eCLs5lsHFbvD7OlymF3tcOBRoMv1F1eVraLJV74tMzBd7Yx6LV5YKzF8fIwh4PWkOLLyHJxZ7JFerxhd7nDrkaYmOdiWRbsODnEeR3ufOYsnU1m4DDbdjUxZvHdFMRXsGNrOUmzlzLdfZBdpU3d27bWU3OiiEP7dlHlmsrk9DqK1u+jccD+Uqbdy9y8DJJTGjm6ZT2HKrrInXs3t0zp4tD20t55BBmz7mdWWgV7NhcT6HnO6mqmvuo0LcG+Mq3cVXzrzx8ku3knWz/6hEOVneTefD+3TQ1SvONYb3lJNy5j/vgMUtLaKd3+CQdPtpE5604W3OSmZFsxrT2ZS7Tl2bkr+Nqff5ExLbvZ9qf1HKpoI2vuShbPtCjdcaS3vKjqJRyg6cxxSg/soTl5LuOcQj58aw37D+zhcNEejp84TUunBV3VBHPvYX5BHKc37cFnemKZspIvLEnn6HsvU+Lr/xEmZ7lYmWPhsQxFJxxOOUoqREREZGQaFVcqullUVYR4tbK7p3lrDYxZ7mJhrs2HZd3PTZ7gYmLY4Rc7Q+zq6fXdF7L4t9k2i2LDfBgEK2w4WN3TW50HuAz7q8LU9jYkL7Vhd/H4APAYtu8Jsban8V2MxTMzbGZ7YF3XUPfpoqZoLQf2Z5J22+1MLPuIfTvbseesYEV6FlDeHZm/nJJD3e8YM+lRmHyBIuP9HHrlJbb7LWAH5fZY/mLlbKZ417CzdWjRxSV3UbH9NQ699ycqQ93DpI4743j6oblMTVrLjkDkxm0Uv/YCW5u791vakclfPjqH6VlvUVM7tPJybl7M2PBe3nx+dU/it5PDTSk8/c1bKRjzNjVVRF0vVrCasn3V3Q9mPwmeakr37ohIPHoSHitM6fZdtMxbxNxZ8Rzb34ExNlPmz8PbtJv9pWEGfrdqy4L86IxNXJdDfUgJhYiIiIxcoyipMJxpcegbb+NQ4ncxLeIIM2ItaHeotmzie54PBQzN2GR7Ad/AMq9sfAAEDZWdfZvVByAIJMcCQ04qHJywAxiMA064e4iSMWBd6upE7dXUtvTF11xbTxcTSPQCQ0wq2ks+Ym0JGMuNJ86DBYRbW+hiPPFeIDKp6Kimpqlvv+01NQS4AW8qUDu08tLSM6BxNzUR9Rwq+jX/8jcWxhlqhUTPOb6Bg7V3s3DBQuL2baTdNZOZBUk07NzKKXPu52FZFoF2Q0DzOERERGSEG0VJRXdj+SzLMry+qf8QLssGK8XNz+4f+D7DlbgFwcXi63kF0//hCGNwBjw2wCBt4ouy0m9m+aOPMHdSJnHuvoXIjKk+d2PH6V8vjoPB6lc90ZZn23Zv3L3vtQxO2HA5K9yyqti9+wSLVixiTvJGduffyrSEarbtKr+s+xURERG53EZVUnExxgHjD/FckYO/3ysWDc1DL88xFuAMaA52N3UvY4f3iGccA9j96sUk5DNjVi6B4m1U+i2MSWbBo99mYdYRNr72Kqf9Xd11NnEFX1mRfm6hdv/yuh/3JQZDKc9xHLDsq7KectPOrZTf9wSzFo7HP3Y2MRVr2FeDcgoRERG5pl1X96lo6DTghkafQ3GDobjBcMgPLtv0u4pwltMzWul8lVTT7oDHYryn77m8ZJsYB+qGOBRoNPE11kNqLtnxfc/FTlvJA1+6n0m9N3HIIycvhpaDa/l0bxFlx45QfuwIZ1rN4PUdN4ac1L6H8Tk5eGkh0DT08hobfZCWR05s33Oumd/hr//5Zywbd+n30YgqWQlsY29xJ7mznmDB9Bgq9m6h5TxD0YxlUTDe5o5xFlnX5P09RERE5HpxXV2pOF4RpiLfzXduhg9PG9rcFjPzXSyJDfNPnzhnh+b3qvA7mDybL0xyUdQJYDhV53CqZ9Ksr8qh+EY3Dy904z5paI+zuW+yRVNViMKI6RMjXeL42YxL7m6xegOiAAAE6klEQVQKp6XHgDuNcTPnEQPQVcvJo6fpGMIcDN+ebZy853HufeprxG8vpTUun3lL50D5mxTV0lMvpzhd2cm8+Y+xqnkDJ3whErILuKkgl9Bgk0fa4rnp8e9g7T1IS9xkbl46E6vmA4703vMi+vJqdm+l6vaHWPHdr5K84xiB2PHMvWch7uo1HDx96fVSe6YKM2s+S+6o4XjAAdqoPVJEXUfEildWkMM7Clnx1BImhA/z7p5mzvtFSbV5ao6LlMYQT1eefzMRERGRq+26Siocf5hndlp8/SabR+dZuEKGal+YZwsdjgyyXGf1iTCvprhZdZOb290Wxji8uyHIqZ4Jv1aHw7M7wjwxw2bVLAtPl6GsMsRzR8K9y5deC/Lv+T5fnB35VUjj7idnAGCa1vPiP6ymcigFNqznrRdc3LvyLhY9vBhPsIma0t/zyjsf966KZFkB9rzxH6Q98gizl36F2XY7vrJPWbexi0eemDJIoSVs39TG/Ae/ythkh8Cpzbz95nvUmKGX55xZy6svOCxfcSeLHl6CJ9RM/fH3ee3dvvIupV7qN67m47xvsHjlk8z12BhTzafPFLHhTP8jCZfs5XjHEqYd286hVs6bLGRn2KQBRRXhc5b3FRERERlJrIKCgnPGVXi9XgKBwGDbi1xx3Te/K2H1T18854Z81yIr/zF++IPFVL70NH84GBp0G2MMd98ay5PpDr9Y19W7BLKIiIjISHRdzamQa9noaFQbYzFpwS2ktO3jwOELrRFsMzUVmk+HKRw87xAREREZMZRUiFxJ7jnMmZWCf/9Wyi6ULCTbTPUYtlc4OKPg6oyIiIiMbhr+JCIiIiIiw6IrFSIiIiIiMixKKkREREREZFiUVIiIiIiIyLAMmlRoPoWIiIiIiERLVypERERERGRYlFSIiIiIiMiwKKkQEREREZFhUVIhIiIiIiLDoqRCRERERESGJaqkwrI9uF3n3HhbREREREQEdzQbZS7/Cd9bmklb3RH2vPsy6482Xu64RERERETkGuHKzs7++4ttFGwsp+L4SYJ5i1lyx3h8W3dQG7KuRHwiIiIiIjLCRTX8KeQrp6x4C+s+2U+nZww5mZc7LBERERERuVYMaaK2HZdADJ10tl+ucERERERE5FozpKQiMSUJmxb8zZcrHBERERERudYMKamIjY2DcDudXZcrHBERERERudYMKaloqjxJq2siU+eOxZsQjycuXkvNioiIiIhc56yCgoKoswJjPOSv+Cu+vCyfeLt79afyd57mt5taLluAIiIiIiIyskV1n4qz7AmfZ9XSLGo2vsT20gaCDnTUtl6u2ERERERE5BowpKQibdoMMsxRPnlvMyWW7lMhIiIiIiJDnFMRCofAjsEzpFRERERERERGsyElFQG/H2Ol4E2+XOGIiIiIiMi1ZkhJRdgfIEg88YmXKxwREREREbnWRDWQybI9xCZmMnnOFDyObn4nIiIiIiJ9okoqMpf/hO8vz8ME6yld8xqFLYDmaYuIiIiICFHep8Kdnk+eN0hjbQ3+jvCViEtERERERK4RUV2pCPnKqfBd7lBERERERORaNKSJ2iIiIiIiIgMpqRARERERkWFRUiEiIiIiIsOipEJERERERIZFSYWIiIiIiAyLkgoRERERERkWJRUiIiIiIjIsSipERERERGRY/j8MrIbRXn3mfAAAAABJRU5ErkJggg==;" parent="1" vertex="1">
          <mxGeometry x="1056" y="596" width="789" height="170" as="geometry" />
        </mxCell>
        <mxCell id="1QiOH6tT_yfQtaS86Rcd-17" value="" style="whiteSpace=wrap;html=1;fillColor=none;strokeColor=#FF0000;strokeWidth=4;" parent="1" vertex="1">
          <mxGeometry x="1168" y="709" width="131" height="28" as="geometry" />
        </mxCell>
        <mxCell id="1QiOH6tT_yfQtaS86Rcd-37" value="&lt;b&gt;&lt;font style=&quot;font-size: 22px;&quot;&gt;2-10&lt;/font&gt;&lt;/b&gt;" style="text;strokeColor=none;align=center;fillColor=none;html=1;verticalAlign=middle;whiteSpace=wrap;rounded=0;fontColor=#FF0000;" parent="1" vertex="1">
          <mxGeometry x="1304" y="702.5" width="62" height="41" as="geometry" />
        </mxCell>
        <mxCell id="65vioNYkB3K--B5amISv-1" value="" style="shape=image;verticalLabelPosition=bottom;labelBackgroundColor=default;verticalAlign=top;aspect=fixed;imageAspect=0;image=data:image/png,iVBORw0KGgoAAAANSUhEUgAAAUgAAABrCAYAAAAVWxsfAAAdH0lEQVR4nO3deXQU153o8W9VL1rQihYkIYEWMCAJEGBkMJttzGJjO44zOLaT2MeenCTOG588J/POy0tysszLvLwzM8nMSV4yeUlm4viFjG1sxxkTW4SEfcdC7LuEhJCEdqTW2kvd90cD1tIlVbdaSIjf5xzOobtvVd36terXt27dqqsVFBQohBBCDKKPdQWEEGK8kgQphBAmJEEKIYQJSZBCCGHirkmQGzduHJVlR7Le8Wg04jTcOidaDMXEYR/JwrbMpTy+ZDKXd27heJM24nJmNm7cyObNm/u9HkrfsuESaJs3tzPUZxPdwO9muPetrnMod0tsxdgLOUEqZScrOw276yKXGwGTvGe13FA2b97c74AbmCxH84Dpu/5Aidrss5uU0pmUPpv5hdNIjolEc3fSUnOeE6eqaPeFEAxAaVFkzLuf4pmJOGjg6Hu7qPD2X5dSGlGpM5lfmEtKfBQ2dxdtDZc4fvwSrZ7A272ZmMwSVKD9G/jd3Fx+pN+J2fLS2hS3U+gtyKjp5KTaaD1dSbs2xIFutdwYGa5l2PdA7ZsMhvqsL1tKISuXzUDVnef0hXaM6HRmzi5mZZTB1gPVeIKMiXImU7B0CXOSfDQ0djAlJXA5PX4Wy1cUENFczrmyZrwRqeTNWsCqSfCnnZfoGrDdm3EIpTU48DOzdQxXRojxJuQEGTM9hySaOVblYqhmodVygQRqNQZKaGZJbuD7fV8PTG5DlTFbz3CtGaV0ps6cQUz7ebbuO4VL04BqGoxJPDovjyxnNRWeIVcxSEp+MbMntXJi52EqE5fyCZMEmZybR0JPJbv2lNFo+Ld7tcvJhiV55MRd4rSr/75YaSUPNNx3MVzrsm/ZQPUQYqyFlCCViiVnegJGQylV3Qxxem2tnBmzltpNZq25ocre/H+w9Rgo0DYHr9dGT8MFzlytvpEc/Tqvt+MmhUkxQGtQVaG36Qy7T1+myaPhSAxcRimd2NgoaG+m2cetuHuamnCRzqRYwBV43wb+sFhpOQ78HqyeYg/VPXE7u1GEMBNaCzI5l2lxXurODHOKaLVcCAa2LsfjQaRpHhrLT9E44P24pEScvg7aXMGv03W1EtewvzQ6mgYYCqNf3BUKDd02eAmzlt9wydIsuY3H70OIYAWdIJXSmJKdRXRvLUdrPJg1C62WG06gVsbtPihDHb4SiIrOoeieBDou7+Jqn7AopdDtDmwDwmQYHgwj9B8X5chkybp7mVxzkK1n+39mpaU4VPfDUPEOpUU5VCtf+jDFWAi+BWlLIzczku6qy9QbmOc9q+WCNFSfVt8WT7gPoECn08FuQ9mTmXt/ESldF9l1qmFA6y6Ke1Y9xryk/oGqO/IOeyuNUKsNyofh82EYBgOfShJs/YM9DQ4mZla6UoS43YJOkI6sHNIdHVyqakANcdpstZwVZkN8AhmvB5LSY5l5/1JmRzbw0fYTNHsHxqSXK2W7aBnwjfS6+nQihkDz1nHkw/f9dYiMG/R5KIPgrbTyrLYYgykvxO0WVIJUysn06WnYrp/jcgtDXJyxVm44wZ7CjmZLw+rVcxh8sCsVSdbiFcyf3MnJHQeo7Br8hDlNU3S3NtI9+JMQamugFKBp6KpvP6SGhvJ/ZlLXm6zEcqgr3wPLDdXCtNKFIclUjIXgWpCTppOdotF8opKOoVqFVssNY6iWSqBTsNHqhzS7Wm1lvJ9SdqYUraB4qpdLe/dwvm0Ep8sWaZqBy9UNGUkk2S7TeGOTjuRkYumiweTiUCh3xYz26e/wIwWEGD1B3Ysdlz2dRNVIZVVnWMqFy8C+x+ES6kgEu67onCUsnRlHZ3U5DbZk0tPTb/1Ljg7+VnhnYjpZWVlkZWUxNSECiCBx6jSysrLInBx1q1xTRTnXI7MpXlHEjGlZZN+zgJULpqI1l3P5enD7FSimA5cdaj2BrogLcSew3IJUKpHsrAS81w5T3csQp9fWyoVqNFosVg5cK3eaBKpbdFwsTk3Hmb2Q5dn9l2s69j47LvYEVdf47IUsmRHd773c4iXkAr7qg1w9WA2A0XaevXsU8wtzmL0wD4fRxfVrJ9hz7AKdAe6isXI6beU0eaTfjVyQEeOJ5QSpp05nWqyH2hNX8Q5x2my1XKiGug0w0P+t3C9t1n8WzIBps3U3n/iQzSeG3KWgNJb9kc1lw5fTNEVP43kO7Tg/8JN+r4K5c8ZsPwe23ocbZTDc9xFo3UKMBc3KnDRKaWTc9xjLUmvZ9cePaFTmYx+tlAuX4Q6woU73Rnvbd7Jgxi2C+XAeK32aQyXM0fz+hLDCUoIUQoi70V3zwFwhhAiWJEghhDAhCVIIIUxIghRCCBOSIIUQwoQkSCGEMCEJUgghTEiCFEIIE5IghRDChCRIIYQwMaETpHIkMS0vA4eSuymFGM9U9DSypydiG8VjVSkN3eFAD2IbIc+LPZ4pFUn60qd5/JFlpDW+w49+UkOg6aeVUjh08I7yQzVCpZQNu83AZ0iC70vicnvc1jjHFrH+bx4lumo3JW++xZlGb9hWrbQU8h//LKsXzSAh+grbvve/OdRhbVlbamrqd4PamNIonmvn1SI7z82x8dQsOw86DUoaQql6+CnlYOqaV3l+Qw4te37DG+/uo80XqJzGo8sdfKPQhq3ex9nekSXJrHQb65OhslWFZYpbpVK5/5Uf8MIn78N2fgeV7eMjiStlIyJ7HTPXPkPe8g1kFSwiLs5NZ20NnhHMvmh9++MzLsFQejxJy/8LRY8/TXZxHr3HDtM5IHZKaTimrmbG2ufIW/EY0woXk5Ck01VTids3AePccZEzpxuJzl/Lw6tm03X2CLWd4UnM8cu/zAtr0qjZ8RZ/2nGAyobruC02ioKftCvDxuezdc6c9fLGjSzc2xnGaQtHyJb9JE+uzeTahz/gd9trBswc2JeBx6fh9SncYdju1Awbj06CnZcNwvMcdQOv24vX48EzjhpKtozHmffoMlTVTqqOX8OIyydj4XMURnko3VqGbxSeAdrf+IyLVSpqBtPXPk9WuofrNU0kTg1cTk9eQ8ET64io20f1rip8UXmkLXySubGK0vd2455gcdY0g+7ag5T8/BreV77OmqfXUvHjD2gJw34mTUnD1lbK7m37qdU0gslVQSfI1FiNCJ/B3ks+SvtMBjUeKGVjzqqVJLXs5fc7h0qOoGkafz7o5s/+V7eripZpWhNHfvEqR/yvxrg2fkrZmDxvGZHXd1L64Ra6lQaUct03meL7l5O8s4z6cPzaDGG04+JMK2RK70mqW0cn5vGLP0tWfDWXf/9b6lNeZKlJgowtXEZs9xFOvP8O7YY/zs0d0RSvW0Za0m6utIxK9W4Zq78/zVPJzg8OMP+vH6Q4r4SSipFn597eXnA6iQxhWUsJUikNp8NfOMrmf8/h0Lk5A4ryGfTcaLIqpZicYue52TqzYzWcHsWVRoM3z3i55Pk40CrZzs+WaOw/ahCTp7MwRqO7W7H3tJd3G4whk5u5e8jJi8B1rIw6s4f6ptt5bZGOfmP9qtfLP231cmrA9mbmO/hmpuLfTsCqAp1pTkVLq8Hbxw0+6vZ/aSpa5/sP2Zl2a1k7//iE/VYcPirt5f/UBbcfquhLfOszC7HdrF/nPjZ9+9dUhPhLqtsjsdsDLevD19uLL6j+1wjctbu4Ul56Izn69TZdw8tMouKBxv5LxKXb+U6RTky3wU/2eDgV4ulhuOMykDNtMcvWbuDewmhO/Py/Ud3qfz+88QNPzVZOHN6Pq0fDlhK4jFJ2ouLioKmSvrP+euuq6KSAyARgQIIcqzgrNZvH/+6rTDv0fX72wRXz9VosB+A9f4yK3mXkzMqCiqHLWtHR2QFRcUyyAUHOmWetBenQ+ep6G/l9gvTyI7Zb/79+2c1XTvmThi3Wzn8ttpHQ6uP9k4pup8ZDM2z8bRR884CX5gGBLsrRKK328ZpPIz9b57F7bbh2GWztCm5H/BufTGwUtF1vMi/T7OPHRwx0ICXTxjNJQ61QY3W2weELXnY5NB6eaePle+Ebu73Uaxr0Kt4s9RID5ObaWRtpsOmMwc1JA5taQ9iH8hI2v3YQDUhc9Bxr8kJYRx9znvtnPjVv8NeslIvS//sqH1yyvi5N66L95BbaB7wfnZ6F3VtPZ4DJwCIiNeJs4IiA2JHksjDH5aaPE2MKPRUH2PmLDygt51ZSCmf8ALrLDzB8i8yOpgHK6D+nvDJQ6GgBxp6M9zgHxWikvQ3uSUgERp4ge3q6QYsgwgkENwWUxQTp8/LGAYNJQHKmnZcy4J3DXspvfOzt/rgPclqmznTD4KeHvRy58StW5tP58Vyd4ij4sF8FNWqveHmj2p9c99dD+hobxWk6W0NpWjsd2DXw+cyvgGluRVm9f925iTYYKkE6FQePeilx+/fjDBo/zNeZ54RtHtB8ilN1N+qZAdgUx2t9NIyg60FzVXLhtP//6TkbYYR/oJe3/guv7w/cAmq/OrJ1A6iY+8mdl0HP2T/Q5GbQLjdUuHn1mk6kx6DJG/qRG+64OKcsZtm6DdxbkER3+X62/+uPKKto85+59ElKox2/4ShnEbOee5b4yt/w0WHzcuM1zqHx4vOB3RER0tJKadickdhtYItIIf+eDFRLKbW9wa/LUoLUlEZVsz8RZCUBKGqbDM4ESASpURp0G1R7P37b5TJoRyclmgEZXHGtvc8Fnl6DCy4bs8bL4CO36jczY1MHuIG4CAg4bmgc6qo/T2W92acjOz1VjlxyNjxJQuceThy40L+1c3MLmkZHt6JjnPSj3jRz3Yvcl17GX372Q0or2wclxptGM36WKB/K8GD4AgzF6FuT2xhnpXTsERHYdAAnOqDZnDgj/Z1uytODx6cslwu/FFa88n1WZfhj4eu4yF9+9Ta1IQznC3sq0nVADTjVV6DQAv390XfMpqYp3to9gl5+Q6EI55+thur/8o4T7j60m5Q+hYxHXiIz+iIX3n4Pl+fOCk5L9WV6C+7lwaedxG7fwv6jlbf60fsarfhZpXlOcvH1kwCo6LRR3ZZ183jiu19mrrPPvq/673x9lf+/rgM/5J/fORdEucE0/P34oWnh2OYfURWhYYtIYebDG1n15MOc/0lJ0FfFw54gjRsNwn7dJJo/1Yz6DS2ebtwGJEZOgkE9ZXencPehASgtjuTVXyQ3rYnK3/+aBtedN96mbsc/8uPj+RQ//DhLnv4Gi1ef5KPtW9hfernfBajRiN/wvP5jRdPRlPq4Za7pt+c4GtZF9vzqR5TpAJksef5pUs/9lv887B8M7bteFWS5gWKIiAJ3T2gD5jTNS1v1OdoAOEt13CIWP1VIblQJLaPSBxmEhm4FUzQybXDtRjMyJlYjDmiwOHo9ZEY1jY0wIzMPp6q9DWPF+mw60A/DOBDuPjSlIklY8SVm5bmp++MvuTrMHQ9K0yjM1JisFOdqjFGfCjgYvpYzHHjrDIf/fCNRbvwf3Lu6jJJf/SvHm/31HIs+SE3z0t3eDtnZxNoO0H7jOLKnT2cSrbS1DV7mdsZZ0zppqjhHE/4zwEIFk69XUnnpSkjlBonLJT0eGuvDE2Cn0391xhNCt1jYE+SVqwZVuTY+e5+dhCqD3kgbD8zQcTf5ONynP280aFodp07UsGz1KopT97G3cfBPbXy8zowbA6JSJgG6Tl6ajQgAn+Jso0FXCIn1istAZeg8nmPjZC+A4mqjwdUgO8wnZc0jM86fZhMnO8CeSGbhAhwAngaqztfQE0T9wt2HFpH/PHPmTaH3/Htct+cwOefjzzxNZ3G5BvSVJeh8fr6N+FYvX6sOaZNA+OPSV/9E+SBxcUCz/7Nwx8+eUkhCvAMAPSUGgJi8hfi8oFwVNNf7s5/r1D5cc9Yx+3E31eduDhSfB3VbqG8MsOk7IM5WKKWTsXIlmeoSW8vaCEfCiImJgZ5GOvtcF7Eq7AnS5/LyL4fhudk6n5hv84+DrPfxT2e8YRkVP5yGnZs5du9XWPHC52j45SYuDLjPcM4MOy9n9K/HU8X+PwjV7ePvtxlcDGG7dZd9vBFvZ8McO8vtGkoZvL/TzdUgW83ZD7484JQukQdezPfX7/oOXvufm6gOoX7hEpE0BYdmwzH7UxTM7v/Z9T3f5uTx/l0bqUk6icDJKz5aR/D934643EyUo/krHp2/kTlz4/u9l/HwC2QAxsXfsG9rGQBG0zZObzHIve8+pq1ais3Xhqvqj5zatyNgghqrOGvaObZ85wvDrtdKOaVsJC9+kb9amUrTrtcobScsX0V0VDR0dxHKyEGtoKBgzHs0wk2fspJPvfQss2JaqNy9ibdKTt/W023hp5TigfsieHGywU+3eW4N+xLhNRHirGKLWPe5Z1iQE0Pbkdf53eZDtIepmyB5zbd5+WE4+Nov2H+5he7uXss3ogT9sIo7geqs4vThozSTxNTkXi6crJQEOSZ01hTaiK/18us6FXAYkAiHCRDn+EIWzerl9B/+jfd3nqc7jK34ztpr2HKXcN9Dj7DsoVn0HNhLjdva+idkC/JOteapL1sqt+3dn41yTcJDxdr4h1U6x/a4+Y+20P/gJ1pcwk3iPDylbEQlpZOcoNNWVYXLYitbEqQQQpgYb6NShBBi3JAEKYQQJiRBCiGECdMEGRMTczvrIYQQ4460IIUQwoQkSCGEMCEJUgghTEiCFEIIE5IghRDChCRIYUo5kpiWl4EjhCe0quhpZE9PxDb2T3cVImR3dYJUyoZNvwNv7B9lSkWStuR5vvCt/8ULjxTiNC03RPxii1j/Nz/gK698hvyU8TLJkBDBMX2aj9PpxO0e5VngwyT9sb/nq194llVrn2DV2idY+UAa9X8uHTTFbF9KpXL/Kz/ghU/eh+38DirbR5YoU4o+wdIZGteqGvGO0dNUVNGX+NbXHoWjO7nSPcS+D1FOKQdT17zK8xtyaNnzG954dx9tAeaLGjZ+HRc5c7qR6Py1PLxqNl1nj1DbKa1JcWeZED/tzUf+H29e9j8mPG7BM6zPt7KUgdftxevx4AnDcZs6bz33Jxsc3XOW7pGvbszYsp/kybWZXPvwB/xue80Qz80bOn6aZtBde5CSn1/D+8rXWfP0Wip+/MFteWiyEOEyIRKku/4c5288Fj8l85OWltG0Jo784lWO+F+NVtXuKErZmLNqJUkte/n9zqGSo/X4aZ5Kdn5wgPl//SDFeSWUhDLfuRBjZEIkyGCooi/xrc8sxHbj4Fed+9j07V9ToQ081bSRuvgZ1j+0gIykWByqh46GS5wo2cSO080oTUMlbeCLX/8EabeWfYJXfvjEjeUNzm76Am8fCz75xsx4hIfXL2fG1MnY3K00XdrPjj/8kYr2j5OLUk6mLHmGRx9cwJQ4aC//Cx+cMgaty2o5v3vIyYvAdayMOpOnOVuNX1/e88eo6F1GzqwsqAg8YVNcup3vFOnEdBv8ZI+HU3fgU7HFxHPXJUjKS9j82kE0IHHRc6zJMymX9ghPbVyB4/T7lJTU0KPHM7V4A8uef4HWv/sRZV2A6yh/3tRIFJCx/CWWxB1l6wfH8E9WqWi7HHz1tLQNPPf5J5hUvZO9b5fTEZ3DotVP8PTzHn7RZ15fe+5TPP2pZdjLt7N9WyXuxELuX5KJQf9ZBq2WA8A2mdgoaLveZF5Bq/Hry2ikvQ3uSUgEAifIiEiNOBs4IiBWcqMYJ+66BKm5Krlw2v//9JyNYHKA62lZJOtX2bVlC8db/EfsuXMnOZUcSdeNa1eau46KY3X+F/NeBGcdF8sO9Zk0KfgjPTLOw5WDb3J6y1+o9mrAYcqNTL72ZBEzY0s4dGMSsIx5RST2lrH539/gnEcDDlFn/x5fzOy/PqvlAHA6sGvg85lP5Wo1fv158fnA7ogwLdFQ4ebVazqRHoOmIGeCFGK03HUJ0iqj5jL1RhGLn/kMviNnqL1aRc21Zhquaoxmn2X3hT9RcgGUZscZ6UQDfJ3teMgiKga4kSBj4+KgtZYG98fVabxWhyK13/qslhtrmqbR0a3okP5gMY5IgjTTuI13Xo9k9YOLWfFXDxBp0/B2VnP2T6/z/t7LozaUR5u8iDUbn6IoJ5lI+8fDVJWq619O0wBF30seBjDwEojVcv4P/OVGY880/LPvCXEnkQRpQtN8tJ5+j7dPv4fSo0jIyGPOg8+y+hPP03The+xpDP82lYpj8caXKE45x64336DG5cEAmL6eZ9dPHlDWn8r6JjOdwcnNajkAPN24DUiMnAS0ByoRohgiosDd0xnGdQox+ibcnTQ+nwd024hbQVGZ8ymcn0eMUmhGN21XT3HgT4do1pJJSB5c3jAM0PRhA6pNWcVTr3ybFzYWEzeoRZXBlAwH7adK2FN2kopL56i8dI5rnWrQel3t7ZCYQWqf21xS0tIH7bfVcv6dqKaxEZIy83CGs7UXl0t6PDTWXzUtojSNgiydFZkaKZq0NMX4MOFakNevXKHLtoDFG1ZAVYf/VLK7lvLyeryaxqSseWTG+dNN4mQH2BPJLFyAA8DTQNX5Gno0DZW2nA2fnkl97hZKLzXhtsUzdfFykj2VHAlwnDdcq0XNXciyFfWUdxhAFw3nTtLY0z8VpSx4iMLpGahpD5JfcoiDrr6fXqWmupcFCz/NhradXG7xEp1awJyCNLx4+q2n9uRxri97gHUvfZrYjypxJ85l7txIDDpDKgegaXWcOlHDstWrKE7dx97GwYnKavxuUkonY+VKMtUltpa1YXoCn6Dz+fk24lu9fK3avJgQt9OEuNWwL6OpnGtkk7/0ARYVL2HugmIKpnZy/MB5ejSNe578LhvXL6FwQTF5U6LQ7ClkLyimcEExBXlwcfdJ2jUNT81ZanxTyC1aRlHxMgoLZpDoraT03U0cuNoFA/ogu6qr8UyZx/ylKylacC9z5k6nu2wHlR39y/WqJGYWTEOv3cuefRf7XZTQNDd15dXY0/PJX7iEwsJ7SDTOsfOgi9lzJ1N74OP1GS0XqOpIICt/MXOL5pGuX2THR24K50yiau+uW7cQWi13U2d1I/GL1rF4biINp0/R3Ns/SVqNH/jHkiYvfolPPzqTjl2/ZMupVtNJ7VMz7TyRrHHqgoftI7ztU4hwMZ0XOyYmho6OjttdHzEO6FNW8qmXnmVWTAuVuzfxVslp3EFelFKxRaz73DMsyImh7cjr/G7zIdrNBp8rxQP3RfDiZIOfbvNwRAaJi3Fiwp1ii5Ez6nfz1g8vUrDqEe5NScEJBH0uEZlMvPcse//9Qw6dqR/mqr/OzARoq/FR6kVOr8W4IS1IYdmap75sqdy2d38W1HpVrI1/WKVzbI+b/2iT7CjGD0mQQghhYsIN8xFCiHCRBCmEECYkQQohhAnTBCn9j0KIu520IIUQwoQkSCGEMCEJUgghTEiCFEIIE5IghRDChOUEqelO7DZ5Tp8Q4u5h+WEVyWu+yZceSqar8RxH3/8tO863jma9hBBizJk+D3Igd2slV8qrcGfcz7IVWbTsP0SDzD4nhJjALJ9ie1sqqTizj23bj9PrTGdKgGkHhBBiIgn6Io0eGY2DXnq7R6M6QggxfgSdICfFx6LTjqttNKojhBDjR9AJMiIiEnzd9HqGLyuEEHeyoBPk9eoqOm3TmVk0lZjoKJyRUTL8RwgxIZk+UdyMUk6y1/8tT6/OJkr3X8Wu/M+v8frucE40L4QQYy/oSbv0aY+x4aEU6nf9hoMXm3Eb0NMweI5lIYS40wWdIBNn5ZOkzrN9y14uBDkVqBBC3EmC7oP0+rygO3DKhLFCiAku6ATZ4XKhtHhi4kajOkIIMX4EnSB9rg7cRBE1aTSqI4QQ44flE2VNdxIxKZm8+TNwGjJQXAgx8QX1NJ+X12Sg3E1c/OBNStsBuUYjhJjALI+DtE/OJiPGTWtDPa4e32jXSwghxpzlFqS3pZIrLaNZFSGEGF9kygUhhDAhCVIIIUxIghRCCBP/H15WjF40JlPVAAAAAElFTkSuQmCC;" vertex="1" parent="1">
          <mxGeometry x="202" y="237" width="328" height="107" as="geometry" />
        </mxCell>
        <mxCell id="1QiOH6tT_yfQtaS86Rcd-6" value="" style="shape=image;verticalLabelPosition=bottom;labelBackgroundColor=default;verticalAlign=top;aspect=fixed;imageAspect=0;image=data:image/png,iVBORw0KGgoAAAANSUhEUgAAAisAAADACAYAAADFsiNAAAAgAElEQVR4nOzdd3xc1Z3w/8+ZGZWRRqPeuyXbcpEt29gY29gGDBgDxqaEAKGGZEM2DdLY7G422SRPnt2E7IbUHyF5IAkhBAjd2NiAe5Msy5ZkNav3Xmakkabc8/tjxtLIdUaWkeyc9+sFL2t07mm3feecc6/EvHnzJIqiKIqiKNOUbqoroCiKoiiKcj4qWFEURVEUZVpTwYqiKIqiKNOaClYURVEURZnWVLCiKIqiKMq0poIVRVEURVGmNRWsKIqiXAZkQDRpWUkESPW2CeXSkiFpZKRHor+Ex5qUAl1AADofyzBcspr4QEpJgA6cUkxlNS5bqv8UcJ/0gQYNh2tyjoPJzu9KMVX9ImUwidd8ittvWUlC5+v87BfNOM6a7sq4Hkipx6DXcGkqKPP2ifZLWB7rv7SBkPrdbH3lb5zodE5a1lLEMvf2z3DDkmwiQhrY/v3/yyHrhbcTU/VSOCkFG1YZuDcc3tlr5/WBT+YES03Uc02Qxnu1GoPi8j2pJ9J/MtHAC0sEb3xk5+2hy7ftn4SYdXnsvDfqzF9Ije3Pf8yThye//3LvXs7LN4eMfTDSytf++QQ7znOcSmnks08v5an0YZ7770M8W3dx9fI1v1nLMrgtrJff7+ij/xz1i8pK4ht3pbI8JYhQu52q8mZ+/koD+ZbL79ibzH7xr9wAkm98igdvjKH547+ydWchXcNnXrIn+3o6VddJKeNY8eV/Z11KD3t/9V0+bpx42SEZN7Du1rXMSIwiyNFHe9UuPnp7Ow3Wyy8I8rVfYvPuYIGpgv17yrBdxH6TUkdI8jJW33UvS6Mb2PqbZylod004P2/mVd/gSxvjqPngDQoaWmivrsPiwxeAKRxZcX9Dcbok9k+w1OQkPRtCYWetxuAnWO7km5r++4ciB/jLc3UcHvelQtJWc2mKq91XxtdOBgAQv2wm/7LAl60kdruG3aExok1GLXzLL3txBo/Fwes7+ug/Wy4xifzsa7PJamri93/tozcknDtvyeJXT0ju/kkjDZfdt//J6Rd/6TM2semmFNre/zF/+agZ7Zw3oMm9HkzddVLDaXfidDhwXERMIaOu4+7P3Uts6y72vVnFYMgMFl13F/c9LHnu1x/Qe9kdf771S9yC9ayI0SjcU4btIkoTQsPWcpCtv23D+eWnufFTN1Hz7BZ6JiFwjY5PQN9/hN3b99MiBOBbnlMWrAgh2HHQzg73T1NVjcuW6r9Pgp3KY53scJzev5emv62t/exodf97VvoMn7YRYpg//89e/jxJ9Zqs/DKuTuIqXRf//mwlb9gE0MmHg0F8/GgSt8c38qu2i67qJ2qy+9kXUuqZs2Y10T17eWPn+QKVK+d6IEQX+c89Sb77pwnnE7V4Bem6Et56/s8cHxbAYSoGo3ny06vIjfmA3Z2TVOFPyGT1i9/lOurYueUACz97HcuytrK15uJHpUZGRiAwkGA/t7tgsDIjJ4Dvpmn87iisytWRFSjoG3Dx5nEn+61jnSZjDPx6uWB/oYYpS8dik8Bmk+wtdfL3Dm30RHNPRejQnfp5xMlPtzkp8ToRpUHHt28yEFrh4D+qxzpHSsFD6wJY0ePkS4UuXJ5twqP13JejI9csMLgkrd0ar5Y6KR32lBGi44fXG0gbLcPATzYaPHlKCo6M8MtWMfpzRKyBB3J0zA9z51fd4uIvZS4a/Zyr9qcdUkqiYg3cn6MjJ0wQ6JA0dGq8csLJSa+bpS/9d6odaWkGHp6pIy0Iurs1XmyFiR5qUkri5mbw7c1JrEgOImDERnFhPf/1t1Yq7GNlL7r3Gv50dQ//9heNu+9OJCfURWtNO8/+qZrtXeP7YNbKbP5lfRzz4gIxak662vp4+60Kfl40gvS055rPrOB3uZ08+K1Kjp5qc94cCr5o5k/fO8izLZ7P5s5m/9eieOcPtUSum8F1iQasXb289WoFvygeGTv+fGyHb30SwN1fuZrvz+jj6f8o5l3P0HvidQt4874wdv7mEN8+6h6Wyb17OS+v6uU7zzvYdF8SuWboaujg13+u4p1W//eKXDaP44/HoT+13web+cJXy9l7luMgblYa37gziWXJQYQ67FRXtPKrVxvY2yv9yk/GpfH3H2Yxe/SzGbz3vCeoOm16LC3aCH29VA4xem21HK/nOy8a6Rwa35bY2Wl8Y1MiK9OMBI4MU1PRyi/+Vse+3rGy/ek/X/Kbin6Rxnh++5O5zD5QyLo/940dk8LMd//vEm6uLGbt8504R/OZRWZWEJaio7SeYyTA1+vBzLkB/GuK5PfHYc08HWmBkp5ejdeOaRTY3O315zrpCxm8lod+cCt9Ww8Qv/o6Qhve4JWdZjY8dAORffm89/yLlFtOndNf4N8eWDzaz3JwHy999/9Rc1o7Ujf+mEeWlPHW604W37achFAHA/X5fPTaq5T3jE1TREXGQH8lHTZGj7+Rsnd562/xWIfH19OUfQvr1q8iOzkKvb2XrpP7+fit96gZGDsOEm/7EY8vreLNlwfIu2M1SWbJYFMhO19/mZIOp9/5SSkIy1rHug1ryEyIJNDZT2f1Pna+vYWafq90PvSLjL6Vf3r6DhJGP9vIl5/Z6ClHo+ylz/NakUAGX8P9332U+IJn+Pnr5aPXWClmcsu/fpP5Nb/mZy8dPSModlYUUTOykszZqVDTcM797SvroBWMZkL1gB+jwfq4uLjvnS9BZIyeNRGCmBAoqtM41CtJTNBzQ4KgqF6j/9SREKLj1hRBdDDUNmnsapfIcMGNGYKhFo3qUzdcu6ShR3K4WaNGCOaHSPZXa3R4d5BLIzDKwNoo2F/nNWcaoefhLB0nyh3ke9ZciDA9/7pCT8qw5N0KJ4f7IS1Zz82xgsMNnm016ByQHG/R6AnWkSU1XjrmYl+LRkGrxvFeSY/TnZ8uTM+/rDCQMqTxTpXGkX7ITjdwcwTsbdYY8WcYzI926MMMPL1CT/KQxrtVGoUDkJWm5+ZowYFGbWz+0Zf+AwKiDfzrUj3mfo03KjUqnYI1qTqig6Gy1kXFGaMF56dLTufFb84gu6uN373XxIeNkoWrs3goY4i3DltH65c4P5U7U4OIjxjmw4+b2FarMWdZCvfmuNi2u4++U/VMSuf3X0sjoqqeX7zbxNvH+umLj+fxm8Lp3N3GCU/gkLoglY3xQ7yxvZu2U9smxPL5pUEc39nEoVPrH2Jj+OzyUJLD9ZQcbOS1Y1ZkagIPXB+BNb+VY55+9rUdITMSeGSeZP9H3dTqdQQGeP7TgcMpQQiE0DhRPsKC6zK4I97K60cGGQmP57+fSCei6ARffNcyerzEz03h7nQjidEOdu1q4v1qB5mLUvj0Ati1q5eu074tReckc2+Wna1bOs+4YANgsVF5sodt+e2U6MNZEWPj3a1dNJyWVp+UzvPfymZOfzsvbGlia62TGUszeGwR7NrtVa4v+TkctLT0s7uwg7bwGBZq7fzXS3W8XdjB9sIO9lYN0ub5gjBjURoboi28+mEvnZ48hMNOTeMQbSNjeYqUdP74rRnM7O3g9+82sq1eY87yDB6c4+KDPf2jx4uv/edrflPSL44hRpKTuSvPQOmOTuo8AYg+J43vXx/Mx69V8lGX986bzVW35OEqeZuiunMM6vt4PYiO1bPaLIgySgrqNPJ7IT1Jzw2xcKje/+ukTwwZLLx+ATHWMg7k95G4Yi3zjA0c2l9H2ILryTGUkF/V50472EV7bTGlRfm06GeSFdVJ8cdF9J7WjvDZ68hLisYc3kvFvo8pbXCQkLeWq7IdlB6sGj1/o3NvITeygcK9J7COHn/9dLU0M+D1pUQk3MojX7yDuP7D7P/gI0obR0hYcgvLZ9o5cejkaH5hs25gcWo04ZE2qg5+REn9EDG5q1k6x0DlgRMMnjr+fMxPl7Cez3zxLhIHCjjw4ceUNgwRm7eBFfMFVYfKR/PzqV9cVvraqqk6Xki/OY8U7QjbXt/CseOFlBUXUl3bzMCIAEcr9oTrWDwvmObdhfR4jj9d9gZuXxlFxbt/prLnLPtR6km+ai2Z9mL2lbT7vv/PQSZexaq5gdTu3k+LH8eTb9NAAXDomIMtNnfGhU7BLxbqWBwK9eNW8QpaGpz8tdEdGe5vh8Qb9SxL0LHNM3wk7JKj7e5/z4jUQ/SZxQkhONwieTBPx3ITvO2ZNM1O0hHtcPFnryG8kCBJVb2TA2UuqjQBuDiuCX6ZK8gLgm12EC5JyalvX0mAXnKsxeV1Qo91WFaannSXxq8OO8n3jKQUOQX/u0DHNUEutvkxIexPO9JSdKRr48s96tLxbK6OZUZ43/NtwJf+A5iRoCPWqfGr/LH8anQ6fhDue/29Lbw2iRxHJ089W8UHdgF0sGvEyIf3J3NreDt/HPBKHGLn/T9U8EK/O90hEcr2u6K5NqyeOs/xoks1kSms/Pq1ev7e5a7f9uJutsQG0DsysTqCgZN7yvjJPvc3rHePa2T+ZCY3LQrixQ/s/rdDxPCdn63hO95F1J7khh/Vc+qUFQPtfPfVWN54ZBbf2DfAvpUzWe1s42t/6WTg9CDD6GTbi2X8vsdd7sfDwex8KJYbEmooa/WvpWLAykdF7s7Mzc4+Z7qcaxLJdbbzjf+pZKvdPR2ztTeQPU8kcEtqLeUNvucn7EPsPewZFlk8F4KG2H2onfqznEe+Mps1ju6u5L3XmjnqcNdvrxbK7k/HsDq8gTrv/eFD//ma31T0ixCSj3a30bEsiU1LDOw87EJKwbVXxxHT28EbZdr4PgwMwCDA5Tr3kxi+Xg/c+UkOFjo97YUTCJ6Zq2NBIGx3+Hed9J2e9uKtHD8WQ+TyVaTXfEDRYRu6hetZHxUL1LlzttRRWereIjHzHsg6T5ZGC6Uvv8hBiwAOUadL5qsbFpBt2sJhPxfYBJsdNBx8hdJ3P6TR6Z4uqtZS+PqmPGaGbR3/lErwECde+T37+93lVg3H8NQ9C8mJfZ32Dv/yi1+ygmTXUV773UuU2d3pyvrC+frDVzMv8S3aW/C5X4S9lZoizwmw4FEIbKXq6CGvgObU8eei6mA+A4uuIS/XyMljw0ipI3vxIkx9BRyrcnH2fezE5QJDQJB/neshpUAfGIxBD/qgWObOSkL2HKHFz+u8b8GKQ9LoNZw7OCDpRxARDIwLViRtA14n3IhGpUXP7AmsjBlsc1HqMrA0ScfbVRIpBcsSBYPtkuNeRQx2afyxC6QEY4BAAC472BGYAsHf1WbRQQJsGq1Ch9FTb6dV0o+OOBNwtshzEtoRZ3SX2+gc+8xi0RhAR2wIMHyOAs4h0pNfg1d+TRYNOcFX6ySEB0FXO7V6Ayaj+zN72xBdIo7UBMD7pjI0RFXfWLkt7cMME0akmdHjRauzUKnFct9jM3Hu66W0wcLxphEqGuxM7KIIYKeh1avB/f0UNo1wVfDYgeBXO2Q/Lzx7kn3e9wqbje7TSu3YV8FPF13N9x5czMoo2PLbKnYMnqUNNitV3V7Va7HRTQSxkYCfwYqvUmOCoKed8pGxcu2FZax8QoeclAW5F6f/RCM/PAFS6Ag16tABDqudYcxEmBi/P3zoP1/zm6p+cVW08G5bKg9cE4f5UAv9hmg25AVSt7eVoku96NMuafRqb5fVfVaYg+Csz0JPCg3NpQESqYHmcn+RkNL9ZW5CbK10DDB2HHR04SCNUBP4uxrYVvkBWytBCgOBwYHu+8fgAA5SMZoYf38bbqXd67pma2/HygxMEUCHf/lFRkVDbwHtXvvDWfwHfvq0uKTHn1a9k5KOtSxbuozgol3Y9POZPy+M7sP7abpkx18s1375h6xJcufvslbx4fOv0eJneb6FEVKOX+sg3VNNZyvK+/0uQkj+tnuCa9Mdkvwu+GyyjsRKJy3hehaFSIpK5OhaFQCdUcf9C/WsjBKE6L3m8Sa4x4UORLiBH90y/nMpJbqJ7Etf26FjtF/HCgWJYCLntBjdfox2EQuzdDoBaZm88Wzm+F9IO4bT45/T24G7HeO0N/L13+h56pY4PvdgKmF6gd06wIfvlPPdDy0TfuxO8ypYCAs/+8H+ibcDB3UVfRw4fcrstLoJ4eDdXZ18/StJJPQ28XKRg7OeHVKO7xdNnvM8mix6ne6M40AIgcslL3HJvtHFxPDth7LZONNImMGrPvIsdx0f+s/X/KaqX4QY4tX9AzyyKYFNES38NTuOtaGD/HG/5cxyNfd1d/JqI8Zfx6d+90/QaccB7n6ayL1WRC3hxnvuJC8zhmCvC4CUZ/n2oGnj+0/T3NfnCeSn81zwxx9/Eu2SH38tFBTUcs36a1ho3kVBxtXMDmnlQH7decsVuO+BE9ND0as/oz5IoA+KZea6e1izaR0Vv9jq19NFvgUrYvwOQbhffXspn1YXQpLfrPHgYh3XhEFhko44u+RPXWOXJykF1y80cINJ440iF9Ujnp0foefJORPb4VIDaXHym2INy/ga0T2BZxF9aQd4brLitFcKC/flZSLHiBzdfozuIi59miahpYlvvNx+2iOZktZ6//MTQtJ4rJYnj9Ui9XpSU8K5Yf0snrx3DtWlh/mtZ57F5ekX/biNJTokE3k30mS3A0DqTTx5TyJBtb2cSE3im7c085n3Bs98ekOI8ftXJy75eeTStNFyPknu/Ta+XBlq4pbFIXQeb+dIv0DKAO57eB73xXXz6xcrKe5zuW9CM9L55SbjmZleoP/8yW+q+gWgYW8L+XfkcNtKE13psRjr6nijhTNPTYcNuwaRwaGMH2JSLkRqEtCN61IZksHc3ASsJw7QaBFIaWbpPY+xLLacXa/8lWaLw328pK/nvvVneceSbnx+7p+l1/Hne36apoHQTcnx13d4P3U330/uslQsyQsIaNhCUTvnuTWYCDKCfXhiD7EL4aS/sdxzvS2j0byEpXfOZ4ZxKz1+zBj41lcBglSvd1WFmgXhQJ+fUxP+srVrlLoEixL1LEkQWNs0Sk97L02aGXpbNd5u0SjtlpzoltQ5Tru5eTlrUOCle0SCAXp7NE548iu1gF43saDB13Z02CQYBSleFTeFCcxAhw9v9ztdrye/NK9wNCVMN+GYva1/BIIlXRV9HCjv50B5P/tbnBgCQE7gXUHhadHcvtRMnJQIl4um+h5eeLuNemEkNW4sXX2XDcwhzAwb+ywrxUSQZqOxY+rbIaVg8ea5PBBj4bkXjvGDHTbm3jqXzyWf5QgzmpjptabAnGQkGjudvWcmtTs10F38xaypewSiQsjxmm4OWJTDweeW81TaxMOkC93sG7ptEBHCLK/rhik3nR88mMHy0bghhNnJOtqLGvjtwR72efZHifUc5+8F+8/3/KaqXwCwtPP3Yy7mLJ7JffN0FB5q9bxv4jRaI52dEJ2SReAn/Ir9C10np7ue3i6ISCDOK0YNmr2BjXffQuboM7NJxCcFMFCylT1Hi6k5WU7dyXLaBs8xWR6cSHzE2I/G+HhMDGDt8z+/3t4eiEwi3uv408//LN/6yY+4IWXi+9qnIMh6gKMnRkjIvZ+lOQE0HN135vo6b+YZJIZDZ3vThOvlLTAwEHDi8HPq0beRFTssWxiArlmjzyBYm61DWF0cmUCgFR6uI9tzsMSGAjodWQl6ggBckrJOjaFTHed0cbjDwD8l6TGYJIUlrjO+rdb2S1an6HnUJjhhk5hMOq5KFOecgm2waMgkHbdn6ikeAZA0dWo0eVYlVze4aMgw8NklsK1ZMmQQzM/QszLIxX99pDGB+6NP7Who0qifoeczVxuIqNcYCdazNluHvcvFYa95TV/7r6ZNo2uGngeWGghvkNhDBMuTJv4t/tieFirWZPL9J5z8qcDKQKCRlWvTuT2sjc99px9/ByVkciL//mgEVTPreKVimCF9ALkrkpjh6OMvXpm15bdy8NY5/POXZhG4qw9LRDQP3hRGx+E6PvRannJp2hHIrIWxrDvjpXBdlHgeUw7KzuQH60KoeOcwf2jRcL1VxsuLlvD5R9P46P/UUeU9Nj2o56ZH5qA73E1HcDj33BKLrrWOHWd550hj7QC9hjjuuysRWeN077ehQfZVDGETgtiMaBZGuPNOidGBPpgFi2Ld7y6wD3GodBCLEJTtb6X0+iyefnIW8Xv66A4O446bEwhsruP9xrHyfM3vlMrmQbTFsXxu3SB7LQBOqoq7qfIswq871MqR9bN58iuzMO/po8do5s71sciT1bzTemq/DVJS7+LO5bP4fk8TB3s0IhKiuTEvlJGzPdN4wf7zPb+p6hcAITS27W3n6a8kscjVzfcOnn2dlhCtlBxvZuUNa1gWt4+9nWeevX5dT/1woevkZAtNXUCK2X2LjYwKAEMkKfMXEQDg6KC+oplhP9rRU3iA+us+zbrHP4PxYBWDwRksun4h1L1GcQee7m6iuXGERYvv5db+ndT2OAmJm8eceQk4z3YHGTIy59OfRRwtYSA4iyXXz0e0v0/56IMSvufXXrCfllWbWP+5BzAfOok1KJW865ZhaN1CSfPE+6WjrQWZu5iV17ZTbdWAITrKi+kc9j7+7JQdOsL6x1eS5irjncJ+znUhlVJH0urVpMiTbDt67nT+MJlMMNzJoJ/Xbx+Xvkq21UhWz9eTFSTo63fx/HHnhN5COSfbwBNJ47e7c5l7Z0ibix9t16jyfC6EoKBF45ElOhLtLl46bWWjEJKPjjmJzjWwaqaelULS3qPx8kl4YvHZ69Za6+Kv4QZunWNglUEgpcY7O+00nVr4aXHxzGHBg3N03LNIoHdKWntc/PqIRrk2sR11oXYAuCxO/vcw3J+j446Fevd7Vtpd/PSEc9y8nq/95+h28ovj8FC2jk8thN5ejT/XSubkTnAaqLmeL/xS8J3NSXz1kSAMIyPUnmzmG8/VcmgCfyulf385X42YyZevzeDfVwcQ6HLQ1d7PH56r4m9e54TobeObzxr41t0pPHZ/IkG2YYr3n+Bbr3eOPpJ4ydohzNz/Twu43/uz0fdmgDSY+cYjaSS31HPf++5pH+Gy8PM/NrH2G5n88NYu7nvHOhaYyj7+tMPBXffmkBsu6Wxo5t//VEf5Wc4jZ2kN334niKfXzuKn6/Xu9yw01nDr92upB5auz+W/l3h/fwrmi//sGXboaXS/lwZwtdTzpWcl39iUzCP3JRHiGKGmso6vvVpPmVe5vuZ3Ss32Cp5Jm8Njm+eyMUgHcpDnvtdN1aknbDubeeoXer65OYlH7kvEaLdTVVbNP7/SMPrYrxBOXvljCUkPzGDjhtncrnNSX9nMM9s1/usxr6+wo31//v7zJ78p6xcPR2kX+21JXFfZxhYr57xod+x8laKrvsq1Dz9Ix+9eorJ//PCfP9dTf1zoOjnZMq57grsWeN+OIln76FwAZN/HvPCDl2g8+6Zn1/0xr/9ez7oNa7hm8woC7X20V/2dl9/eMfqUjBBWCl/9/4i8804WXH8fC3Q2emr2sH2XgzvvP9uTX5Uc3D3E4jseINmsYW3ay1uvvUu79D8/rW0rf/29xo3rV3PN5pUEOvvpqn6PV94Zy28i/dK16yV2JD3Eig2PkheoQ8pW9jxTzM7TvhC5Ko9SPbyS2ScPUjrIOZbY6YlZ+ih3r46ja9cLHBk4ezp/hRhDwDbE0IWTjnPBvw106qVwZ3vRkKIovsm9ezkvr+zlC18788VtyoVdaf0nsrL54NuJHP3NXr519Pzjnbr41dz12H3MNvVQt/sl/ra1FPsV0AeXE/dL4Sp56bsvnP29R5cZkXEvX/7nFTS++HXeKDnz0XgZlsfND36aRZkm+vP/yF9ePcTAJD0tFHPjd3liHRx84Tn21/Zgs42c9+3Mp1yuU5KKcvm5/K9xU+sK6T8pBStXxpE42Mk7xy/81KLWvpu/PfOf/H1nNbroWAI/gToqZ3NlHIBSCjKXXkX4UBHHy86xYCI4hnBnGXv/8J88/8rkBSoAnXteYW+9iaWP/SdP/eBJloZdeBuY0j9kqCiK8g/IEM0dS4LoONzKXh/n7YW9lRPb/8AJOOPReUXxi2EhC3PDsRTtp+Ycx5/o3MGrz536YXKPNzFcwUe/+hcORCcSE6Gj38e/uHjBaSBFURRFUZSppKaBFEVRFEWZ1lSwoiiKoijKtKaCFUVRFEVRprUzghWTyTQV9VAURVEURTkrNbKiKIqiKMq0poIVRVEURVGmNRWsKIqiKIoyralgRVEURVGUaU0FK4qiKIqiTGsqWFEURVEUZVpTwYqiKIqiKNOa+kOGPpCJd/OlRdEc2vlbCobG/qiTMXIZK3OWkhpmJlCz0NVZyIGyA7TYp8+fW4pKuI6coDoK62oYVn8ATVEURbkMqZGVCZLGpaxftp4MaigseZudJ6uQsTewccnVmOX0CVaiE1ewOC1N/Vl5RVEU5bKlRlYmKDxpIcmcZMfhLZS7BFBKjT2cz+YtIsd0gMODU11DRVEURbkyXNbBijRcxeabrsVScZzozKWE9H/Ee9WhrF18NeHDJXx0+B1q7O6pDykFoTEruXZ2HilhYRicFro6C9hbdoB2x9j0iJQBxKTezNrsHGKDwNJzmI9bzxwpiTBGwkgd3U7As7m9Yw8fHI9i0OFVRx/LTZn3JJsSynltxxbaPNM1Mn4TTyxJpmj3LzlodX+WMOcr3J1cy45iJ/PmLSAuwImlr4T9x7dTY9Pc24Vcy/1rryNmdNpnLQ/fttZTHxcnj/6Ara3jp4SkzOH2/3yKtEM/5NdbGs7d5z6mMyca+I88HSabxi/2OChxqSkoRVEUZWIu62DFLYgE0wgFlcUsnruGm52FFJTnMydnJSszj1BT0QqALmwVty9dS0jvIfKLm7EHpZGbdRN3GJ385WA+Vs+NXR91PbcuWIS++xD7KltwGmeyOD0eDde4UnWC0SDlFOFspaapddwvfC3XP+ksyKijqvI9SgPSWZh9NesXD/LS3j30CwEjZew72kMQkJCxmYXBZf2qMuAAACAASURBVOwuL8cGgGSgdwJF+ikoWGDWQ0AQhKk4RVEURbkIV0CwoqOzbR/lbRGEpy0hqWc/ZY129EkrWW2MBNzBSkzyAmK1Mt4v2Ea1Z9qmzhXDZ+cvJNuYT9GwO7e4hNmYnd7pSujQP0FG+MRq52u5fgkcovLoOxTZ3fVrEvE8kpNNeuAejjtAuLpoaO1yp03YxEJDF3UtJQyMBkaXPnroqLHzZJuOYIdGl1NFK4qiKMrEXQELbDUkGqChSfc0B0g0CcJr1MJsNMNwN13OsS1tlg4GCSc8ZOwzU7AJbF3j0vUMdE24dr6W6xd7J90jYz9arL24CCHEz1W0UurQBxoJDDYSZAxEBwh9IIHB7s8C9MKvdN6EEFhtUgUqiqIoykW7AkZWfKMTOpAa41efSECH90yMQAByXDpNSCb6fI+v5fprXH5CIhETGDBZwMbvfZHcQK8N13ybp9e4/2k58Az/83q5H+kURVEUZfL9wwQrmtRA6E67nwtAw/tJY3dYIsal00lxRhygSeC0z6UhkZkJ0Vg7imnzLOz1tVxNjv1mLEOB8IwYXRpV7Hn+ZxzVAaSw/KFPEVf+Z94+3AGAq6/ez3SKoiiKMvn+YYKVAdsAxEUTrYd+90MzGMNiCaWPPutYOuuwFWJjiDFAv2dNbZQ5BtDG5ddn64XgWKIDoMMzxRMYey3rFkRTuKuYNrt/5fbbeiEgluhAaHWcKjcWvdZH/9DE2332YMlNiEG6asrpAqSE+RKi+uqoO9kwoXTepBDMTxFESUl5s0anVNNBiqIoysT8wwQrXc3H6Mxcy5qlNxHa2IIjKI35WTNwdG/h5AijQxodbRUMZC7j2qtuIqSxBYdxFrMTA5GMXwnb33Kclqz1rFy6gaD6BmwBSczNng29Oyi3juXna7nW1iIaZ25k+dIN6OsasBuzWTQjAWvLLmo0JrwmtsvSCYk5LM3opN4ugWG6O0/Sc6nXkkToeHyhnvBeJ19v5JNY06soiqJcof5hghXNso938wWrchZyde5V6J0Wujo+4K2yfAa9Fo+4ej5iS3Ega7PzWJmbx1DvUXbWNpMyP3p8hkP5vF+gZ2XOEhbPzyNAs9DV+SFvlx30eurG93LFcBHbDgWxat5SrsrNQ+/so73pTbZWlOO4iMUtfXXvsce8katyNjHHoEfKLgp2/5KD1vHphCjn3f/4/AXz8zVdXLSOSKC4wUWves2/oiiKchHEvHnzxq2IMJlMWK3Wc6VXlAuSUrL26iAejdL41XYH+eqFcIqiKMpFuAIeXVamHx0zI6C/2cUR54VTK4qiKMr5qGBFmXxmHTMDJQcbNDQ1BaQoiqJcJDUNpCiKoijKtKZGVhRFURRFmdZUsKIoiqIoyrSmghVFURRFUaY1FawoiqIoijKtqWBFURRFUZRpTQUriqIoiqJMaypYURRFURRlWlPBiqIoiqIo05oKVhRFURRFmdZUsKIoiqIoyrSmghVFURRFUaY1FawoiqIoijKtqWBFURRFUZRpTQUriqIoiqJMaypYURRFURRlWlPBiqIoiqIo05oKVhRFURRFmdZUsKIoiqIoyrSmghVFURRFUaY1FawoiqIoijKtqWBFURRFUZRpTQUriqIoiqJMaypYURRFURRlWlPBiqIoiqIo05oKVhRFURRFmdZUsKIoiqIoyrSmghVFURRFUaY1FawoiqIoijKtqWBFURRFUZRpTQUriqIoiqJMaypYURRFURRlWlPBiqIoiqIo05oKVhRFURRFmdZUsKIoiqIoyrSmghVFURRFUaY1FawoiqIoijKtqWBFURRFUZRp7YoMVvQp17Dp7ltZGCMnJZ2iTCYpBTqhjjlFURRfGaa6ApNNSgOpGQkYLFXUdgLi4tJd7qQMIXnRUhakRRMaqEMnBEMnd/Le0U4i569n3ZywsbSOBva9cZBWcYV2xjQgZSizrr+RhZGDlH34AaX9qq9PJ1OXc/fVJkre307FoOofRVGuwGAFYzqZcXp6S+sYON9N19d0lzl96gKWZZvoKM7n2IATAJe1DwBL/RH2drsPgZC0PBYlTlk1/4FINJcLzSVxTXVVFEVRLhNXXLBiSs8kmm6K6i2cb7jE13SXu1CzCYOri9ryhjNGTJyWTlot7n+HReaCClYuOSGGqN79DtXun6a4NoqiKJeHKypYkTKMzPQItI4j1Ns4zxSQb+nOX5bAGD+LvPkZxJpD0DmG6O+o5nhRFT0Od4YyIIM1t19FYOn77KgY9No2irwN15PRs5+3DzYjhUBKiTF+DgvnZxIfbkTnHKSnqYKi47UMuMYqKOOWcMfqOOoOlxE8ay5JYQHYrd3UHT9CWduQJy8d+gAdOiBAL0AKDAEBoztbai5cmn9rJnxprz5jFZvnWfj43SK69Oms2rSMqIY9vFPQjozJ47ZVwRS+ccCvaSYpJcaYWSxYMINYcwgBmo2BzjpKjlXQYZNe6S5cP4DoBbdwXXoH+UddzMhNJyLIxWBPIyUFxbQMaePyM2csZNHsFCJNwRhwMDzQRV1JISWtQwhPG3yuX+py7r46Bd2p7UZq2f1WPh2n9YWv7YhddCtrkpr5+N2jdJ/KM3EZm1dGULltGycsYjQ/X9oxVftDSj3hmXksyUkiPBgGu6o42nSOcn04PxRFuTJdWQtsY2aQZnbSWteI43wXYV/TnYcufDarVs0n2tVKWWEBRZXt6BLyuPaaLIzSc9G2N9HQoRGRmkqI9AoOopNJCnXQ2tCGPFW+OYdVq+YR62rhxJF8jpa3Y0i5ijXL0gmUpwcWepKykhmqLeHI0TLatSjmrlhOdqjn1wEZrNq0ic2bN3NDTgQiIJXlmzez2fPf+oUxl6S9TosFW3AYJj1gMhFiG8QZZiZQSgymUIzWfgb8Ldc8mxWrFxJHO5VF+RSeaMYZPY9VK+dg9lqk6tP+GBVD9gw9zScKKSxtRouYyfJrZhLqnc48m+VXZREyUMWxw/vYn3+cOnsEc1YsJTPQ//rRWcG+ffvYu3cvRY1DF9XPfvGxHb6a7P2hj53PiqsyCBmqp7iwiKpOMzlZZrTTC/br/FAU5UpzxYysSCmIz0glZKSFwmYH5xou8TXdhUSkpRPhamb/3mO0uATQSIvLzO2LM0gxVlM1DEI4aWrsYPHSFNLCyii3ureNTk4i1N7K0TbXaPnRmZme/IpG82t1hnHbkizSjPWcHPYuPRBLzSFK6t1rUBraNMy35pGSHEJVlQ1cLRzbZSEQCMlYwtKUIYr3ltHj2Vob6r0k7aXfglXEYwoFnTmMwK4O+uLMmAGHKRSntR6rp8VSSnSGAPSndb+mOdC0sQ/N6RlEaU0c3H2UJpcAmmgaMnL7yjRSzaWU9vtRv1OC7DQcLqBq2J2uQ0Rw64IkEoLKqbZ70oRHEib6KC0up86zyLOltY3G0ADsXotNfK2fGO6lrdX978hoF8RdRD/7w8d2+Gqy90dkchImRzP7942l69HfxE2R48v17/xQFOVKc8UEK+gTmJESjK2+lnaNc8cgvqa7gNDQEBhqZMA5lod9oJ9hUgkxAZ6Lp6O5kfbFS0lJNVNeZkHKSJKTwrC3HafDq/yQECMMNmAVARg8e0WzDDBMCiav/NyGGbB4BVq2Hjr7bcQGBAI2hBymv9O9QVisBnKEgY4OOi9iIbFP7XUMMDAcSqgJQkJNDPWfYCBqFuYAsIeZsPb1e007GJm15jYWRI+vU2v+6+ytG/teHRYaCoNN9HqV62o5xNt/18FYrOfz/gBgZIB+r+m/IcsgLiIIDgJOBSu93QzIJLKX5qHVdtDb20tv/xAD/QLvg8bX+k1qP/vDx3b4arL3h9FohMF6+r3S9VsGkJjGlevf+aEoypXmiglWAlIzSQywcrK+Y2xq5SLSXYgQAqRk3AC0lAgEOu9sHc00dSxmaUoaphMlWKKSSQqz03qsHc2rfIFARM7j5s3zGJ/lMGdWU+I98i1EDyU73ptwW3zhW3v7sVr1pJhCMJuDsTZ2YB1chDk8lJFQsDRavTYeoeHoLnpOOwJHLOPv8O7gZvwwvxACqUm8O8bn/XHqV2f5edxn1pMc2B9Abk4Kc6+aSaBO4BrupflEPgUn+3B5yva1fr7ytx0X5GM7/KrfJO4Pz8qaC5fr1/mhKMqV5ooIVqQMJD09AX1fObU9nGdhrW/pfCvTfXEel4UQSCTauEDCSXNjO4uXJZEWXkJrcjJhI60UdYy/KUsksu8kB4uaGBlfEhOYtZl0vrRXCAf9lhFmmWIIMw0zMOBkwArJYVEEhloY6BsbShJCYuvtxHZGSacvOD1LuROsnz+E0BhsLeVgaylSGAiNiCZ59iJy85bS176dCqt/9fOVr+2QGiDPPIRPDyV8bcdF1e9i2jFa6wvkN83PD0VRLq0rY4FtaDoZsYLu+jqs5/ua5Ws6H1gGByHEjFk/9lmg2UwwQwyddgNwNDfS7gwnKTmJxKQwRlob6ThtvcDQkA0CJcNdHXR2dtLZ2UmHZQShl7588bxomuYC3blvQr621zJgxRiaQESQhf5BGLAMYopJwKSzYhk8M98LGRwcgpBwIrzCal3iMu64ez3zw8c6xp/94YuA8ETSUqIJlhIhnQz1tlNZ2oBFhBLmNUPha/185Ws7rENDEByOOWjss7AIM3ptiEGvfva1Hb6a7P1hs9kg1Ey4V37hYeYzjsOpPj8URZlaV8TIijkjnUjZyZH6Qc73Lc3XdL4YqK+nb9Z8Fq1agLGuF2dQDDNy4nF1FNJ0+uPQzmYa251cnZKLMI/QUtR+xhRUd20tfdnzWLLcQVVTPw59CPFZc0gPqmfX1i4mcJ/3y1BPHyO6JGbmZkL3iPv67xigo9OKSwif2ztkseKYGUvMSA2lgN1iRTcrjhBrA30TWCPUV19H78xc8lYvwljTxYghgoycVPR9ZTR6PVrk1/7wRXgmi5fF0B99gurOQRz6YKIyMgl39XKyz//6BUcmEBnsroTJpAddCFFJSegBXFY62wdw+tHPtsZaOuZexbyVi9BXd+MwJjBzdgRDjfto8R6087Edvprs/dHb1MLgzGzyVi7AWNeH05hIeooBObp4yG2qzw9FUaaWPi4u7nveHwQGBmK328+VftqRMpLZS+YS0VNKQW3/uHUgE0nnc7kjPbT2aIQnpJKRkUFiZBAj7WUcLjiJRRuftxASq4hgZlYsISNNFBc1M3j63XOki9YeiEzJZMaMdJJizOgG6jl6qIR2790RmkROeii9tVV0DF+4DUGxWWRHj9BY3nTe0SRp7aaPKJKzssjOzCA9PZ3UiBHqajpxCOF7e7UwUuamENJ1kuNNFtBMpM1PJbS7muLGAb/XcciRLlq7XZjiUknPSCc5JgRnVzVHCsrodnin861+IfEzyYwYpL6ihaFTdQlLZk5aMN3V1XTa3Z+5+trp0cKIT80gIzOT9KQYTK5eThYWUtHrGHvPio/1S8y7iRW5GaSlpZEQHoDQm4hPSyMtLY3UOElrZRs2P/pZOPto6bRjSkgjPTOdxHAdlsbj5B9rwibH0vnajqnaH9pQF53DwcQmppKWlkikrpOSOhdpiYF0nKyh+9Q7WXw9PxRFuSKJefPmjRtENZlMWK0TGDefIiI2jw1r0unc9w6HW894O4Pf6RRFURRFmV4u6zUrUgoSMlMxDjdR23bul0b4mk5RFEVRlOnnsh9ZURRFURTlynZZj6woiqIoinLlU8GKoiiKoijTmgpWFEVRFEWZ1lSwoiiKoijKtKaCFUVRFEVRpjUVrCiKoiiKMq2pYEVRFEVRlGlNBSuKoiiKokxrKlhRFEVRFGVaU8GKoiiKoijTmgpWJpEMiCYtK4kAKS+cWFEURZlSMiSNjPRI9OqaPe1dUcGKlBKD+OQPOimDSVj+EJ//t//Dw7fMJ/Ci89Oj14lJqduVRPWLoiiTKiyP9V/6MV/98gPMjTVMdW2U87hi/pChlIINqwzcGw7v7LXz+sDZb2pSCpbl6vlUko6YQNAJQV+tna+WTCzIkTKA5Buf4sEbY2j++K9s3VlI1/DEAyYp41jx5X9nXUoPe3/1XT5unPjNOSTjBtbdupYZiVEEOfpor9rFR29vp8F6+X2L8LVfYvPuYIGpgv17yrCJKzOwiZv9Je7Njh79WTqL2bL1dWou4/ZGJVxHTlAdhXU1DJ+lHQlzvsI9MyIBkJqdkZFOGht3s/dkBVY58XZfqNzJdDntN1/2x93Jtby5/W2apmH9pRQEJF/PjGuWExFtRj/Sh6VxH3V7d2G1C690OkKSl7H6rntZGt3A1t88S0G7awprrpzLFRRKajhcAqdLYj9PqoAkPY9n6DhR5uSvnphsZFADJnbC6TM2semmFNre/zF/+agZ7aJPXA2n3YnT4cBxETGFjLqOuz93L7Gtu9j3ZhWDITNYdN1d3Pew5Llff0DvRVzgp4Zv/RK3YD0rYjQK95Rh++Qq94nqbX6P9/rc43ehiTezJn6KKzQJohNXsNikUVJXw/A50kj7SQ4eL6CHIEyRuSzOvpc7A1/iLyXVOCd43vlS7mS5nPbbJ9kvl4Iu5kbmbbyZoNZ9NO6qx2XMImHxJnLDJEfe3I3dc7wIoWFrOcjW37bh/PLT3Pipm6h5dgs90zAA+0d3xQQrQgh2HLSzw/3TOdPFhQmCXBp7T7o4MnpATuzAlFLPnDWrie7Zyxs7JyNQASG6yH/uSfIvol4AUYtXkK4r4a3n/8zxYQEcpmIwmic/vYrcmA/Y3XnRVf1ETVa/XAkc1lpqPIF2lPn6qa3MJ0kO0NZWTpMQyLZi2uQX+VTmcrIrqil3TnXlLuwfdr/5IHrGfLTGYnodk3Nuh81fSZgtn+PvvM6AJoAjdFtDWHbzShKid9PQMz69cNSxc8sBFn72OpZlbWVrzeU3+nylu+yDFZlo4IUlOnSeQEGOOPnpNiclwnuoTxAY4G6sUe/+LCBAh/HU710awxMaaZhFZlYQlqKjtJ5lexm8lod+cCt9Ww8Qv/o6Qhve4JWdZjY8dAORffm89/yLlFs89c77Av/2wGL0p9oxuI+Xvvv/zhgiTt34Yx5ZUsZbrztZfNtyEkIdDNTn89Frr1LeMzZ8GRUZA/2VdNgYvbePlL3LW3+Lx3raVyVT9i2sW7+K7OQo9PZeuk7u5+O33qNmYOyETbztRzy+tIo3Xx4g747VJJklg02F7Hz9ZUo6nH7nJ6UgLGsd6zasITMhkkBnP53V+9j59hZq+r3S+dAvMvpW/unpO0gY/WwjX35mo6ccjbKXPs9rRQIZfA33f/dR4gue4eevlyNP5Slmcsu/fpP5Nb/mZy8dnZSgc6KkFITGrGJVziLSTWHoXX20te5nT3kh3S7/6+VLftJwFZtvuhZLxXGiM5cS0v8R71WHsnbx1YQPl/DR4Xeo8Qyd+1q/U9MEO4qdzJu3gLgAJ5a+EvYf306NTXPnFXIt96+9jpjR/l7Lw7et9ZTj4uTRH7C19extFkLS3tuEMyuVSCNgGftdSNQqVs7OI90cjsE1QE/3MQ6U7aHRMz3rb7kXyu9SmMx+dudnIDr1Zq6bOYfYQD1DfUfY3RbBrfMiOPjx7zhiExPaH6aEDdx1nnJ9FbfyCe7MaqVkzzvs3l10UUGLlAaMZjN01WFxMXr9c7bWM8g8giOAnjO3c1YUUTOykszZqVDTMOHylUvjsg9W6HbxbL6GDohN0fPp6LOkCdDx1Ho9c71uQk/coh/994TXrOijCDNCf1/XeRIFk5JgY+/WfFbcsZE7HbvZ9+7HLLxtPTes3k35e3XuZNVbefWFgwggcsn93Jh1voJns3R5BWXbX6IwZBbLbrieOz/Tz29/PjZ8KXQCGN8mMVRPeX493iMTIuFW7n98I6GNO9n7WjXWkEyW3LCRTz3k4LlfbB0/HKqbydWrqyn7+GWKgmew5Pq13PHQIJ3PvE67J1jzNT9dws186vHNRDTvYv+bJ7EGp5G3diP3PqbnD//71mh+PvWLpZAdL3ViBJJWPcZycyHbthQxCICkv9aTznaYIyWf4t6Fq8h6s5yTnmuqLutq5oRbKCs4PqWBCoAubBUbl64lpO8wh4qbsQelkpt1O5uDHbxUUOz3Ohzf8wsiwTRCQWUxi+eu4WZnIQXl+czJWcnKzCPUVLROoH7pLMioo6ryPUoD0lmYfTXrFw/y0t499AsBI2XsO9pDEJCQsZmFwWXsLi/3TN9JBnov0DiXhgsd3muuhWk1dyxbg7E/n/ziRmyByeRmr+W2xU7+sm+f3+X6lN8lMKn9DOjD13Jr7mIMvYfYX9GCwziTvIxUxkV5fu+PdBam13PyPOX6qvy1H/Pmmtu4du0X+eK1jRcZtBgQApDa6BcSdxM0JDrEuR4r0ToZ6IdZEZGAClamm8s+WBF2ydF29015RqQezhasuJz89YBGKBCTYuCxJHj9sJNqz6+dtgmuWQkMwCDA5TrfGLSe9uKtHD8WQ+TyVaTXfEDRYRu6hetZHxULuIMVYamjstS9RWLmPXC+YMVoofTlFzloEcAh6nTJfHXDArJNWzg86F8Tgs0OGg6+Qum7H9LodE8XVWspfH1THjPDtnLIe6118BAnXvk9+/vd5VYNx/DUPQvJiX2d9g7/8otfsoJk11Fe+91LlNnd6cr6wvn6w1czL/Et2lvwuV+EvZWaIvfNlAWPQmArVUcP0XvaNJ8QLqoO5jOw6Bryco2cPDaMlDqyFy/C1FfAsSqvr2E+klKgDwzGoB//ueYYwjmBkZC4lDxiXGW8n7+VapcASqh3RfPY/KuYFVTMsfMtyLqo/HR0tu2jvC2C8LQlJPXsp6zRjj5pJauNkUCr//ULHKLy6DsU2d3pmkQ8j+Rkkx64h+MOEK4uGlo9gX7CJhYauqhrKWHgIqZng4IdtDRspaL8MG2aAEppkAk8Pm8WGUH7OGb3r1xf8rsUJrOfAaISZhKunWR7/jYqPPm1657g/plj2fi9PwJtlB9/m2PD7vyaRTwPn1aur6StidKtv+XEziTmrNnItau9gpZdRfQ6JzhVH5jH7PvvI7zuRQoOXyi1E5cLDAFBEypLubQu+2DFF0IK6rvdAU1qNICkpUvjxEWuWfGNhubSAInUQHO5p2qkdK+zmRBbKx0DjFa7v6MLB2mEmgA/gxVb5QdsrQQpDAQGByIA1+AADlIxmgDvYGW4lfa+sXJt7e1YmYEpAujwL7/IqGjoLaB9ZCw/Z/Ef+OnTAun/KLLPtOqdlHSsZdnSZQQX7cKmn8/8eWF0H95P04SmAiO45gv/xQ3p47etevWLvHzIzys2EBZsAls3vSKIAM/Z6bR2YmUuESbOOnw9OflpSDRAQ5PuYX+QaKcdp37Vz95Jt9f+tVh7cZFISCDgf9f4ZLjrALu63FMBAQF69/Fnt+IkEWMgnHf1/SeQn68mu59Dg0wwUkWPcyxdt6ULCJ94Je0d9HpNMw9Mwv6Vwy2c2PZbSnclMnfNPdx008M46ovYcnKCdZQupOYYve4ql69/iGDlktEkkqlY7um+rXj/LIGJ3GtF1BJuvOdO8jJjCDaMjY9K2XpmYk0bP7GkaUjEuPb7mp9Opxut9+i2QqK5Lm2PCtFCQUEt16y/hoXmXRRkXM3skFYO5NdNsNwBit/4Gc3B4z8dap/Yik8hdIjw1Txw8+pxn0s5yERi26nOb9zxIiQScUlPGGHM4drcdeRERRKk9z7+zjdV+8nl53O5k9zPYvR/p6e7OOOuQ5O0f2VwInNWbWDlirkY+0to7Z94XsJRTNUfi935hiRcOD3u93Up048KVi6Gw4Zdg8jgUGBgqmszjtQkoBt33ZAhGczNTcB64gCNFoGUZpbe8xjLYsvZ9cpfabY43Bef9PXctz7qzEx14/Nz/zx2wfMnP03TQOim5K2EfYf3U3fz/eQuS8WSvICAhi0UtTOhi6wQLgaayidt70upIS0FbC09cdojoy4sE7hoT/f8Lopej94zEuSum4ncBZtZEFrHwWPbaLc73cdmxEpun+3/CMJk5+df2ZPbzzaHDQwmQrw+Cw02Tavn6oQxhbmrb+PaFYuIGKmkaNszvHyokkG/p1OdSAkIHULKsXUrwnO9OmcsYiLICPZhP4enlU+EClYuhtZIZydkp2QRKFtGn92fDnp6uyAigTgjtHqudkGzN7Dx7ngO/PcBGi0AScQnBTBwdCt7jlaNbhscc/PZg4jgROIjoNpzsTTGx2NiAGvfqQS+59fb2wM5ScQHQbdnKF0//7N8/eEZHPn5d/iwaWJ96VMQZD3A0RN3sTn3fpbGBdCwZZ/XvPzUsgxbIVpjsKdm9AkzGRhPenjQWS+yLs3puQhPTn6TXT9faVI7bztOJ6UgLioZg9bjnooAIJa4sAAsLfsoaB1bIBkYsuKcx8P5y/U/PxG/hs2fWkNY21be+Nuhcx5Xn/R+6+5pZnhGDsvm5GCpa8JhnMPVybFIzr6K2d/9cbHiVjzB3bfkYbZVUrTtp+wZDVL8r4EQTmwDA5CRQZj+AAOe4R9DYjqh9NJ/rmDPPIPEcOhsb5pwO5RL57IPVsLDdWR7huBjQwGdjqwEPUEALklZp8bQJboRCdFKyfFmVt6whmVx+9jbOfGrdWjqAlLM7ktgZFQAGCJJmb+IAABHB/UVzX69YbOn8AD1132adY9/BuPBKgaDM1h0/UKoe43iDjzXgKb/v707j4rqyhM4/n1VUAJCITvihgIRxAWNSxDFSDRB7VZjFmPsmDExPZ3pyeSkMz3dZ7o70z2ZdOac6cxM90z3mU5iOuaEJG5ZXUi0A+IGbhBFQbYgLlBVrFXFVtubP1CWgFqgYJH8Pv94qs7l927dh9xf3e1x+WI7M2etZUVTNl/XO/ALTyQhMRJHX5POLb4kPPY0Sn4hZp8Y7k6bimLYS3HnmS3uxzOcOMKVBatJf2Y9+rwyrCPGkbR4Ll7Veyi8tZrRCgAAE1dJREFUPPB2MdZcQZ02i5SFBsqtLqAFY/EZTG3ddkApNoryTpK+KYXxziI+O9XEoM5N9IPxUgG10QtZMquN/MsG2r2CmBC9gHjdaT7MvtBrBMfSVE2bJoFp8UmojVezUruJqro6HIrS73i3u37uqrWYYHQ8c6JNXLCpQBt1pjLquy+sVPRERsaju3Yo3MRgzFWZlNm5evsM1JhtJIx5gLS2Y1S1OPEJiCU2IgQHfa9ZuPF1+x8vbGYaUydEoY5fzJTMPHItfRYb8vtmN+wnqyqcJZPWsj5GwdV+gbyLl1D0IwfQLrffqCBvKvbeWpLSnaXwMJaEB4j/vo2LxdcOhZsO1bswmHqHV1UNUampjFXL+Dzfc/4eiC7DPllJiPXi2aiev1hr5nZ0bmqrk1f2uSjt6wdvE2P2dgpmP8/CJ5/A+EYGJU0DW8gVvfhZHpre/XYEce/GKQCojVm8/XIGF/sTsC6LnZu1LFm+iOQH56OzNWIo/ZD3P93fuUtGUayc2v5ngtasYXraOqZrWqmvOMi+A3bWPB7bR9AScnNamLVqPWP0LqyXDvHJjl1d25b7Ec9Vk8kHm10sTU8l+cEUdI4mast3s/WzrngDaZfaAxnsj9rA/OUbSdJpUNVqDr52huyanp/EWZJPeVsKk8tyOduMx/xtclkO8ekJhdTJM5mf5I/GYaWh4SR7T33JFVfvSjpNX/J5aQCpE5axLEaHRlFQzdm8k5ONeQDxbnf93NVYuZuD+pXMjl9NgpcWVa3lRM7/ktttgbeiiyV5dmzncfuXyrdxqKys8/RaRWmh8PQO9FPTiI9ZTrzSTmNDPgfLvyZ95vh+X3cg8epLT1MzP5QA4xkqb/DUkqG+b4pioezM61woCSXYR0Nzcw3W8LXcc53y7tyP26lk9x8o6ajpbYnnqt3H2V0uJs2bx/hFyWidTVgu7KbwcFavL32qqiV0zkYeTg2n9sDbnOy2eUF4jm/Ns4HuJE1EKg89tY7J/vVU5mSwLfOsR00J3Q4dh8KVkPHS2x75LJP+UqLX8tyP53Nxy4t8VDgMjj8V4jbTjl3Hs9N9yNn/Fqdtw///9ECoAUk88MRjzJzoT9Pxd3hvex7mYfcoku+GYT+y4glchhy2vVZK4qJlzA4LYxB3NN5h347/xKqqMGnObAJbCthd1DmHIMS3msZ3PNH6jnO7VSWAidEToOUE1d22PX/n+IQS6Cji0Ft7yTtnGPAzpsTgk2TlNlFs1Zzb9xbngAHtCRVDx2sGM6YFYik4QkW3cyeE+DbzjUxjxZQJAKjONiyW82SfysH0Hf57pZj2s/31ay++u+0wHMg0kBBCCCE82p045kIIIYQQwm2SrAghhBDCo0myIoQQQgiPNuySFX9//ztdBSGEEEIMoWGXrAghhBDiu0WSFSGEEEJ4NElWhBBCCOHRJFkRQgghhEeTZEUIIYQQHk2SFdGL6h3C+JgovFX15oWFR1P9xhM9IQit3EshxDAmyYropKo+RN6zgR/+8rc8uWwquluOp0WrkedtfNOQtktAEul//yrPP7eeKWHyKDAhxPCkDQ8P/3X3N3Q6HTab5z4z2NPrN1ypqjdjlr7AhhUTqT+4hQ8+PEyT81bihTP/uVd58sF5aM9nUWkeeOfsF30fy9Y/xbJVD7NoYQpxY7yo/7qCpmH4a+Buu4QlrSI5VqHmgunWngRrLeXcWRN+U+5nyaJ4WoqOc6VZRlmEEMOLjKwIALTRq1l9/1hqMv+L9/aeoLbtVjs0Fw6bA4fdjv0WQqnBi3n4mbXEKcXkfryFPVlncMU9xLonlxCkDMdO1712CZ+ezvy5cfjc4tUUxUXrlVwy/+/3HDVPZumj9xMsU0JCiGFGxoUFqqolYVEqIfWH+Cj7Mq7b8Kh0Ranl+OsvcLzj1YDjBM+azwRNIZ+8+S6n2xTgGOebQ3jhsQVMC/2CHNMtV3VI3a526fd17ZVk7znKjKcXMzcmk8wKSViEEMOHJCuDTFW9CZ+3juVpSUTqtTRXHSSzMJS1q0LIfvXfOFzf0WGpd23gp88kcPq93filrmRyhA9t9aWc3vUu2UX1qFcTCFVVCLgrnfvTFxAdOQrvtgZqSrP566f7uNTSUcZ73j/ws/tr2fKvGVR5JbPut08x9uQf+N22QtRJ63hhUwB7f/FnzqvXOsu7mBgzAktBPtVq7w5U9bmXDS+voDHzKBGpixlZ9RFbs/Us33AfQY3H2f3mFootV+uX9CN+uX4W2mv1bT5Mxkt/oeIbCdC4la/yN3cX8clOB7O+dw+RI+2YLxznyx3bKa7vmn8KDgqFphKMrXT27e1Fu/hkWwTWtp719I9dxpL0BcSOCUZra6C27AhZn+ymwtzVMY/+3itsmlPKx++bSVqVSpRepfnSKbJ3vk+h0dHveKqqEBCzhCXLFzExMgidowlT+WGyP91DRVO3cm60ixqygr/9+SoiO99byXOvrbx6HRdFGT9kR4GC6pPM4y9tJOLEa/x+Z3HX74YSx7Jf/JSpFX/iPzPyeyWdjvMFVLSnMHHyOKio6nWfAfSjvfiXJA3+rS7+56CdQqesORJC3HkyDTTItONX8ujDKQQ35ZG18z0OlgWSPH/SdUrruCtlJtaTH7Hr4z2U22NZsOGHzAvtKqGJXMZjT69mvP00hz/awt6cIrQJj/L4D9LQXx3etxmNWANCCfICQiMIaqqjPWw0fqqKd2go/rXVGF3dKxlMgC80Ndbe4JP4MDaylbzM47TFrWRNioaTu7IwjVrAfakTu4qVZ7L97T+x9S9/5IvTDTdpncnMuceLkn0Z7PmiANvYNNb8oOc0haJRgJ6jAErLBYqPH+OSpasjVSJX8Pim1UxUCzm04y/s3v8VjpiVPLqhj2kPTRzzUkdRkfU+ez4/hjViAas2rCSi27SSu/E0kQ/w6KaHmaSe4+jHW9i9/xS2CStZ+9T3e8Rzq10sp9if8SY7332Do5VO1PrjZL77BjvffYMPM94k9+ur5VqPcbKwmYAZC4jRdvtYMfNICLRQdOJ036NjLhPmJggYFdT39YERPgp6LYwYAQGSpwghPISMrAyysMTpBDsK+XjzB5yxKUAeV7S/4UdL+irtS23em+w/3gpAYZGD0F89Svy0YHKzOzq4iNnJjLbns33zBxTbO6ZFSu3h/OTBZBIDv+SoGag2UKdMISQUNBER6CqKMMSNJgxoDw3Dbsqlsftldd54KeB0Org+LYYzmZz+KpSgexYwoeILCo61opmRTnpwGFAJgGKppORsx0+MnvgIxNwgpK+Fs+9vIdfS0S6VmjE8v3w6sf57ONZ806btwUdvpyp3K2d3/ZWLjo52KXeN5cXVScQFZJJn7V64hXNbN3OkqeO6pW2h/OSRGcSH7cRg7F+8iLvnM8aZz443MiiydZQragzkxSfnkTj6EwxXcLtdFFs1FQXVHS+mbwRdNaX5eTR0Jh4d/yqKk9Lc45hnJpM0zZeyr9pQVQ2xs2bi33iCr0qd9D3F5MDpBC/vEddtR2OFjRdqNPjYXdQ6JFsRQngGGVkZZAF6PZhrMLV3vWc0VNP3igELtcaWrpfmr7l4pQFFF9j5VlBQMDRWY+q2E6alugYrwQReG4FpvUydNYTAMBgVHobZcJpaexhhvhqCQ0NpqLnUOXXgPhcupwtQUV3gcnZM1agqKANd49JajdHc9bLJWIudkYwcwIO1W0u+IPPjL6lyeuHt44vOxxdnsxk7I/H9Zry2agzdsrVWgwErevxH9T9eUHAINFzB0O3+Os68xe9+/iuyqvv/OdzlKs+m0DiCuDlz8VFV0E5lamIAdQVHuNTHVJ67FEXB2qpKoiKE8CgysjLYlN7TGPT5DoALuk3PKEo5f/3vn/UoodFoQHV1LwaqC9Cg6Uw9L1Nf6018aDBhYXrqCs5RV7uOsNEh+AVDbUHNNy6rojKUyz2vUXt+DjrqMZC+Vgm+m6WPrCFpYig+Xl05uKr2kTG4XD3b3+VCRenx+d2Np9FoOuvd+bOKiss5uC2qKFc4ceJrktOTmaE/wInoeUz2q+bo8cobXlcBVNkNJIQYZiRZGWQtLS3gp8e/o08DOkZbBjqk5XK5QNH0/HlFA7hwXe35FaUZk7GZ5JA4QkPM1BnaqauD+PBoWkJM1Fa76NGh2VuxuSDIZyRgxpOoLhXQ9Oh+Vb9opkyLxHruKBctCqqqZ84jTzE3rJgDWz/gssXekQRNSGddenDvoJqe8TpedyUc/YnX5/0YIo3HjlD5wONMmzsOy5jpeFftocDADXIVf0b4gq2tn3NsQghxh8k00CAzVlTQ6juT1BUzCdPrCZx4L2l3R31jRMF9DfV1MCqSMO+u9/wiI/GnjsZu23iNphpGBk0l3L8GUx2YTEZCJiQS5FWD6ZvraF0XMZkgZGwMOg/71l3fUAujIgn37XpvxOTlrHx4GRM7DyGJIiLKG3NhJgfzz1BRVkxlWTE1zWrfv+A+o4noNuXjGxGBP2asjf2P19BQD0FRRHRbBqKd+jT/9B+vcN/YgbelW0mQ9Sj559qJnPY4c+K9qco/jPlGU3L6SYwOBJPh0nWLqIpC4jgNC8cqhA3Lc2yEEN9GMrIyyOyFO9l9LIqVi/6OZ+9VcDaXceBYOUqUfkDxDCePUp26mvSn1xJwopJ2/1hmpSVgL32Ps2Y6v1WbDUbsKfGMb87hANBiNKFNTSCoLq9jJ1C3Pk1Rqik8fZmU+xYxN/wwh0wD76RGjpvOWH1HFxsU7A1eQYydOhNvALuRC+cv09aPNS71p45yYfFjLNn0A3xzS2n2iWZm2gyo3MEZ47XPcYnLF9uZOWstK5qy+bregV94IgmJkTiw9w7a4kvCY0+j5Bdi9onh7rSpKIa9FHcme+7HM5w4wpUFq0l/Zj36vDKsI8aRtHguXtV7KLw88HYx1lxBnTaLlIUGyq0uoAVj8RlMbd12QCk2ivJOkr4phfHOIj471cT1hlVUVUNUaipj1TI+z79+OUZp2DRDS2CDgxcvXr+YEEIMJUlWBpmiNHBu28uUZkYSFuSFtaYKc+KPWTzAeK6aTLZuVliankLqmkV4tTdQU7SN9z7NwtI9CTDUUDcqmZDKmo6dP9XVWIIWEHHmCvV9xDVmb6dg9vMsfPIJjG9kUDLAs/ajFz/LQ9O7/1oFce/GKQCojVm8/XIGF/sTsC6LnZu1LFm+iOQH56OzNWIo/ZD3P93fuUtGUayc2v5ngtasYXraOqZrWqmvOMi+A3bWPB7bR9AScnNamLVqPWP0LqyXDvHJjl0Y1P7Hc9Vk8sFmF0vTU0l+MAWdo4na8t1s/awr3kDapfZABvujNjB/+UaSdBpUtZqDr50h+xvLjZwl+ZS3pTC5LJezzfSZXKiqltA5G3k4NZzaA29z0tx3OYDwEA1BwJkqZ7ddSEIIcWcpiYmJPb5G+/v7Y7Var1f+jvP0+rlDO/c5/vkRP774zb+TZ/WcDkETkcpDT61jsn89lTkZbMs8i+1b1mF1HApXQsZLb/c6qG44UqLX8tyP53Nxy4t8VNh767kakMQDTzzGzIn+NB1/h/e252G+zgpmVVW5d94INga7+OM+O8flQDghhIeQkZUhoA2OI3b0SABUr1HEzb8LtS6HKgseNczuMuSw7bVSEhctY3ZYGDpgGD4r0A0e1Oi3QFUVJs2ZTWBLAbuL7PT5uXxCCXQUceitveSdM9zkoYga4kZB02UnJx19hxNCiDtBkpUh4DdtDWu/3zF94HK0YL7yFZkZn1Htgd/sFVs15/a9xTm4uu1aeCyvGcyYFoil4AgV10kuFNN+tr9+7cVN7qdeQ5xOJbfKdVueDyWEELeLTAMJIYQQwqPJ1mUhhBBCeDRJVoQQQgjh0SRZEUIIIYRH65WsePp6EE+vnxBCCCFuLxlZEUIIIYRHk2RFCCGEEB5NkhUhhBBCeDRJVoQQQgjh0SRZEUIIIYRHu2myomh0eGnVmxUTQgghhBgUN302UOjSX/CjtFBaTMWc+uxdss43DEW9hBBCCCEA0IaHh//6RgVsDZVUlV/AFjWflIXjqD+Sh9EhDzkTQgghxNC46TSQo76SinOH2fflV7TrRhMROhTVEkIIIYTo4PYCW42PH9600946mNURQgghhOjJ7WRlZGAAGsxYmgazOkIIIYQQPbmdrIwY4QPOVtrtg1kdIYQQQoie3E5WGi9eoFk7gbikMfj7+aLz8ZUtzUIIIYQYdEpiYqJbGYeq6ohO/0cevS8aX03HbqDKT1/knRzzoFZQCCGEEN9tNz1n5RrN+O+xIi0Mw4Et5JbWYXNBm7F5MOsmhBBCCOF+shI0eQoh6nm+3HWIEkXOWRFCCCHE0HB7zYrD6QCNNzq30xshhBBCiFvndrJitVhQlUD89YNZHSGEEEKIntxOVpwWKzZ88R05mNURQgghhOjpppM6ikbHiJGhxMyIReeSQ+GEEEIIMbTceurys0ujUG21lO7ZykkzIOtrhRBCCDFEbnrOildwNFH+NhqMBixtzqGqlxBCCCEE4MbIiqO+kqr6oaiKEEIIIURvbi+wFUIIIYS4EyRZEUIIIYRHk2RFCCGEEB5NkhUhhBBCeDRJVoQQQgjh0f4fbb2GTwquV9oAAAAASUVORK5CYII=;" parent="1" vertex="1">
          <mxGeometry x="202" y="817" width="555" height="192" as="geometry" />
        </mxCell>
        <mxCell id="65vioNYkB3K--B5amISv-6" value="&lt;b&gt;&lt;font style=&quot;font-size: 22px;&quot;&gt;2-10&lt;/font&gt;&lt;/b&gt;" style="text;strokeColor=none;align=center;fillColor=none;html=1;verticalAlign=middle;whiteSpace=wrap;rounded=0;fontColor=#FF0000;" vertex="1" parent="1">
          <mxGeometry x="605" y="835" width="62" height="41" as="geometry" />
        </mxCell>
        <mxCell id="65vioNYkB3K--B5amISv-7" value="" style="whiteSpace=wrap;html=1;fillColor=none;strokeColor=#FF0000;strokeWidth=4;" vertex="1" parent="1">
          <mxGeometry x="245" y="927" width="418" height="28" as="geometry" />
        </mxCell>
        <mxCell id="65vioNYkB3K--B5amISv-8" value="&lt;b&gt;&lt;font style=&quot;font-size: 22px;&quot;&gt;false&lt;/font&gt;&lt;/b&gt;" style="text;strokeColor=none;align=center;fillColor=none;html=1;verticalAlign=middle;whiteSpace=wrap;rounded=0;fontColor=#FF0000;" vertex="1" parent="1">
          <mxGeometry x="669" y="920.5" width="62" height="41" as="geometry" />
        </mxCell>
      </root>
    </mxGraphModel>
  </diagram>
</mxfile>
